%TF.GenerationSoftware,KiCad,Pcbnew,7.0.7*%
%TF.CreationDate,2023-10-12T12:03:03-07:00*%
%TF.ProjectId,JumperLUX,4a756d70-6572-44c5-9558-2e6b69636164,rev?*%
%TF.SameCoordinates,Original*%
%TF.FileFunction,Profile,NP*%
%FSLAX46Y46*%
G04 Gerber Fmt 4.6, Leading zero omitted, Abs format (unit mm)*
G04 Created by KiCad (PCBNEW 7.0.7) date 2023-10-12 12:03:03*
%MOMM*%
%LPD*%
G01*
G04 APERTURE LIST*
%TA.AperFunction,Profile*%
%ADD10C,0.050000*%
%TD*%
G04 APERTURE END LIST*
D10*
X62230000Y-76835000D02*
X62230000Y-101600000D01*
X63627000Y-181483000D02*
X63627000Y-184099200D01*
X64135000Y-103505000D02*
X62230000Y-105410000D01*
X62230000Y-132588000D02*
X65532000Y-132588000D01*
X68072000Y-185928000D02*
X68072000Y-187325000D01*
X62230000Y-138557000D02*
X62230000Y-181483000D01*
X142875000Y-103505000D02*
X144780000Y-101600000D01*
X62230000Y-105410000D02*
X62230000Y-132562600D01*
X63627000Y-184099200D02*
X65455800Y-185928000D01*
X68072000Y-187325000D02*
X138938000Y-187325000D01*
X144780000Y-132588000D02*
X144780000Y-105410000D01*
X144780000Y-105410000D02*
X142875000Y-103505000D01*
X63627000Y-138557000D02*
X62230000Y-138557000D01*
X144780000Y-138557000D02*
X143383000Y-138557000D01*
X144780000Y-76835000D02*
X142875000Y-74930000D01*
X62230000Y-181483000D02*
X63627000Y-181483000D01*
X144780000Y-181483000D02*
X144780000Y-138557000D01*
X141528800Y-185928000D02*
X143383000Y-184073800D01*
X64135000Y-74930000D02*
X62230000Y-76835000D01*
X143383000Y-181483000D02*
X144780000Y-181483000D01*
X143383000Y-184073800D02*
X143383000Y-181483000D01*
X138938000Y-185928000D02*
X141528800Y-185928000D01*
X143383000Y-138557000D02*
X143383000Y-135966200D01*
X138938000Y-187325000D02*
X138938000Y-185928000D01*
X141478000Y-132588000D02*
X144780000Y-132588000D01*
X142875000Y-74930000D02*
X64135000Y-74930000D01*
X65532000Y-134035800D02*
X63627000Y-135940800D01*
X63627000Y-138531600D02*
X63627000Y-138557000D01*
X65455800Y-185928000D02*
X68072000Y-185928000D01*
X144780000Y-101600000D02*
X144780000Y-76835000D01*
X62230000Y-101600000D02*
X64135000Y-103505000D01*
X143383000Y-135966200D02*
X141478000Y-134061200D01*
X63627000Y-135940800D02*
X63627000Y-138531600D01*
X62230000Y-132562600D02*
X62230000Y-132588000D01*
X141478000Y-134061200D02*
X141478000Y-132588000D01*
X65532000Y-132588000D02*
X65532000Y-134035800D01*
M02*
