M48
; DRILL file {KiCad 7.0.7} date 2023 October 12, Thursday 12:02:58
; FORMAT={-:-/ absolute / metric / decimal}
; #@! TF.CreationDate,2023-10-12T12:02:58-07:00
; #@! TF.GenerationSoftware,Kicad,Pcbnew,7.0.7
; #@! TF.FileFunction,NonPlated,1,4,NPTH
FMAT,2
METRIC
; #@! TA.AperFunction,NonPlated,NPTH,ComponentDrill
T1C0.500
%
G90
G05
T1
X65.405Y-103.505
X66.675Y-103.505
X66.675Y-133.35
X67.945Y-103.505
X67.945Y-133.35
X69.215Y-103.505
X69.215Y-133.35
X70.485Y-103.505
X71.755Y-103.505
X71.755Y-133.35
X73.025Y-103.505
X73.025Y-133.35
X74.295Y-103.505
X74.295Y-133.35
X75.565Y-103.505
X76.835Y-103.505
X76.835Y-133.35
X78.105Y-103.505
X78.105Y-133.35
X79.375Y-103.505
X79.375Y-133.35
X80.645Y-103.505
X81.915Y-103.505
X81.915Y-133.35
X83.185Y-103.505
X83.185Y-133.35
X84.455Y-103.505
X84.455Y-133.35
X85.725Y-103.505
X86.995Y-103.505
X86.995Y-133.35
X88.265Y-103.505
X88.265Y-133.35
X89.535Y-103.505
X89.535Y-133.35
X90.805Y-103.505
X92.075Y-103.505
X92.075Y-133.35
X93.345Y-103.505
X93.345Y-133.35
X94.615Y-103.505
X94.615Y-133.35
X95.885Y-103.505
X97.155Y-103.505
X97.155Y-133.35
X98.425Y-103.505
X98.425Y-133.35
X99.695Y-103.505
X99.695Y-133.35
X100.965Y-103.505
X102.235Y-103.505
X102.235Y-133.35
X103.505Y-103.505
X103.505Y-133.35
X104.775Y-103.505
X104.775Y-133.35
X106.045Y-103.505
X107.315Y-103.505
X107.315Y-133.35
X108.585Y-103.505
X108.585Y-133.35
X109.855Y-103.505
X109.855Y-133.35
X111.125Y-103.505
X112.395Y-103.505
X112.395Y-133.35
X113.665Y-103.505
X113.665Y-133.35
X114.935Y-103.505
X114.935Y-133.35
X116.205Y-103.505
X117.475Y-103.505
X117.475Y-133.35
X118.745Y-103.505
X118.745Y-133.35
X120.015Y-103.505
X120.015Y-133.35
X121.285Y-103.505
X122.555Y-103.505
X122.555Y-133.35
X123.825Y-103.505
X123.825Y-133.35
X125.095Y-103.505
X125.095Y-133.35
X126.365Y-103.505
X127.635Y-103.505
X127.635Y-133.35
X128.905Y-103.505
X128.905Y-133.35
X130.175Y-103.505
X130.175Y-133.35
X131.445Y-103.505
X132.715Y-103.505
X132.715Y-133.35
X133.985Y-103.505
X133.985Y-133.35
X135.255Y-103.505
X135.255Y-133.35
X136.525Y-103.505
X137.795Y-103.505
X137.795Y-133.35
X139.065Y-103.505
X139.065Y-133.35
X140.335Y-103.505
X140.335Y-133.35
X141.605Y-103.505
T0
M30
