%TF.GenerationSoftware,KiCad,Pcbnew,7.0.7*%
%TF.CreationDate,2023-10-12T12:03:03-07:00*%
%TF.ProjectId,JumperLUX,4a756d70-6572-44c5-9558-2e6b69636164,rev?*%
%TF.SameCoordinates,Original*%
%TF.FileFunction,Paste,Top*%
%TF.FilePolarity,Positive*%
%FSLAX46Y46*%
G04 Gerber Fmt 4.6, Leading zero omitted, Abs format (unit mm)*
G04 Created by KiCad (PCBNEW 7.0.7) date 2023-10-12 12:03:03*
%MOMM*%
%LPD*%
G01*
G04 APERTURE LIST*
G04 Aperture macros list*
%AMRoundRect*
0 Rectangle with rounded corners*
0 $1 Rounding radius*
0 $2 $3 $4 $5 $6 $7 $8 $9 X,Y pos of 4 corners*
0 Add a 4 corners polygon primitive as box body*
4,1,4,$2,$3,$4,$5,$6,$7,$8,$9,$2,$3,0*
0 Add four circle primitives for the rounded corners*
1,1,$1+$1,$2,$3*
1,1,$1+$1,$4,$5*
1,1,$1+$1,$6,$7*
1,1,$1+$1,$8,$9*
0 Add four rect primitives between the rounded corners*
20,1,$1+$1,$2,$3,$4,$5,0*
20,1,$1+$1,$4,$5,$6,$7,0*
20,1,$1+$1,$6,$7,$8,$9,0*
20,1,$1+$1,$8,$9,$2,$3,0*%
G04 Aperture macros list end*
%ADD10R,0.700000X0.700000*%
%ADD11RoundRect,0.062500X-0.220971X-0.309359X0.309359X0.220971X0.220971X0.309359X-0.309359X-0.220971X0*%
%ADD12RoundRect,0.062500X2.165515X-2.253903X2.253903X-2.165515X-2.165515X2.253903X-2.253903X2.165515X0*%
%ADD13RoundRect,0.062500X1.988738X-2.077126X2.077126X-1.988738X-1.988738X2.077126X-2.077126X1.988738X0*%
%ADD14RoundRect,0.062500X1.811961X-1.900349X1.900349X-1.811961X-1.811961X1.900349X-1.900349X1.811961X0*%
%ADD15RoundRect,0.062500X1.635184X-1.723573X1.723573X-1.635184X-1.635184X1.723573X-1.723573X1.635184X0*%
%ADD16RoundRect,0.062500X1.458408X-1.546796X1.546796X-1.458408X-1.458408X1.546796X-1.546796X1.458408X0*%
%ADD17RoundRect,0.062500X1.281631X-1.370019X1.370019X-1.281631X-1.281631X1.370019X-1.370019X1.281631X0*%
%ADD18RoundRect,0.062500X1.104854X-1.193243X1.193243X-1.104854X-1.104854X1.193243X-1.193243X1.104854X0*%
%ADD19RoundRect,0.062500X0.928078X-1.016466X1.016466X-0.928078X-0.928078X1.016466X-1.016466X0.928078X0*%
%ADD20RoundRect,0.062500X0.751301X-0.839689X0.839689X-0.751301X-0.751301X0.839689X-0.839689X0.751301X0*%
%ADD21RoundRect,0.062500X0.574524X-0.662913X0.662913X-0.574524X-0.574524X0.662913X-0.662913X0.574524X0*%
%ADD22RoundRect,0.062500X0.397748X-0.486136X0.486136X-0.397748X-0.397748X0.486136X-0.486136X0.397748X0*%
%ADD23RoundRect,0.062500X0.220971X-0.309359X0.309359X-0.220971X-0.220971X0.309359X-0.309359X0.220971X0*%
%ADD24RoundRect,0.062500X-0.397748X-0.486136X0.486136X0.397748X0.397748X0.486136X-0.486136X-0.397748X0*%
%ADD25RoundRect,0.062500X-0.574524X-0.662913X0.662913X0.574524X0.574524X0.662913X-0.662913X-0.574524X0*%
%ADD26RoundRect,0.062500X-0.751301X-0.839689X0.839689X0.751301X0.751301X0.839689X-0.839689X-0.751301X0*%
%ADD27RoundRect,0.062500X-0.928078X-1.016466X1.016466X0.928078X0.928078X1.016466X-1.016466X-0.928078X0*%
%ADD28RoundRect,0.062500X-1.104854X-1.193243X1.193243X1.104854X1.104854X1.193243X-1.193243X-1.104854X0*%
%ADD29RoundRect,0.062500X-1.281631X-1.370019X1.370019X1.281631X1.281631X1.370019X-1.370019X-1.281631X0*%
%ADD30RoundRect,0.062500X-1.458408X-1.546796X1.546796X1.458408X1.458408X1.546796X-1.546796X-1.458408X0*%
%ADD31RoundRect,0.062500X-1.635184X-1.723573X1.723573X1.635184X1.635184X1.723573X-1.723573X-1.635184X0*%
%ADD32RoundRect,0.062500X-1.811961X-1.900349X1.900349X1.811961X1.811961X1.900349X-1.900349X-1.811961X0*%
%ADD33RoundRect,0.062500X-1.988738X-2.077126X2.077126X1.988738X1.988738X2.077126X-2.077126X-1.988738X0*%
%ADD34RoundRect,0.062500X-2.165515X-2.253903X2.253903X2.165515X2.165515X2.253903X-2.253903X-2.165515X0*%
%ADD35RoundRect,0.087500X-0.287262X-0.411006X0.411006X0.287262X0.287262X0.411006X-0.411006X-0.287262X0*%
%ADD36RoundRect,0.087500X2.894718X-3.018462X3.018462X-2.894718X-2.894718X3.018462X-3.018462X2.894718X0*%
%ADD37RoundRect,0.087500X2.664909X-2.788652X2.788652X-2.664909X-2.664909X2.788652X-2.788652X2.664909X0*%
%ADD38RoundRect,0.087500X2.435099X-2.558843X2.558843X-2.435099X-2.435099X2.558843X-2.558843X2.435099X0*%
%ADD39RoundRect,0.087500X2.205289X-2.329033X2.329033X-2.205289X-2.205289X2.329033X-2.329033X2.205289X0*%
%ADD40RoundRect,0.087500X1.975480X-2.099223X2.099223X-1.975480X-1.975480X2.099223X-2.099223X1.975480X0*%
%ADD41RoundRect,0.087500X1.745670X-1.869414X1.869414X-1.745670X-1.745670X1.869414X-1.869414X1.745670X0*%
%ADD42RoundRect,0.087500X1.515860X-1.639604X1.639604X-1.515860X-1.515860X1.639604X-1.639604X1.515860X0*%
%ADD43RoundRect,0.087500X1.286050X-1.409794X1.409794X-1.286050X-1.286050X1.409794X-1.409794X1.286050X0*%
%ADD44RoundRect,0.087500X1.056241X-1.179984X1.179984X-1.056241X-1.056241X1.179984X-1.179984X1.056241X0*%
%ADD45RoundRect,0.087500X0.826431X-0.950175X0.950175X-0.826431X-0.826431X0.950175X-0.950175X0.826431X0*%
%ADD46RoundRect,0.087500X0.596621X-0.720365X0.720365X-0.596621X-0.596621X0.720365X-0.720365X0.596621X0*%
%ADD47RoundRect,0.087500X0.366812X-0.490555X0.490555X-0.366812X-0.366812X0.490555X-0.490555X0.366812X0*%
%ADD48RoundRect,0.087500X0.167938X-0.291682X0.291682X-0.167938X-0.167938X0.291682X-0.291682X0.167938X0*%
%ADD49RoundRect,0.087500X-0.167938X-0.291682X0.291682X0.167938X0.167938X0.291682X-0.291682X-0.167938X0*%
%ADD50RoundRect,0.087500X-0.366812X-0.490555X0.490555X0.366812X0.366812X0.490555X-0.490555X-0.366812X0*%
%ADD51RoundRect,0.087500X-0.596621X-0.720365X0.720365X0.596621X0.596621X0.720365X-0.720365X-0.596621X0*%
%ADD52RoundRect,0.087500X-0.826431X-0.950175X0.950175X0.826431X0.826431X0.950175X-0.950175X-0.826431X0*%
%ADD53RoundRect,0.087500X-1.056241X-1.179984X1.179984X1.056241X1.056241X1.179984X-1.179984X-1.056241X0*%
%ADD54RoundRect,0.087500X-1.286050X-1.409794X1.409794X1.286050X1.286050X1.409794X-1.409794X-1.286050X0*%
%ADD55RoundRect,0.087500X-1.515860X-1.639604X1.639604X1.515860X1.515860X1.639604X-1.639604X-1.515860X0*%
%ADD56RoundRect,0.087500X-1.745670X-1.869414X1.869414X1.745670X1.745670X1.869414X-1.869414X-1.745670X0*%
%ADD57RoundRect,0.087500X-1.975480X-2.099223X2.099223X1.975480X1.975480X2.099223X-2.099223X-1.975480X0*%
%ADD58RoundRect,0.087500X-2.205289X-2.329033X2.329033X2.205289X2.205289X2.329033X-2.329033X-2.205289X0*%
%ADD59RoundRect,0.087500X-2.435099X-2.558843X2.558843X2.435099X2.435099X2.558843X-2.558843X-2.435099X0*%
%ADD60RoundRect,0.087500X-2.664909X-2.788652X2.788652X2.664909X2.664909X2.788652X-2.788652X-2.664909X0*%
%ADD61RoundRect,0.087500X-2.894718X-3.018462X3.018462X2.894718X2.894718X3.018462X-3.018462X-2.894718X0*%
%ADD62RoundRect,0.087500X0.411006X-0.287262X-0.287262X0.411006X-0.411006X0.287262X0.287262X-0.411006X0*%
%ADD63RoundRect,0.087500X0.287262X-0.411006X0.411006X-0.287262X-0.287262X0.411006X-0.411006X0.287262X0*%
%ADD64RoundRect,0.242500X0.000000X-0.342947X0.342947X0.000000X0.000000X0.342947X-0.342947X0.000000X0*%
%ADD65RoundRect,0.250000X0.000000X-0.413257X0.413257X0.000000X0.000000X0.413257X-0.413257X0.000000X0*%
%ADD66RoundRect,0.050000X-0.238649X-0.309359X0.309359X0.238649X0.238649X0.309359X-0.309359X-0.238649X0*%
%ADD67RoundRect,0.050000X-0.309359X-0.380070X0.380070X0.309359X0.309359X0.380070X-0.380070X-0.309359X0*%
%ADD68RoundRect,0.050000X-0.450781X-0.521491X0.521491X0.450781X0.450781X0.521491X-0.521491X-0.450781X0*%
%ADD69RoundRect,0.050000X0.238649X-0.309359X0.309359X-0.238649X-0.238649X0.309359X-0.309359X0.238649X0*%
%ADD70RoundRect,0.050000X0.309359X-0.380070X0.380070X-0.309359X-0.309359X0.380070X-0.380070X0.309359X0*%
%ADD71RoundRect,0.050000X0.450781X-0.521491X0.521491X-0.450781X-0.450781X0.521491X-0.521491X0.450781X0*%
%ADD72RoundRect,0.125000X0.125000X-2.510250X0.125000X2.510250X-0.125000X2.510250X-0.125000X-2.510250X0*%
%ADD73RoundRect,0.087500X0.087500X-2.547750X0.087500X2.547750X-0.087500X2.547750X-0.087500X-2.547750X0*%
%ADD74RoundRect,0.137500X-0.380070X-0.574524X0.574524X0.380070X0.380070X0.574524X-0.574524X-0.380070X0*%
%ADD75RoundRect,0.137500X3.482501X-3.676955X3.676955X-3.482501X-3.482501X3.676955X-3.676955X3.482501X0*%
%ADD76RoundRect,0.137500X3.199658X-3.394113X3.394113X-3.199658X-3.199658X3.394113X-3.394113X3.199658X0*%
%ADD77RoundRect,0.137500X2.916815X-3.111270X3.111270X-2.916815X-2.916815X3.111270X-3.111270X2.916815X0*%
%ADD78RoundRect,0.137500X2.633973X-2.828427X2.828427X-2.633973X-2.633973X2.828427X-2.828427X2.633973X0*%
%ADD79RoundRect,0.137500X2.351130X-2.545584X2.545584X-2.351130X-2.351130X2.545584X-2.545584X2.351130X0*%
%ADD80RoundRect,0.137500X2.068287X-2.262742X2.262742X-2.068287X-2.068287X2.262742X-2.262742X2.068287X0*%
%ADD81RoundRect,0.137500X1.785445X-1.979899X1.979899X-1.785445X-1.785445X1.979899X-1.979899X1.785445X0*%
%ADD82RoundRect,0.137500X1.502602X-1.697056X1.697056X-1.502602X-1.502602X1.697056X-1.697056X1.502602X0*%
%ADD83RoundRect,0.137500X1.219759X-1.414214X1.414214X-1.219759X-1.219759X1.414214X-1.414214X1.219759X0*%
%ADD84RoundRect,0.137500X0.936916X-1.131371X1.131371X-0.936916X-0.936916X1.131371X-1.131371X0.936916X0*%
%ADD85RoundRect,0.137500X0.654074X-0.848528X0.848528X-0.654074X-0.654074X0.848528X-0.848528X0.654074X0*%
%ADD86RoundRect,0.137500X0.371231X-0.565685X0.565685X-0.371231X-0.371231X0.565685X-0.565685X0.371231X0*%
%ADD87RoundRect,0.137500X-0.371231X-0.565685X0.565685X0.371231X0.371231X0.565685X-0.565685X-0.371231X0*%
%ADD88RoundRect,0.137500X-0.654074X-0.848528X0.848528X0.654074X0.654074X0.848528X-0.848528X-0.654074X0*%
%ADD89RoundRect,0.137500X-0.936916X-1.131371X1.131371X0.936916X0.936916X1.131371X-1.131371X-0.936916X0*%
%ADD90RoundRect,0.137500X-1.219759X-1.414214X1.414214X1.219759X1.219759X1.414214X-1.414214X-1.219759X0*%
%ADD91RoundRect,0.137500X-1.502602X-1.697056X1.697056X1.502602X1.502602X1.697056X-1.697056X-1.502602X0*%
%ADD92RoundRect,0.137500X-1.785445X-1.979899X1.979899X1.785445X1.785445X1.979899X-1.979899X-1.785445X0*%
%ADD93RoundRect,0.137500X-2.068287X-2.262742X2.262742X2.068287X2.068287X2.262742X-2.262742X-2.068287X0*%
%ADD94RoundRect,0.137500X-2.351130X-2.545584X2.545584X2.351130X2.351130X2.545584X-2.545584X-2.351130X0*%
%ADD95RoundRect,0.137500X-2.633973X-2.828427X2.828427X2.633973X2.633973X2.828427X-2.828427X-2.633973X0*%
%ADD96RoundRect,0.137500X-2.916815X-3.111270X3.111270X2.916815X2.916815X3.111270X-3.111270X-2.916815X0*%
%ADD97RoundRect,0.137500X-3.199658X-3.394113X3.394113X3.199658X3.199658X3.394113X-3.394113X-3.199658X0*%
%ADD98RoundRect,0.137500X-3.482501X-3.676955X3.676955X3.482501X3.482501X3.676955X-3.676955X-3.482501X0*%
%ADD99RoundRect,0.137500X0.380070X-0.574524X0.574524X-0.380070X-0.380070X0.574524X-0.574524X0.380070X0*%
G04 APERTURE END LIST*
D10*
%TO.C,D45*%
X101643000Y-169825600D03*
X102743000Y-169825600D03*
X102743000Y-167995600D03*
X101643000Y-167995600D03*
%TD*%
%TO.C,D71*%
X134900000Y-184700000D03*
X134900000Y-183600000D03*
X133070000Y-183600000D03*
X133070000Y-184700000D03*
%TD*%
%TO.C,D89*%
X134900000Y-136440000D03*
X134900000Y-135340000D03*
X133070000Y-135340000D03*
X133070000Y-136440000D03*
%TD*%
%TO.C,D32*%
X68606400Y-169823800D03*
X69706400Y-169823800D03*
X69706400Y-167993800D03*
X68606400Y-167993800D03*
%TD*%
%TO.C,D77*%
X89180000Y-182160000D03*
X89180000Y-181060000D03*
X87350000Y-181060000D03*
X87350000Y-182160000D03*
%TD*%
%TO.C,D40*%
X88926400Y-169823800D03*
X90026400Y-169823800D03*
X90026400Y-167993800D03*
X88926400Y-167993800D03*
%TD*%
%TO.C,D83*%
X89180000Y-138980000D03*
X89180000Y-137880000D03*
X87350000Y-137880000D03*
X87350000Y-138980000D03*
%TD*%
%TO.C,D44*%
X99103000Y-169825600D03*
X100203000Y-169825600D03*
X100203000Y-167995600D03*
X99103000Y-167995600D03*
%TD*%
%TO.C,D84*%
X89180000Y-136440000D03*
X89180000Y-135340000D03*
X87350000Y-135340000D03*
X87350000Y-136440000D03*
%TD*%
%TO.C,D56*%
X129607400Y-169824400D03*
X130707400Y-169824400D03*
X130707400Y-167994400D03*
X129607400Y-167994400D03*
%TD*%
%TO.C,D13*%
X96612800Y-152045600D03*
X97712800Y-152045600D03*
X97712800Y-150215600D03*
X96612800Y-150215600D03*
%TD*%
%TO.C,D27*%
X132180600Y-152044400D03*
X133280600Y-152044400D03*
X133280600Y-150214400D03*
X132180600Y-150214400D03*
%TD*%
%TO.C,D4*%
X73736200Y-152045000D03*
X74836200Y-152045000D03*
X74836200Y-150215000D03*
X73736200Y-150215000D03*
%TD*%
%TO.C,D2*%
X68656200Y-152045000D03*
X69756200Y-152045000D03*
X69756200Y-150215000D03*
X68656200Y-150215000D03*
%TD*%
%TO.C,D16*%
X104232800Y-152045600D03*
X105332800Y-152045600D03*
X105332800Y-150215600D03*
X104232800Y-150215600D03*
%TD*%
%TO.C,D55*%
X127067400Y-169824400D03*
X128167400Y-169824400D03*
X128167400Y-167994400D03*
X127067400Y-167994400D03*
%TD*%
D11*
%TO.C,J12*%
X78446730Y-89058449D03*
X78800283Y-89412002D03*
X79153837Y-89765556D03*
X79507390Y-90119109D03*
X79860944Y-90472662D03*
X80214497Y-90826216D03*
X80568050Y-91179769D03*
X80921604Y-91533323D03*
X81275157Y-91886876D03*
X81628711Y-92240429D03*
X81982264Y-92593983D03*
X82335817Y-92947536D03*
X82689371Y-93301090D03*
X83042924Y-93654643D03*
D12*
X82070652Y-91710099D03*
X82424206Y-91356546D03*
X82777759Y-91002993D03*
D13*
X83308089Y-90826216D03*
D14*
X83838419Y-90649439D03*
D15*
X84368749Y-90472662D03*
D16*
X84899079Y-90295886D03*
D17*
X85429409Y-90119109D03*
D18*
X85959740Y-89942332D03*
D19*
X86490070Y-89765556D03*
D20*
X87020400Y-89588779D03*
D21*
X87550730Y-89412002D03*
D22*
X88081060Y-89235226D03*
D23*
X88611390Y-89058449D03*
D11*
X88611390Y-88086177D03*
D24*
X88081060Y-87909400D03*
D25*
X87550730Y-87732624D03*
D26*
X87020400Y-87555847D03*
D27*
X86490070Y-87379070D03*
D28*
X85959740Y-87202294D03*
D29*
X85429409Y-87025517D03*
D30*
X84899079Y-86848740D03*
D31*
X84368749Y-86671964D03*
D32*
X83838419Y-86495187D03*
D33*
X83308089Y-86318410D03*
D34*
X82777759Y-86141633D03*
X82424206Y-85788080D03*
X82070652Y-85434527D03*
D23*
X83042924Y-83489983D03*
X82689371Y-83843536D03*
X82335817Y-84197090D03*
X81982264Y-84550643D03*
X81628711Y-84904197D03*
X81275157Y-85257750D03*
X80921604Y-85611303D03*
X80568050Y-85964857D03*
X80214497Y-86318410D03*
X79860944Y-86671964D03*
X79507390Y-87025517D03*
X79153837Y-87379070D03*
X78800283Y-87732624D03*
X78446730Y-88086177D03*
%TD*%
D10*
%TO.C,D82*%
X73940000Y-138980000D03*
X73940000Y-137880000D03*
X72110000Y-137880000D03*
X72110000Y-138980000D03*
%TD*%
%TO.C,D78*%
X89180000Y-184700000D03*
X89180000Y-183600000D03*
X87350000Y-183600000D03*
X87350000Y-184700000D03*
%TD*%
%TO.C,D86*%
X104420000Y-138980000D03*
X104420000Y-137880000D03*
X102590000Y-137880000D03*
X102590000Y-138980000D03*
%TD*%
%TO.C,D76*%
X104420000Y-182160000D03*
X104420000Y-181060000D03*
X102590000Y-181060000D03*
X102590000Y-182160000D03*
%TD*%
%TO.C,D54*%
X124527400Y-169824400D03*
X125627400Y-169824400D03*
X125627400Y-167994400D03*
X124527400Y-167994400D03*
%TD*%
%TO.C,D31*%
X66058600Y-169823800D03*
X67158600Y-169823800D03*
X67158600Y-167993800D03*
X66058600Y-167993800D03*
%TD*%
%TO.C,D23*%
X122020600Y-152044400D03*
X123120600Y-152044400D03*
X123120600Y-150214400D03*
X122020600Y-150214400D03*
%TD*%
%TO.C,D38*%
X83846400Y-169823800D03*
X84946400Y-169823800D03*
X84946400Y-167993800D03*
X83846400Y-167993800D03*
%TD*%
%TO.C,D43*%
X96563000Y-169825600D03*
X97663000Y-169825600D03*
X97663000Y-167995600D03*
X96563000Y-167995600D03*
%TD*%
%TO.C,D90*%
X134900000Y-138980000D03*
X134900000Y-137880000D03*
X133070000Y-137880000D03*
X133070000Y-138980000D03*
%TD*%
%TO.C,D29*%
X137260600Y-152044400D03*
X138360600Y-152044400D03*
X138360600Y-150214400D03*
X137260600Y-150214400D03*
%TD*%
%TO.C,D80*%
X73939400Y-182160000D03*
X73939400Y-181060000D03*
X72109400Y-181060000D03*
X72109400Y-182160000D03*
%TD*%
%TO.C,D34*%
X73686400Y-169823800D03*
X74786400Y-169823800D03*
X74786400Y-167993800D03*
X73686400Y-167993800D03*
%TD*%
%TO.C,D37*%
X81306400Y-169823800D03*
X82406400Y-169823800D03*
X82406400Y-167993800D03*
X81306400Y-167993800D03*
%TD*%
D35*
%TO.C,J16*%
X89560400Y-89306400D03*
X90020019Y-89766019D03*
X90479639Y-90225639D03*
X90939258Y-90685258D03*
X91398878Y-91144877D03*
X91858497Y-91604497D03*
X92318116Y-92064116D03*
X92777736Y-92523736D03*
X93237355Y-92983355D03*
X93696975Y-93442974D03*
X94156594Y-93902594D03*
X94616213Y-94362213D03*
X95075833Y-94821833D03*
X95535452Y-95281452D03*
D36*
X94006334Y-92276248D03*
X94465953Y-91816629D03*
D37*
X95155382Y-91586819D03*
D38*
X95844812Y-91357009D03*
D39*
X96534241Y-91127200D03*
D40*
X97223670Y-90897390D03*
D41*
X97913099Y-90667580D03*
D42*
X98602528Y-90437771D03*
D43*
X99291957Y-90207961D03*
D44*
X99981386Y-89978151D03*
D45*
X100670815Y-89748341D03*
D46*
X101360244Y-89518532D03*
D47*
X102049674Y-89288722D03*
D48*
X102708167Y-89027976D03*
D49*
X102708167Y-88108738D03*
D50*
X102049674Y-87847992D03*
D51*
X101360244Y-87618182D03*
D52*
X100670815Y-87388373D03*
D53*
X99981386Y-87158563D03*
D54*
X99291957Y-86928753D03*
D55*
X98602528Y-86698943D03*
D56*
X97913099Y-86469134D03*
D57*
X97223670Y-86239324D03*
D58*
X96534241Y-86009514D03*
D59*
X95844812Y-85779705D03*
D60*
X95155382Y-85549895D03*
D61*
X94465953Y-85320085D03*
X94006334Y-84860466D03*
D62*
X95535452Y-81855262D03*
X95075833Y-82314881D03*
X94616213Y-82774501D03*
D63*
X94156594Y-83234120D03*
X93696975Y-83693740D03*
X93237355Y-84153359D03*
X92777736Y-84612978D03*
X92318116Y-85072598D03*
X91858497Y-85532217D03*
X91398878Y-85991837D03*
X90939258Y-86451456D03*
X90479639Y-86911075D03*
X90020019Y-87370695D03*
X89560400Y-87830314D03*
%TD*%
D10*
%TO.C,D87*%
X119660000Y-138980000D03*
X119660000Y-137880000D03*
X117830000Y-137880000D03*
X117830000Y-138980000D03*
%TD*%
%TO.C,D14*%
X99152800Y-152045600D03*
X100252800Y-152045600D03*
X100252800Y-150215600D03*
X99152800Y-150215600D03*
%TD*%
%TO.C,D85*%
X104420000Y-136440000D03*
X104420000Y-135340000D03*
X102590000Y-135340000D03*
X102590000Y-136440000D03*
%TD*%
%TO.C,D11*%
X91525000Y-152045600D03*
X92625000Y-152045600D03*
X92625000Y-150215600D03*
X91525000Y-150215600D03*
%TD*%
%TO.C,D20*%
X114392800Y-152045600D03*
X115492800Y-152045600D03*
X115492800Y-150215600D03*
X114392800Y-150215600D03*
%TD*%
%TO.C,D26*%
X129640600Y-152044400D03*
X130740600Y-152044400D03*
X130740600Y-150214400D03*
X129640600Y-150214400D03*
%TD*%
%TO.C,D15*%
X101692800Y-152045600D03*
X102792800Y-152045600D03*
X102792800Y-150215600D03*
X101692800Y-150215600D03*
%TD*%
%TO.C,D88*%
X119660000Y-136440000D03*
X119660000Y-135340000D03*
X117830000Y-135340000D03*
X117830000Y-136440000D03*
%TD*%
%TO.C,D60*%
X139767400Y-169824400D03*
X140867400Y-169824400D03*
X140867400Y-167994400D03*
X139767400Y-167994400D03*
%TD*%
%TO.C,D17*%
X106772800Y-152045600D03*
X107872800Y-152045600D03*
X107872800Y-150215600D03*
X106772800Y-150215600D03*
%TD*%
%TO.C,D48*%
X109263000Y-169825600D03*
X110363000Y-169825600D03*
X110363000Y-167995600D03*
X109263000Y-167995600D03*
%TD*%
%TO.C,D19*%
X111852800Y-152045600D03*
X112952800Y-152045600D03*
X112952800Y-150215600D03*
X111852800Y-150215600D03*
%TD*%
%TO.C,D79*%
X73940000Y-184700000D03*
X73940000Y-183600000D03*
X72110000Y-183600000D03*
X72110000Y-184700000D03*
%TD*%
%TO.C,D39*%
X86386400Y-169823800D03*
X87486400Y-169823800D03*
X87486400Y-167993800D03*
X86386400Y-167993800D03*
%TD*%
%TO.C,D53*%
X121987400Y-169824400D03*
X123087400Y-169824400D03*
X123087400Y-167994400D03*
X121987400Y-167994400D03*
%TD*%
%TO.C,D46*%
X104183000Y-169825600D03*
X105283000Y-169825600D03*
X105283000Y-167995600D03*
X104183000Y-167995600D03*
%TD*%
%TO.C,D36*%
X78766400Y-169823800D03*
X79866400Y-169823800D03*
X79866400Y-167993800D03*
X78766400Y-167993800D03*
%TD*%
%TO.C,D28*%
X134720600Y-152044400D03*
X135820600Y-152044400D03*
X135820600Y-150214400D03*
X134720600Y-150214400D03*
%TD*%
D64*
%TO.C,J14*%
X71291004Y-88587198D03*
X72139532Y-89435726D03*
X72988060Y-90284254D03*
D65*
X72086499Y-88587198D03*
X72988060Y-89488759D03*
D64*
X72139532Y-87738670D03*
X72988060Y-88587198D03*
X73836588Y-89435726D03*
D65*
X72988060Y-87685637D03*
X73889621Y-88587198D03*
D64*
X72988060Y-86890142D03*
X73836588Y-87738670D03*
X74685116Y-88587198D03*
D66*
X68718903Y-89179400D03*
D67*
X69072456Y-89391532D03*
D68*
X69496720Y-89532953D03*
X69779563Y-89815796D03*
X70062406Y-90098639D03*
X70345248Y-90381481D03*
X70628091Y-90664324D03*
X70910934Y-90947167D03*
X71193777Y-91230010D03*
X71476619Y-91512852D03*
X71759462Y-91795695D03*
X72042305Y-92078538D03*
D67*
X72183726Y-92502802D03*
D66*
X72395858Y-92856355D03*
D69*
X73580262Y-92856355D03*
D70*
X73792394Y-92502802D03*
D71*
X73933815Y-92078538D03*
X74216658Y-91795695D03*
X74499501Y-91512852D03*
X74782343Y-91230010D03*
X75065186Y-90947167D03*
X75348029Y-90664324D03*
X75630872Y-90381481D03*
X75913714Y-90098639D03*
X76196557Y-89815796D03*
X76479400Y-89532953D03*
D70*
X76903664Y-89391532D03*
D69*
X77257217Y-89179400D03*
D66*
X77257217Y-87994996D03*
D67*
X76903664Y-87782864D03*
D68*
X76479400Y-87641443D03*
X76196557Y-87358600D03*
X75913714Y-87075757D03*
X75630872Y-86792915D03*
X75348029Y-86510072D03*
X75065186Y-86227229D03*
X74782343Y-85944386D03*
X74499501Y-85661544D03*
X74216658Y-85378701D03*
X73933815Y-85095858D03*
D67*
X73792394Y-84671594D03*
D66*
X73580262Y-84318041D03*
D69*
X72395858Y-84318041D03*
D70*
X72183726Y-84671594D03*
D71*
X72042305Y-85095858D03*
X71759462Y-85378701D03*
X71476619Y-85661544D03*
X71193777Y-85944386D03*
X70910934Y-86227229D03*
X70628091Y-86510072D03*
X70345248Y-86792915D03*
X70062406Y-87075757D03*
X69779563Y-87358600D03*
X69496720Y-87641443D03*
D70*
X69072456Y-87782864D03*
D69*
X68718903Y-87994996D03*
%TD*%
D10*
%TO.C,D33*%
X71146400Y-169823800D03*
X72246400Y-169823800D03*
X72246400Y-167993800D03*
X71146400Y-167993800D03*
%TD*%
%TO.C,D50*%
X114350800Y-169825600D03*
X115450800Y-169825600D03*
X115450800Y-167995600D03*
X114350800Y-167995600D03*
%TD*%
%TO.C,D25*%
X127100600Y-152044400D03*
X128200600Y-152044400D03*
X128200600Y-150214400D03*
X127100600Y-150214400D03*
%TD*%
%TO.C,D52*%
X119447400Y-169824400D03*
X120547400Y-169824400D03*
X120547400Y-167994400D03*
X119447400Y-167994400D03*
%TD*%
%TO.C,D7*%
X81356200Y-152045000D03*
X82456200Y-152045000D03*
X82456200Y-150215000D03*
X81356200Y-150215000D03*
%TD*%
%TO.C,D58*%
X134687400Y-169824400D03*
X135787400Y-169824400D03*
X135787400Y-167994400D03*
X134687400Y-167994400D03*
%TD*%
%TO.C,D18*%
X109312800Y-152045600D03*
X110412800Y-152045600D03*
X110412800Y-150215600D03*
X109312800Y-150215600D03*
%TD*%
%TO.C,D73*%
X119660000Y-182160000D03*
X119660000Y-181060000D03*
X117830000Y-181060000D03*
X117830000Y-182160000D03*
%TD*%
%TO.C,D30*%
X139800600Y-152044400D03*
X140900600Y-152044400D03*
X140900600Y-150214400D03*
X139800600Y-150214400D03*
%TD*%
%TO.C,D3*%
X71196200Y-152045000D03*
X72296200Y-152045000D03*
X72296200Y-150215000D03*
X71196200Y-150215000D03*
%TD*%
%TO.C,D9*%
X86436200Y-152045000D03*
X87536200Y-152045000D03*
X87536200Y-150215000D03*
X86436200Y-150215000D03*
%TD*%
%TO.C,D12*%
X94072800Y-152045600D03*
X95172800Y-152045600D03*
X95172800Y-150215600D03*
X94072800Y-150215600D03*
%TD*%
%TO.C,D81*%
X73940000Y-136440000D03*
X73940000Y-135340000D03*
X72110000Y-135340000D03*
X72110000Y-136440000D03*
%TD*%
%TO.C,D21*%
X116932800Y-152044400D03*
X118032800Y-152044400D03*
X118032800Y-150214400D03*
X116932800Y-150214400D03*
%TD*%
%TO.C,D51*%
X116899600Y-169824400D03*
X117999600Y-169824400D03*
X117999600Y-167994400D03*
X116899600Y-167994400D03*
%TD*%
%TO.C,D1*%
X66116200Y-152045000D03*
X67216200Y-152045000D03*
X67216200Y-150215000D03*
X66116200Y-150215000D03*
%TD*%
%TO.C,D59*%
X137227400Y-169824400D03*
X138327400Y-169824400D03*
X138327400Y-167994400D03*
X137227400Y-167994400D03*
%TD*%
%TO.C,D8*%
X83896200Y-152045000D03*
X84996200Y-152045000D03*
X84996200Y-150215000D03*
X83896200Y-150215000D03*
%TD*%
D72*
%TO.C,J15*%
X121513600Y-85140800D03*
D73*
X122148600Y-85140800D03*
D72*
X122783600Y-85140800D03*
D73*
X123418600Y-85140800D03*
D72*
X124053600Y-85140800D03*
D73*
X124688600Y-85140800D03*
D72*
X125323600Y-85140800D03*
D73*
X125958600Y-85140800D03*
D72*
X126593600Y-85140800D03*
D73*
X127228600Y-85140800D03*
D72*
X127863600Y-85140800D03*
D73*
X128498600Y-85140800D03*
D72*
X129133600Y-85140800D03*
D73*
X129768600Y-85140800D03*
D72*
X130403600Y-85140800D03*
D73*
X131038600Y-85140800D03*
D72*
X131673600Y-85140800D03*
D73*
X132308600Y-85140800D03*
D72*
X132943600Y-85140800D03*
D73*
X133578600Y-85140800D03*
D72*
X134213600Y-85140800D03*
D73*
X134848600Y-85140800D03*
D72*
X135483600Y-85140800D03*
D73*
X136118600Y-85140800D03*
D72*
X136753600Y-85140800D03*
D73*
X137388600Y-85140800D03*
D72*
X138023600Y-85140800D03*
D73*
X138658600Y-85140800D03*
D72*
X139293600Y-85140800D03*
D73*
X139928600Y-85140800D03*
X139932600Y-91998800D03*
D72*
X139293600Y-91998800D03*
D73*
X138658600Y-91998800D03*
D72*
X138023600Y-91998800D03*
D73*
X137388600Y-91998800D03*
D72*
X136753600Y-91998800D03*
D73*
X136118600Y-91998800D03*
D72*
X135483600Y-91998800D03*
D73*
X134848600Y-91998800D03*
D72*
X134213600Y-91998800D03*
D73*
X133578600Y-91998800D03*
D72*
X132943600Y-91998800D03*
D73*
X132308600Y-91998800D03*
D72*
X131673600Y-91998800D03*
D73*
X131038600Y-91998800D03*
D72*
X130403600Y-91998800D03*
D73*
X129768600Y-91998800D03*
D72*
X129133600Y-91998800D03*
D73*
X128498600Y-91998800D03*
D72*
X127863600Y-91998800D03*
D73*
X127228600Y-91998800D03*
D72*
X126593600Y-91998800D03*
D73*
X125958600Y-91998800D03*
D72*
X125323600Y-91998800D03*
D73*
X124688600Y-91998800D03*
D72*
X124053600Y-91998800D03*
D73*
X123418600Y-91998800D03*
D72*
X122783600Y-91998800D03*
D73*
X122148600Y-91998800D03*
D72*
X121513600Y-91998800D03*
%TD*%
D74*
%TO.C,J13*%
X103682800Y-89712800D03*
X104257325Y-90269646D03*
X104823010Y-90835332D03*
X105388695Y-91401017D03*
X105954381Y-91966703D03*
X106520066Y-92532388D03*
X107085752Y-93098073D03*
X107651437Y-93663759D03*
X108217123Y-94229444D03*
X108782808Y-94795130D03*
X109348493Y-95360815D03*
X109914179Y-95926501D03*
X110479864Y-96492186D03*
X111045550Y-97057871D03*
D75*
X109914179Y-93663759D03*
X110479864Y-93098073D03*
X111045550Y-92532388D03*
D76*
X111894078Y-92249545D03*
D77*
X112742606Y-91966703D03*
D78*
X113591134Y-91683860D03*
D79*
X114439662Y-91401017D03*
D80*
X115288190Y-91118174D03*
D81*
X116136719Y-90835332D03*
D82*
X116985247Y-90552489D03*
D83*
X117833775Y-90269646D03*
D84*
X118682303Y-89986804D03*
D85*
X119530831Y-89703961D03*
D86*
X120379359Y-89421118D03*
D87*
X120379359Y-87724062D03*
D88*
X119530831Y-87441219D03*
D89*
X118682303Y-87158376D03*
D90*
X117833775Y-86875534D03*
D91*
X116985247Y-86592691D03*
D92*
X116136719Y-86309848D03*
D93*
X115288190Y-86027006D03*
D94*
X114439662Y-85744163D03*
D95*
X113591134Y-85461320D03*
D96*
X112742606Y-85178477D03*
D97*
X111894078Y-84895635D03*
D98*
X111045550Y-84612792D03*
X110479864Y-84047107D03*
X109914179Y-83481421D03*
D99*
X111045550Y-80087309D03*
X110479864Y-80652994D03*
X109914179Y-81218679D03*
X109348493Y-81784365D03*
X108782808Y-82350050D03*
X108217123Y-82915736D03*
X107651437Y-83481421D03*
X107085752Y-84047107D03*
X106520066Y-84612792D03*
X105954381Y-85178477D03*
X105388695Y-85744163D03*
X104823010Y-86309848D03*
X104257325Y-86875534D03*
X103682800Y-87432380D03*
%TD*%
D10*
%TO.C,D35*%
X76226400Y-169823800D03*
X77326400Y-169823800D03*
X77326400Y-167993800D03*
X76226400Y-167993800D03*
%TD*%
%TO.C,D10*%
X88976200Y-152045000D03*
X90076200Y-152045000D03*
X90076200Y-150215000D03*
X88976200Y-150215000D03*
%TD*%
%TO.C,D47*%
X106723000Y-169825600D03*
X107823000Y-169825600D03*
X107823000Y-167995600D03*
X106723000Y-167995600D03*
%TD*%
%TO.C,D72*%
X134900000Y-182160000D03*
X134900000Y-181060000D03*
X133070000Y-181060000D03*
X133070000Y-182160000D03*
%TD*%
%TO.C,D24*%
X124560600Y-152044400D03*
X125660600Y-152044400D03*
X125660600Y-150214400D03*
X124560600Y-150214400D03*
%TD*%
%TO.C,D74*%
X119660000Y-184700000D03*
X119660000Y-183600000D03*
X117830000Y-183600000D03*
X117830000Y-184700000D03*
%TD*%
%TO.C,D57*%
X132147400Y-169824400D03*
X133247400Y-169824400D03*
X133247400Y-167994400D03*
X132147400Y-167994400D03*
%TD*%
%TO.C,D41*%
X91474200Y-169824400D03*
X92574200Y-169824400D03*
X92574200Y-167994400D03*
X91474200Y-167994400D03*
%TD*%
%TO.C,D22*%
X119480600Y-152044400D03*
X120580600Y-152044400D03*
X120580600Y-150214400D03*
X119480600Y-150214400D03*
%TD*%
%TO.C,D75*%
X104420000Y-184700000D03*
X104420000Y-183600000D03*
X102590000Y-183600000D03*
X102590000Y-184700000D03*
%TD*%
%TO.C,D6*%
X78816200Y-152045000D03*
X79916200Y-152045000D03*
X79916200Y-150215000D03*
X78816200Y-150215000D03*
%TD*%
%TO.C,D49*%
X111803000Y-169825600D03*
X112903000Y-169825600D03*
X112903000Y-167995600D03*
X111803000Y-167995600D03*
%TD*%
%TO.C,D42*%
X94023000Y-169825600D03*
X95123000Y-169825600D03*
X95123000Y-167995600D03*
X94023000Y-167995600D03*
%TD*%
%TO.C,D5*%
X76276200Y-152045000D03*
X77376200Y-152045000D03*
X77376200Y-150215000D03*
X76276200Y-150215000D03*
%TD*%
M02*
