%TF.GenerationSoftware,KiCad,Pcbnew,7.0.7*%
%TF.CreationDate,2023-10-12T12:03:03-07:00*%
%TF.ProjectId,JumperLUX,4a756d70-6572-44c5-9558-2e6b69636164,rev?*%
%TF.SameCoordinates,Original*%
%TF.FileFunction,Copper,L2,Inr*%
%TF.FilePolarity,Positive*%
%FSLAX46Y46*%
G04 Gerber Fmt 4.6, Leading zero omitted, Abs format (unit mm)*
G04 Created by KiCad (PCBNEW 7.0.7) date 2023-10-12 12:03:03*
%MOMM*%
%LPD*%
G01*
G04 APERTURE LIST*
G04 Aperture macros list*
%AMRoundRect*
0 Rectangle with rounded corners*
0 $1 Rounding radius*
0 $2 $3 $4 $5 $6 $7 $8 $9 X,Y pos of 4 corners*
0 Add a 4 corners polygon primitive as box body*
4,1,4,$2,$3,$4,$5,$6,$7,$8,$9,$2,$3,0*
0 Add four circle primitives for the rounded corners*
1,1,$1+$1,$2,$3*
1,1,$1+$1,$4,$5*
1,1,$1+$1,$6,$7*
1,1,$1+$1,$8,$9*
0 Add four rect primitives between the rounded corners*
20,1,$1+$1,$2,$3,$4,$5,0*
20,1,$1+$1,$4,$5,$6,$7,0*
20,1,$1+$1,$6,$7,$8,$9,0*
20,1,$1+$1,$8,$9,$2,$3,0*%
%AMFreePoly0*
4,1,39,0.250000,0.845344,0.338849,0.845344,0.512664,0.808398,0.675000,0.736122,0.818761,0.631673,0.937664,0.499617,1.026514,0.345726,1.081425,0.176725,1.100000,0.000000,1.081425,-0.176725,1.026514,-0.345726,0.937664,-0.499617,0.818761,-0.631673,0.675000,-0.736122,0.512664,-0.808398,0.338849,-0.845344,0.250000,-0.845344,0.250000,-0.850000,-0.250000,-0.850000,-0.250000,-0.845344,
-0.338849,-0.845344,-0.512664,-0.808398,-0.675000,-0.736122,-0.818761,-0.631673,-0.937664,-0.499617,-1.026514,-0.345726,-1.081425,-0.176725,-1.100000,0.000000,-1.081425,0.176725,-1.026514,0.345726,-0.937664,0.499617,-0.818761,0.631673,-0.675000,0.736122,-0.512664,0.808398,-0.338849,0.845344,-0.250000,0.845344,-0.250000,0.850000,0.250000,0.850000,0.250000,0.845344,0.250000,0.845344,
$1*%
%AMFreePoly1*
4,1,59,0.250000,0.845344,0.338849,0.845344,0.512664,0.808398,0.675000,0.736122,0.818761,0.631673,0.937664,0.499617,1.012030,0.370812,1.075002,0.307840,1.175960,0.250000,1.210000,0.250000,1.305671,0.230970,1.386777,0.176777,1.440970,0.095671,1.460000,0.000000,1.440970,-0.095671,1.386777,-0.176777,1.305671,-0.230970,1.210000,-0.250000,1.175960,-0.250000,1.075002,-0.307840,
1.012030,-0.370812,0.937664,-0.499617,0.818761,-0.631673,0.675000,-0.736122,0.512664,-0.808398,0.338849,-0.845344,0.250000,-0.845344,0.250000,-0.850000,-0.250000,-0.850000,-0.250000,-0.845344,-0.338849,-0.845344,-0.512664,-0.808398,-0.675000,-0.736122,-0.818761,-0.631673,-0.937664,-0.499617,-1.012030,-0.370812,-1.075001,-0.307840,-1.175960,-0.250000,-1.210000,-0.250000,-1.305671,-0.230970,
-1.386777,-0.176777,-1.440970,-0.095671,-1.460000,0.000000,-1.440970,0.095671,-1.386777,0.176777,-1.305671,0.230970,-1.210000,0.250000,-1.175960,0.250000,-1.075001,0.307840,-1.012030,0.370812,-0.937664,0.499617,-0.818761,0.631673,-0.675000,0.736122,-0.512664,0.808398,-0.338849,0.845344,-0.250000,0.845344,-0.250000,0.850000,0.250000,0.850000,0.250000,0.845344,0.250000,0.845344,
$1*%
%AMFreePoly2*
4,1,49,0.250000,0.845344,0.338849,0.845344,0.512664,0.808398,0.675000,0.736122,0.818761,0.631673,0.937664,0.499617,1.012030,0.370812,1.075002,0.307840,1.175960,0.250000,1.210000,0.250000,1.305671,0.230970,1.386777,0.176777,1.440970,0.095671,1.460000,0.000000,1.440970,-0.095671,1.386777,-0.176777,1.305671,-0.230970,1.210000,-0.250000,1.175960,-0.250000,1.075002,-0.307840,
1.012030,-0.370812,0.937664,-0.499617,0.818761,-0.631673,0.675000,-0.736122,0.512664,-0.808398,0.338849,-0.845344,0.250000,-0.845344,0.250000,-0.850000,-0.250000,-0.850000,-0.250000,-0.845344,-0.338849,-0.845344,-0.512664,-0.808398,-0.675000,-0.736122,-0.818761,-0.631673,-0.937664,-0.499617,-1.026514,-0.345726,-1.081425,-0.176725,-1.100000,0.000000,-1.081425,0.176725,-1.026514,0.345726,
-0.937664,0.499617,-0.818761,0.631673,-0.675000,0.736122,-0.512664,0.808398,-0.338849,0.845344,-0.250000,0.845344,-0.250000,0.850000,0.250000,0.850000,0.250000,0.845344,0.250000,0.845344,$1*%
%AMFreePoly3*
4,1,49,0.250000,0.845344,0.338849,0.845344,0.512664,0.808398,0.675000,0.736122,0.818761,0.631673,0.937664,0.499617,1.026514,0.345726,1.081425,0.176725,1.100000,0.000000,1.081425,-0.176725,1.026514,-0.345726,0.937664,-0.499617,0.818761,-0.631673,0.675000,-0.736122,0.512664,-0.808398,0.338849,-0.845344,0.250000,-0.845344,0.250000,-0.850000,-0.250000,-0.850000,-0.250000,-0.845344,
-0.338849,-0.845344,-0.512664,-0.808398,-0.675000,-0.736122,-0.818761,-0.631673,-0.937664,-0.499617,-1.012030,-0.370812,-1.075001,-0.307840,-1.175960,-0.250000,-1.210000,-0.250000,-1.305671,-0.230970,-1.386777,-0.176777,-1.440970,-0.095671,-1.460000,0.000000,-1.440970,0.095671,-1.386777,0.176777,-1.305671,0.230970,-1.210000,0.250000,-1.175960,0.250000,-1.075001,0.307840,-1.012030,0.370812,
-0.937664,0.499617,-0.818761,0.631673,-0.675000,0.736122,-0.512664,0.808398,-0.338849,0.845344,-0.250000,0.845344,-0.250000,0.850000,0.250000,0.850000,0.250000,0.845344,0.250000,0.845344,$1*%
G04 Aperture macros list end*
%TA.AperFunction,ComponentPad*%
%ADD10FreePoly0,270.000000*%
%TD*%
%TA.AperFunction,ComponentPad*%
%ADD11RoundRect,0.595000X-0.255000X-0.255000X0.255000X-0.255000X0.255000X0.255000X-0.255000X0.255000X0*%
%TD*%
%TA.AperFunction,ComponentPad*%
%ADD12FreePoly1,90.000000*%
%TD*%
%TA.AperFunction,ComponentPad*%
%ADD13FreePoly2,270.000000*%
%TD*%
%TA.AperFunction,ComponentPad*%
%ADD14FreePoly3,90.000000*%
%TD*%
%TA.AperFunction,ComponentPad*%
%ADD15C,0.600000*%
%TD*%
%TA.AperFunction,ComponentPad*%
%ADD16FreePoly1,270.000000*%
%TD*%
%TA.AperFunction,ComponentPad*%
%ADD17FreePoly2,90.000000*%
%TD*%
%TA.AperFunction,ComponentPad*%
%ADD18O,1.300000X2.000000*%
%TD*%
%TA.AperFunction,ComponentPad*%
%ADD19O,1.700000X1.000000*%
%TD*%
%TA.AperFunction,ComponentPad*%
%ADD20FreePoly3,270.000000*%
%TD*%
%TA.AperFunction,ComponentPad*%
%ADD21FreePoly0,90.000000*%
%TD*%
%TA.AperFunction,ViaPad*%
%ADD22C,0.300000*%
%TD*%
%TA.AperFunction,Conductor*%
%ADD23C,0.200000*%
%TD*%
%TA.AperFunction,Conductor*%
%ADD24C,0.250000*%
%TD*%
G04 APERTURE END LIST*
D10*
%TO.N,Net-(J10-Pin_1)*%
%TO.C,J17*%
X140360400Y-76200000D03*
%TO.N,Net-(J10-Pin_2)*%
X137820400Y-76200000D03*
%TO.N,Net-(J10-Pin_3)*%
X135280400Y-76200000D03*
%TO.N,Net-(J10-Pin_4)*%
X132740400Y-76200000D03*
%TO.N,Net-(J10-Pin_5)*%
X130200400Y-76200000D03*
%TO.N,Net-(J10-Pin_6)*%
X127660400Y-76200000D03*
%TO.N,Net-(J10-Pin_7)*%
X125120400Y-76200000D03*
%TO.N,Net-(J10-Pin_8)*%
X122580400Y-76200000D03*
%TO.N,Net-(J10-Pin_9)*%
X120040400Y-76200000D03*
%TO.N,Net-(J10-Pin_10)*%
X117500400Y-76200000D03*
%TO.N,Net-(J10-Pin_11)*%
X114960400Y-76200000D03*
%TO.N,Net-(J10-Pin_12)*%
X112420400Y-76200000D03*
%TO.N,Net-(J10-Pin_13)*%
X109880400Y-76200000D03*
%TO.N,Net-(J10-Pin_14)*%
X107340400Y-76200000D03*
%TO.N,Net-(J10-Pin_15)*%
X104800400Y-76200000D03*
%TO.N,Net-(J10-Pin_16)*%
X102260400Y-76200000D03*
%TO.N,Net-(J10-Pin_17)*%
X99720400Y-76200000D03*
%TO.N,Net-(J10-Pin_18)*%
X97180400Y-76200000D03*
%TO.N,Net-(J10-Pin_19)*%
X94640400Y-76200000D03*
%TO.N,Net-(J10-Pin_20)*%
X92100400Y-76200000D03*
%TO.N,Net-(J10-Pin_21)*%
X89560400Y-76200000D03*
%TO.N,Net-(J10-Pin_22)*%
X87020400Y-76200000D03*
%TO.N,Net-(J10-Pin_23)*%
X84480400Y-76200000D03*
%TO.N,Net-(J10-Pin_24)*%
X81940400Y-76200000D03*
%TO.N,Net-(J10-Pin_25)*%
X79400400Y-76200000D03*
%TO.N,Net-(J10-Pin_26)*%
X76860400Y-76200000D03*
%TO.N,Net-(J10-Pin_27)*%
X74320400Y-76200000D03*
%TO.N,Net-(J10-Pin_28)*%
X71780400Y-76200000D03*
%TO.N,Net-(J10-Pin_29)*%
X69240400Y-76200000D03*
%TO.N,Net-(J10-Pin_30)*%
X66700400Y-76200000D03*
%TD*%
D11*
%TO.N,Net-(JP1-B)*%
%TO.C,TP25*%
X63500000Y-106680000D03*
%TD*%
D12*
%TO.N,Net-(J1-Pin_1)*%
%TO.C,J2*%
X66675000Y-107950001D03*
%TO.N,Net-(J1-Pin_2)*%
X69215000Y-107950001D03*
%TO.N,Net-(J1-Pin_3)*%
X71755000Y-107950001D03*
%TO.N,Net-(J1-Pin_4)*%
X74295000Y-107950001D03*
%TO.N,Net-(J1-Pin_5)*%
X76835000Y-107950001D03*
%TO.N,Net-(J1-Pin_6)*%
X79375000Y-107950001D03*
%TO.N,Net-(J1-Pin_7)*%
X81915000Y-107950001D03*
%TO.N,Net-(J1-Pin_8)*%
X84455000Y-107950001D03*
%TO.N,Net-(J1-Pin_9)*%
X86995000Y-107950001D03*
%TO.N,Net-(J1-Pin_10)*%
X89535000Y-107950001D03*
%TO.N,Net-(J1-Pin_11)*%
X92075000Y-107950001D03*
%TO.N,Net-(J1-Pin_12)*%
X94615000Y-107950001D03*
%TO.N,Net-(J1-Pin_13)*%
X97155000Y-107950001D03*
%TO.N,Net-(J1-Pin_14)*%
X99695000Y-107950001D03*
%TO.N,Net-(J1-Pin_15)*%
X102235000Y-107950001D03*
%TO.N,Net-(J1-Pin_16)*%
X104775000Y-107950001D03*
%TO.N,Net-(J1-Pin_17)*%
X107315000Y-107950001D03*
%TO.N,Net-(J1-Pin_18)*%
X109855000Y-107950001D03*
%TO.N,Net-(J1-Pin_19)*%
X112395000Y-107950001D03*
%TO.N,Net-(J1-Pin_20)*%
X114935000Y-107950001D03*
%TO.N,Net-(J1-Pin_21)*%
X117475000Y-107950001D03*
%TO.N,Net-(J1-Pin_22)*%
X120015000Y-107950001D03*
%TO.N,Net-(J1-Pin_23)*%
X122555000Y-107950001D03*
%TO.N,Net-(J1-Pin_24)*%
X125095000Y-107950001D03*
%TO.N,Net-(J1-Pin_25)*%
X127635000Y-107950001D03*
%TO.N,Net-(J1-Pin_26)*%
X130175000Y-107950001D03*
%TO.N,Net-(J1-Pin_27)*%
X132715000Y-107950001D03*
%TO.N,Net-(J1-Pin_28)*%
X135255000Y-107950001D03*
%TO.N,Net-(J1-Pin_29)*%
X137795000Y-107950001D03*
%TO.N,Net-(J1-Pin_30)*%
X140335000Y-107950001D03*
%TD*%
D11*
%TO.N,Net-(JP1-B)*%
%TO.C,TP24*%
X143510000Y-106680000D03*
%TD*%
D13*
%TO.N,Net-(J10-Pin_1)*%
%TO.C,J6*%
X140335000Y-120650000D03*
%TO.N,Net-(J10-Pin_2)*%
X137795000Y-120650000D03*
%TO.N,Net-(J10-Pin_3)*%
X135255000Y-120650000D03*
%TO.N,Net-(J10-Pin_4)*%
X132715000Y-120650000D03*
%TO.N,Net-(J10-Pin_5)*%
X130175000Y-120650000D03*
%TO.N,Net-(J10-Pin_6)*%
X127635000Y-120650000D03*
%TO.N,Net-(J10-Pin_7)*%
X125095000Y-120650000D03*
%TO.N,Net-(J10-Pin_8)*%
X122555000Y-120650000D03*
%TO.N,Net-(J10-Pin_9)*%
X120015000Y-120650000D03*
%TO.N,Net-(J10-Pin_10)*%
X117475000Y-120650000D03*
%TO.N,Net-(J10-Pin_11)*%
X114935000Y-120650000D03*
%TO.N,Net-(J10-Pin_12)*%
X112395000Y-120650000D03*
%TO.N,Net-(J10-Pin_13)*%
X109855000Y-120650000D03*
%TO.N,Net-(J10-Pin_14)*%
X107315000Y-120650000D03*
%TO.N,Net-(J10-Pin_15)*%
X104775000Y-120650000D03*
%TO.N,Net-(J10-Pin_16)*%
X102235000Y-120650000D03*
%TO.N,Net-(J10-Pin_17)*%
X99695000Y-120650000D03*
%TO.N,Net-(J10-Pin_18)*%
X97155000Y-120650000D03*
%TO.N,Net-(J10-Pin_19)*%
X94615000Y-120650000D03*
%TO.N,Net-(J10-Pin_20)*%
X92075000Y-120650000D03*
%TO.N,Net-(J10-Pin_21)*%
X89535000Y-120650000D03*
%TO.N,Net-(J10-Pin_22)*%
X86995000Y-120650000D03*
%TO.N,Net-(J10-Pin_23)*%
X84455000Y-120650000D03*
%TO.N,Net-(J10-Pin_24)*%
X81915000Y-120650000D03*
%TO.N,Net-(J10-Pin_25)*%
X79375000Y-120650000D03*
%TO.N,Net-(J10-Pin_26)*%
X76835000Y-120650000D03*
%TO.N,Net-(J10-Pin_27)*%
X74295000Y-120650000D03*
%TO.N,Net-(J10-Pin_28)*%
X71755000Y-120650000D03*
%TO.N,Net-(J10-Pin_29)*%
X69215000Y-120650000D03*
%TO.N,Net-(J10-Pin_30)*%
X66675000Y-120650000D03*
%TD*%
D14*
%TO.N,Net-(J1-Pin_1)*%
%TO.C,J1*%
X66675000Y-105410000D03*
%TO.N,Net-(J1-Pin_2)*%
X69215000Y-105410000D03*
%TO.N,Net-(J1-Pin_3)*%
X71755000Y-105410000D03*
%TO.N,Net-(J1-Pin_4)*%
X74295000Y-105410000D03*
%TO.N,Net-(J1-Pin_5)*%
X76835000Y-105410000D03*
%TO.N,Net-(J1-Pin_6)*%
X79375000Y-105410000D03*
%TO.N,Net-(J1-Pin_7)*%
X81915000Y-105410000D03*
%TO.N,Net-(J1-Pin_8)*%
X84455000Y-105410000D03*
%TO.N,Net-(J1-Pin_9)*%
X86995000Y-105410000D03*
%TO.N,Net-(J1-Pin_10)*%
X89535000Y-105410000D03*
%TO.N,Net-(J1-Pin_11)*%
X92075000Y-105410000D03*
%TO.N,Net-(J1-Pin_12)*%
X94615000Y-105410000D03*
%TO.N,Net-(J1-Pin_13)*%
X97155000Y-105410000D03*
%TO.N,Net-(J1-Pin_14)*%
X99695000Y-105410000D03*
%TO.N,Net-(J1-Pin_15)*%
X102235000Y-105410000D03*
%TO.N,Net-(J1-Pin_16)*%
X104775000Y-105410000D03*
%TO.N,Net-(J1-Pin_17)*%
X107315000Y-105410000D03*
%TO.N,Net-(J1-Pin_18)*%
X109855000Y-105410000D03*
%TO.N,Net-(J1-Pin_19)*%
X112395000Y-105410000D03*
%TO.N,Net-(J1-Pin_20)*%
X114935000Y-105410000D03*
%TO.N,Net-(J1-Pin_21)*%
X117475000Y-105410000D03*
%TO.N,Net-(J1-Pin_22)*%
X120015000Y-105410000D03*
%TO.N,Net-(J1-Pin_23)*%
X122555000Y-105410000D03*
%TO.N,Net-(J1-Pin_24)*%
X125095000Y-105410000D03*
%TO.N,Net-(J1-Pin_25)*%
X127635000Y-105410000D03*
%TO.N,Net-(J1-Pin_26)*%
X130175000Y-105410000D03*
%TO.N,Net-(J1-Pin_27)*%
X132715000Y-105410000D03*
%TO.N,Net-(J1-Pin_28)*%
X135255000Y-105410000D03*
%TO.N,Net-(J1-Pin_29)*%
X137795000Y-105410000D03*
%TO.N,Net-(J1-Pin_30)*%
X140335000Y-105410000D03*
%TD*%
D11*
%TO.N,Net-(D1-DIN)*%
%TO.C,TP16*%
X63500000Y-144780000D03*
%TD*%
%TO.N,Net-(D1-DIN)*%
%TO.C,TP17*%
X142875000Y-88519000D03*
%TD*%
%TO.N,Net-(JP2-A)*%
%TO.C,TP26*%
X143510000Y-109220000D03*
%TD*%
%TO.N,Net-(JP2-B)*%
%TO.C,TP31*%
X63500000Y-129540000D03*
%TD*%
%TO.N,+5V*%
%TO.C,TP21*%
X63500000Y-147320000D03*
%TD*%
%TO.N,Net-(JP2-A)*%
%TO.C,TP27*%
X63500000Y-109220000D03*
%TD*%
D15*
%TO.N,N/C*%
%TO.C,J14*%
X71184938Y-88587198D03*
X72086499Y-89488759D03*
X72988060Y-90390320D03*
X72086499Y-87685637D03*
X72988060Y-88587198D03*
X73889621Y-89488759D03*
X72988060Y-86784076D03*
X73889621Y-87685637D03*
X74791182Y-88587198D03*
%TD*%
D11*
%TO.N,+5V*%
%TO.C,TP18*%
X142875000Y-91059000D03*
%TD*%
%TO.N,GND*%
%TO.C,TP23*%
X143510000Y-142240000D03*
%TD*%
D16*
%TO.N,Net-(J10-Pin_1)*%
%TO.C,J7*%
X140334999Y-123190000D03*
%TO.N,Net-(J10-Pin_2)*%
X137794999Y-123190000D03*
%TO.N,Net-(J10-Pin_3)*%
X135254999Y-123190000D03*
%TO.N,Net-(J10-Pin_4)*%
X132714999Y-123190000D03*
%TO.N,Net-(J10-Pin_5)*%
X130174999Y-123190000D03*
%TO.N,Net-(J10-Pin_6)*%
X127634999Y-123190000D03*
%TO.N,Net-(J10-Pin_7)*%
X125094999Y-123190000D03*
%TO.N,Net-(J10-Pin_8)*%
X122554999Y-123190000D03*
%TO.N,Net-(J10-Pin_9)*%
X120014999Y-123190000D03*
%TO.N,Net-(J10-Pin_10)*%
X117474999Y-123190000D03*
%TO.N,Net-(J10-Pin_11)*%
X114934999Y-123190000D03*
%TO.N,Net-(J10-Pin_12)*%
X112394999Y-123190000D03*
%TO.N,Net-(J10-Pin_13)*%
X109854999Y-123190000D03*
%TO.N,Net-(J10-Pin_14)*%
X107314999Y-123190000D03*
%TO.N,Net-(J10-Pin_15)*%
X104774999Y-123190000D03*
%TO.N,Net-(J10-Pin_16)*%
X102234999Y-123190000D03*
%TO.N,Net-(J10-Pin_17)*%
X99694999Y-123190000D03*
%TO.N,Net-(J10-Pin_18)*%
X97154999Y-123190000D03*
%TO.N,Net-(J10-Pin_19)*%
X94614999Y-123190000D03*
%TO.N,Net-(J10-Pin_20)*%
X92074999Y-123190000D03*
%TO.N,Net-(J10-Pin_21)*%
X89534999Y-123190000D03*
%TO.N,Net-(J10-Pin_22)*%
X86994999Y-123190000D03*
%TO.N,Net-(J10-Pin_23)*%
X84454999Y-123190000D03*
%TO.N,Net-(J10-Pin_24)*%
X81914999Y-123190000D03*
%TO.N,Net-(J10-Pin_25)*%
X79374999Y-123190000D03*
%TO.N,Net-(J10-Pin_26)*%
X76834999Y-123190000D03*
%TO.N,Net-(J10-Pin_27)*%
X74294999Y-123190000D03*
%TO.N,Net-(J10-Pin_28)*%
X71754999Y-123190000D03*
%TO.N,Net-(J10-Pin_29)*%
X69214999Y-123190000D03*
%TO.N,Net-(J10-Pin_30)*%
X66674999Y-123190000D03*
%TD*%
D12*
%TO.N,Net-(J1-Pin_1)*%
%TO.C,J3*%
X66675003Y-110490000D03*
%TO.N,Net-(J1-Pin_2)*%
X69215003Y-110490000D03*
%TO.N,Net-(J1-Pin_3)*%
X71755003Y-110490000D03*
%TO.N,Net-(J1-Pin_4)*%
X74295003Y-110490000D03*
%TO.N,Net-(J1-Pin_5)*%
X76835003Y-110490000D03*
%TO.N,Net-(J1-Pin_6)*%
X79375003Y-110490000D03*
%TO.N,Net-(J1-Pin_7)*%
X81915003Y-110490000D03*
%TO.N,Net-(J1-Pin_8)*%
X84455003Y-110490000D03*
%TO.N,Net-(J1-Pin_9)*%
X86995003Y-110490000D03*
%TO.N,Net-(J1-Pin_10)*%
X89535003Y-110490000D03*
%TO.N,Net-(J1-Pin_11)*%
X92075003Y-110490000D03*
%TO.N,Net-(J1-Pin_12)*%
X94615003Y-110490000D03*
%TO.N,Net-(J1-Pin_13)*%
X97155003Y-110490000D03*
%TO.N,Net-(J1-Pin_14)*%
X99695003Y-110490000D03*
%TO.N,Net-(J1-Pin_15)*%
X102235003Y-110490000D03*
%TO.N,Net-(J1-Pin_16)*%
X104775003Y-110490000D03*
%TO.N,Net-(J1-Pin_17)*%
X107315003Y-110490000D03*
%TO.N,Net-(J1-Pin_18)*%
X109855003Y-110490000D03*
%TO.N,Net-(J1-Pin_19)*%
X112395003Y-110490000D03*
%TO.N,Net-(J1-Pin_20)*%
X114935003Y-110490000D03*
%TO.N,Net-(J1-Pin_21)*%
X117475003Y-110490000D03*
%TO.N,Net-(J1-Pin_22)*%
X120015003Y-110490000D03*
%TO.N,Net-(J1-Pin_23)*%
X122555003Y-110490000D03*
%TO.N,Net-(J1-Pin_24)*%
X125095003Y-110490000D03*
%TO.N,Net-(J1-Pin_25)*%
X127635003Y-110490000D03*
%TO.N,Net-(J1-Pin_26)*%
X130175003Y-110490000D03*
%TO.N,Net-(J1-Pin_27)*%
X132715003Y-110490000D03*
%TO.N,Net-(J1-Pin_28)*%
X135255003Y-110490000D03*
%TO.N,Net-(J1-Pin_29)*%
X137795003Y-110490000D03*
%TO.N,Net-(J1-Pin_30)*%
X140335003Y-110490000D03*
%TD*%
D17*
%TO.N,Net-(J1-Pin_1)*%
%TO.C,J5*%
X66675000Y-115570000D03*
%TO.N,Net-(J1-Pin_2)*%
X69215000Y-115570000D03*
%TO.N,Net-(J1-Pin_3)*%
X71755000Y-115570000D03*
%TO.N,Net-(J1-Pin_4)*%
X74295000Y-115570000D03*
%TO.N,Net-(J1-Pin_5)*%
X76835000Y-115570000D03*
%TO.N,Net-(J1-Pin_6)*%
X79375000Y-115570000D03*
%TO.N,Net-(J1-Pin_7)*%
X81915000Y-115570000D03*
%TO.N,Net-(J1-Pin_8)*%
X84455000Y-115570000D03*
%TO.N,Net-(J1-Pin_9)*%
X86995000Y-115570000D03*
%TO.N,Net-(J1-Pin_10)*%
X89535000Y-115570000D03*
%TO.N,Net-(J1-Pin_11)*%
X92075000Y-115570000D03*
%TO.N,Net-(J1-Pin_12)*%
X94615000Y-115570000D03*
%TO.N,Net-(J1-Pin_13)*%
X97155000Y-115570000D03*
%TO.N,Net-(J1-Pin_14)*%
X99695000Y-115570000D03*
%TO.N,Net-(J1-Pin_15)*%
X102235000Y-115570000D03*
%TO.N,Net-(J1-Pin_16)*%
X104775000Y-115570000D03*
%TO.N,Net-(J1-Pin_17)*%
X107315000Y-115570000D03*
%TO.N,Net-(J1-Pin_18)*%
X109855000Y-115570000D03*
%TO.N,Net-(J1-Pin_19)*%
X112395000Y-115570000D03*
%TO.N,Net-(J1-Pin_20)*%
X114935000Y-115570000D03*
%TO.N,Net-(J1-Pin_21)*%
X117475000Y-115570000D03*
%TO.N,Net-(J1-Pin_22)*%
X120015000Y-115570000D03*
%TO.N,Net-(J1-Pin_23)*%
X122555000Y-115570000D03*
%TO.N,Net-(J1-Pin_24)*%
X125095000Y-115570000D03*
%TO.N,Net-(J1-Pin_25)*%
X127635000Y-115570000D03*
%TO.N,Net-(J1-Pin_26)*%
X130175000Y-115570000D03*
%TO.N,Net-(J1-Pin_27)*%
X132715000Y-115570000D03*
%TO.N,Net-(J1-Pin_28)*%
X135255000Y-115570000D03*
%TO.N,Net-(J1-Pin_29)*%
X137795000Y-115570000D03*
%TO.N,Net-(J1-Pin_30)*%
X140335000Y-115570000D03*
%TD*%
D11*
%TO.N,Net-(JP1-A)*%
%TO.C,TP28*%
X143510000Y-127000000D03*
%TD*%
%TO.N,Net-(JP1-A)*%
%TO.C,TP29*%
X63500000Y-127000000D03*
%TD*%
D18*
%TO.N,Net-(JP2-A)*%
%TO.C,J11*%
X65405000Y-138430000D03*
X80645000Y-138430000D03*
X80645000Y-138430000D03*
X95885000Y-138430000D03*
X95885000Y-138430000D03*
X111125000Y-138430000D03*
X111125000Y-138430000D03*
X126365000Y-138430000D03*
X126365000Y-138430000D03*
X141605000Y-138430000D03*
D19*
%TO.N,Net-(J1-Pin_1)*%
X66675000Y-143510000D03*
X66675000Y-158750000D03*
%TO.N,Net-(J1-Pin_2)*%
X69215000Y-143510000D03*
X69215000Y-158750000D03*
%TO.N,Net-(J1-Pin_3)*%
X71755000Y-143510000D03*
X71755000Y-158750000D03*
%TO.N,Net-(J1-Pin_4)*%
X74295000Y-143510000D03*
X74295000Y-158750000D03*
%TO.N,Net-(J1-Pin_5)*%
X76835000Y-143510000D03*
X76835000Y-158750000D03*
%TO.N,Net-(J1-Pin_6)*%
X79375000Y-143510000D03*
X79375000Y-158750000D03*
%TO.N,Net-(J1-Pin_7)*%
X81915000Y-143510000D03*
X81915000Y-158750000D03*
%TO.N,Net-(J1-Pin_8)*%
X84455000Y-143510000D03*
X84455000Y-158750000D03*
%TO.N,Net-(J1-Pin_9)*%
X86995000Y-143510000D03*
X86995000Y-158750000D03*
%TO.N,Net-(J1-Pin_10)*%
X89535000Y-143510000D03*
X89535000Y-158750000D03*
%TO.N,Net-(J1-Pin_11)*%
X92075000Y-143510000D03*
X92075000Y-158750000D03*
%TO.N,Net-(J1-Pin_12)*%
X94615000Y-143510000D03*
X94615000Y-158750000D03*
%TO.N,Net-(J1-Pin_13)*%
X97155000Y-143510000D03*
X97155000Y-158750000D03*
%TO.N,Net-(J1-Pin_14)*%
X99695000Y-143510000D03*
X99695000Y-158750000D03*
%TO.N,Net-(J1-Pin_15)*%
X102235000Y-143510000D03*
X102235000Y-158750000D03*
%TO.N,Net-(J1-Pin_16)*%
X104775000Y-143510000D03*
X104775000Y-158750000D03*
%TO.N,Net-(J1-Pin_17)*%
X107315000Y-143510000D03*
X107315000Y-158750000D03*
%TO.N,Net-(J1-Pin_18)*%
X109855000Y-143510000D03*
X109855000Y-158750000D03*
%TO.N,Net-(J1-Pin_19)*%
X112395000Y-143510000D03*
X112395000Y-158750000D03*
%TO.N,Net-(J1-Pin_20)*%
X114935000Y-143510000D03*
X114935000Y-158750000D03*
%TO.N,Net-(J1-Pin_21)*%
X117475000Y-143510000D03*
X117475000Y-158750000D03*
%TO.N,Net-(J1-Pin_22)*%
X120015000Y-143510000D03*
X120015000Y-158750000D03*
%TO.N,Net-(J1-Pin_23)*%
X122555000Y-143510000D03*
X122555000Y-158750000D03*
%TO.N,Net-(J1-Pin_24)*%
X125095000Y-143510000D03*
X125095000Y-158750000D03*
%TO.N,Net-(J1-Pin_25)*%
X127635000Y-143510000D03*
X127635000Y-158750000D03*
%TO.N,Net-(J1-Pin_26)*%
X130175000Y-143510000D03*
X130175000Y-158750000D03*
%TO.N,Net-(J1-Pin_27)*%
X132715000Y-143510000D03*
X132715000Y-158750000D03*
%TO.N,Net-(J1-Pin_28)*%
X135255000Y-143510000D03*
X135255000Y-158750000D03*
%TO.N,Net-(J1-Pin_29)*%
X137795000Y-143510000D03*
X137795000Y-158750000D03*
%TO.N,Net-(J1-Pin_30)*%
X140335000Y-143510000D03*
X140335000Y-158750000D03*
D18*
%TO.N,Net-(JP1-B)*%
X65405000Y-135890000D03*
X80645000Y-135890000D03*
X80645000Y-135890000D03*
X95885000Y-135890000D03*
X95885000Y-135890000D03*
X111125000Y-135890000D03*
X111125000Y-135890000D03*
X126365000Y-135890000D03*
X126365000Y-135890000D03*
X141605000Y-135890000D03*
%TO.N,Net-(JP2-B)*%
X65405000Y-184150000D03*
X80645000Y-184150000D03*
X80645000Y-184150000D03*
X95885000Y-184150000D03*
X95885000Y-184150000D03*
X111125000Y-184150000D03*
X111125000Y-184150000D03*
X126365000Y-184150000D03*
X126365000Y-184150000D03*
X141605000Y-184150000D03*
D19*
%TO.N,Net-(J10-Pin_30)*%
X66675000Y-161290000D03*
X66675000Y-176530000D03*
%TO.N,Net-(J10-Pin_29)*%
X69215000Y-161290000D03*
X69215000Y-176530000D03*
%TO.N,Net-(J10-Pin_28)*%
X71755000Y-161290000D03*
X71755000Y-176530000D03*
%TO.N,Net-(J10-Pin_27)*%
X74295000Y-161290000D03*
X74295000Y-176530000D03*
%TO.N,Net-(J10-Pin_26)*%
X76835000Y-161290000D03*
X76835000Y-176530000D03*
%TO.N,Net-(J10-Pin_25)*%
X79375000Y-161290000D03*
X79375000Y-176530000D03*
%TO.N,Net-(J10-Pin_24)*%
X81915000Y-161290000D03*
X81915000Y-176530000D03*
%TO.N,Net-(J10-Pin_23)*%
X84455000Y-161290000D03*
X84455000Y-176530000D03*
%TO.N,Net-(J10-Pin_22)*%
X86995000Y-161290000D03*
X86995000Y-176530000D03*
%TO.N,Net-(J10-Pin_21)*%
X89535000Y-161290000D03*
X89535000Y-176530000D03*
%TO.N,Net-(J10-Pin_20)*%
X92075000Y-161290000D03*
X92075000Y-176530000D03*
%TO.N,Net-(J10-Pin_19)*%
X94615000Y-161290000D03*
X94615000Y-176530000D03*
%TO.N,Net-(J10-Pin_18)*%
X97155000Y-161290000D03*
X97155000Y-176530000D03*
%TO.N,Net-(J10-Pin_17)*%
X99695000Y-161290000D03*
X99695000Y-176530000D03*
%TO.N,Net-(J10-Pin_16)*%
X102235000Y-161290000D03*
X102235000Y-176530000D03*
%TO.N,Net-(J10-Pin_15)*%
X104775000Y-161290000D03*
X104775000Y-176530000D03*
%TO.N,Net-(J10-Pin_14)*%
X107315000Y-161290000D03*
X107315000Y-176530000D03*
%TO.N,Net-(J10-Pin_13)*%
X109855000Y-161290000D03*
X109855000Y-176530000D03*
%TO.N,Net-(J10-Pin_12)*%
X112395000Y-161290000D03*
X112395000Y-176530000D03*
%TO.N,Net-(J10-Pin_11)*%
X114935000Y-161290000D03*
X114935000Y-176530000D03*
%TO.N,Net-(J10-Pin_10)*%
X117475000Y-161290000D03*
X117475000Y-176530000D03*
%TO.N,Net-(J10-Pin_9)*%
X120015000Y-161290000D03*
X120015000Y-176530000D03*
%TO.N,Net-(J10-Pin_8)*%
X122555000Y-161290000D03*
X122555000Y-176530000D03*
%TO.N,Net-(J10-Pin_7)*%
X125095000Y-161290000D03*
X125095000Y-176530000D03*
%TO.N,Net-(J10-Pin_6)*%
X127635000Y-161290000D03*
X127635000Y-176530000D03*
%TO.N,Net-(J10-Pin_5)*%
X130175000Y-161290000D03*
X130175000Y-176530000D03*
%TO.N,Net-(J10-Pin_4)*%
X132715000Y-161290000D03*
X132715000Y-176530000D03*
%TO.N,Net-(J10-Pin_3)*%
X135255000Y-161290000D03*
X135255000Y-176530000D03*
%TO.N,Net-(J10-Pin_2)*%
X137795000Y-161290000D03*
X137795000Y-176530000D03*
%TO.N,Net-(J10-Pin_1)*%
X140335000Y-161290000D03*
X140335000Y-176530000D03*
D18*
%TO.N,Net-(JP1-A)*%
X65405000Y-181610000D03*
X80645000Y-181610000D03*
X80645000Y-181610000D03*
X95885000Y-181622700D03*
X95885000Y-181622700D03*
X111125000Y-181610000D03*
X111125000Y-181610000D03*
X126365000Y-181610000D03*
X126365000Y-181610000D03*
X141605000Y-181610000D03*
%TD*%
D11*
%TO.N,Net-(JP2-B)*%
%TO.C,TP30*%
X143510000Y-129540000D03*
%TD*%
%TO.N,+5V*%
%TO.C,TP22*%
X143510000Y-147320000D03*
%TD*%
%TO.N,GND*%
%TO.C,TP19*%
X142875000Y-85979000D03*
%TD*%
%TO.N,Net-(D90-DOUT)*%
%TO.C,TP15*%
X143510000Y-144780000D03*
%TD*%
D16*
%TO.N,Net-(J10-Pin_1)*%
%TO.C,J8*%
X140334999Y-125730000D03*
%TO.N,Net-(J10-Pin_2)*%
X137794999Y-125730000D03*
%TO.N,Net-(J10-Pin_3)*%
X135254999Y-125730000D03*
%TO.N,Net-(J10-Pin_4)*%
X132714999Y-125730000D03*
%TO.N,Net-(J10-Pin_5)*%
X130174999Y-125730000D03*
%TO.N,Net-(J10-Pin_6)*%
X127634999Y-125730000D03*
%TO.N,Net-(J10-Pin_7)*%
X125094999Y-125730000D03*
%TO.N,Net-(J10-Pin_8)*%
X122554999Y-125730000D03*
%TO.N,Net-(J10-Pin_9)*%
X120014999Y-125730000D03*
%TO.N,Net-(J10-Pin_10)*%
X117474999Y-125730000D03*
%TO.N,Net-(J10-Pin_11)*%
X114934999Y-125730000D03*
%TO.N,Net-(J10-Pin_12)*%
X112394999Y-125730000D03*
%TO.N,Net-(J10-Pin_13)*%
X109854999Y-125730000D03*
%TO.N,Net-(J10-Pin_14)*%
X107314999Y-125730000D03*
%TO.N,Net-(J10-Pin_15)*%
X104774999Y-125730000D03*
%TO.N,Net-(J10-Pin_16)*%
X102234999Y-125730000D03*
%TO.N,Net-(J10-Pin_17)*%
X99694999Y-125730000D03*
%TO.N,Net-(J10-Pin_18)*%
X97154999Y-125730000D03*
%TO.N,Net-(J10-Pin_19)*%
X94614999Y-125730000D03*
%TO.N,Net-(J10-Pin_20)*%
X92074999Y-125730000D03*
%TO.N,Net-(J10-Pin_21)*%
X89534999Y-125730000D03*
%TO.N,Net-(J10-Pin_22)*%
X86994999Y-125730000D03*
%TO.N,Net-(J10-Pin_23)*%
X84454999Y-125730000D03*
%TO.N,Net-(J10-Pin_24)*%
X81914999Y-125730000D03*
%TO.N,Net-(J10-Pin_25)*%
X79374999Y-125730000D03*
%TO.N,Net-(J10-Pin_26)*%
X76834999Y-125730000D03*
%TO.N,Net-(J10-Pin_27)*%
X74294999Y-125730000D03*
%TO.N,Net-(J10-Pin_28)*%
X71754999Y-125730000D03*
%TO.N,Net-(J10-Pin_29)*%
X69214999Y-125730000D03*
%TO.N,Net-(J10-Pin_30)*%
X66674999Y-125730000D03*
%TD*%
%TO.N,Net-(J10-Pin_1)*%
%TO.C,J9*%
X140335000Y-128270000D03*
%TO.N,Net-(J10-Pin_2)*%
X137795000Y-128270000D03*
%TO.N,Net-(J10-Pin_3)*%
X135255000Y-128270000D03*
%TO.N,Net-(J10-Pin_4)*%
X132715000Y-128270000D03*
%TO.N,Net-(J10-Pin_5)*%
X130175000Y-128270000D03*
%TO.N,Net-(J10-Pin_6)*%
X127635000Y-128270000D03*
%TO.N,Net-(J10-Pin_7)*%
X125095000Y-128270000D03*
%TO.N,Net-(J10-Pin_8)*%
X122555000Y-128270000D03*
%TO.N,Net-(J10-Pin_9)*%
X120015000Y-128270000D03*
%TO.N,Net-(J10-Pin_10)*%
X117475000Y-128270000D03*
%TO.N,Net-(J10-Pin_11)*%
X114935000Y-128270000D03*
%TO.N,Net-(J10-Pin_12)*%
X112395000Y-128270000D03*
%TO.N,Net-(J10-Pin_13)*%
X109855000Y-128270000D03*
%TO.N,Net-(J10-Pin_14)*%
X107315000Y-128270000D03*
%TO.N,Net-(J10-Pin_15)*%
X104775000Y-128270000D03*
%TO.N,Net-(J10-Pin_16)*%
X102235000Y-128270000D03*
%TO.N,Net-(J10-Pin_17)*%
X99695000Y-128270000D03*
%TO.N,Net-(J10-Pin_18)*%
X97155000Y-128270000D03*
%TO.N,Net-(J10-Pin_19)*%
X94615000Y-128270000D03*
%TO.N,Net-(J10-Pin_20)*%
X92075000Y-128270000D03*
%TO.N,Net-(J10-Pin_21)*%
X89535000Y-128270000D03*
%TO.N,Net-(J10-Pin_22)*%
X86995000Y-128270000D03*
%TO.N,Net-(J10-Pin_23)*%
X84455000Y-128270000D03*
%TO.N,Net-(J10-Pin_24)*%
X81915000Y-128270000D03*
%TO.N,Net-(J10-Pin_25)*%
X79375000Y-128270000D03*
%TO.N,Net-(J10-Pin_26)*%
X76835000Y-128270000D03*
%TO.N,Net-(J10-Pin_27)*%
X74295000Y-128270000D03*
%TO.N,Net-(J10-Pin_28)*%
X71755000Y-128270000D03*
%TO.N,Net-(J10-Pin_29)*%
X69215000Y-128270000D03*
%TO.N,Net-(J10-Pin_30)*%
X66675000Y-128270000D03*
%TD*%
D20*
%TO.N,Net-(J10-Pin_1)*%
%TO.C,J10*%
X140335000Y-130810000D03*
%TO.N,Net-(J10-Pin_2)*%
X137795000Y-130810000D03*
%TO.N,Net-(J10-Pin_3)*%
X135255000Y-130810000D03*
%TO.N,Net-(J10-Pin_4)*%
X132715000Y-130810000D03*
%TO.N,Net-(J10-Pin_5)*%
X130175000Y-130810000D03*
%TO.N,Net-(J10-Pin_6)*%
X127635000Y-130810000D03*
%TO.N,Net-(J10-Pin_7)*%
X125095000Y-130810000D03*
%TO.N,Net-(J10-Pin_8)*%
X122555000Y-130810000D03*
%TO.N,Net-(J10-Pin_9)*%
X120015000Y-130810000D03*
%TO.N,Net-(J10-Pin_10)*%
X117475000Y-130810000D03*
%TO.N,Net-(J10-Pin_11)*%
X114935000Y-130810000D03*
%TO.N,Net-(J10-Pin_12)*%
X112395000Y-130810000D03*
%TO.N,Net-(J10-Pin_13)*%
X109855000Y-130810000D03*
%TO.N,Net-(J10-Pin_14)*%
X107315000Y-130810000D03*
%TO.N,Net-(J10-Pin_15)*%
X104775000Y-130810000D03*
%TO.N,Net-(J10-Pin_16)*%
X102235000Y-130810000D03*
%TO.N,Net-(J10-Pin_17)*%
X99695000Y-130810000D03*
%TO.N,Net-(J10-Pin_18)*%
X97155000Y-130810000D03*
%TO.N,Net-(J10-Pin_19)*%
X94615000Y-130810000D03*
%TO.N,Net-(J10-Pin_20)*%
X92075000Y-130810000D03*
%TO.N,Net-(J10-Pin_21)*%
X89535000Y-130810000D03*
%TO.N,Net-(J10-Pin_22)*%
X86995000Y-130810000D03*
%TO.N,Net-(J10-Pin_23)*%
X84455000Y-130810000D03*
%TO.N,Net-(J10-Pin_24)*%
X81915000Y-130810000D03*
%TO.N,Net-(J10-Pin_25)*%
X79375000Y-130810000D03*
%TO.N,Net-(J10-Pin_26)*%
X76835000Y-130810000D03*
%TO.N,Net-(J10-Pin_27)*%
X74295000Y-130810000D03*
%TO.N,Net-(J10-Pin_28)*%
X71755000Y-130810000D03*
%TO.N,Net-(J10-Pin_29)*%
X69215000Y-130810000D03*
%TO.N,Net-(J10-Pin_30)*%
X66675000Y-130810000D03*
%TD*%
D12*
%TO.N,Net-(J1-Pin_1)*%
%TO.C,J4*%
X66675000Y-113030000D03*
%TO.N,Net-(J1-Pin_2)*%
X69215000Y-113030000D03*
%TO.N,Net-(J1-Pin_3)*%
X71755000Y-113030000D03*
%TO.N,Net-(J1-Pin_4)*%
X74295000Y-113030000D03*
%TO.N,Net-(J1-Pin_5)*%
X76835000Y-113030000D03*
%TO.N,Net-(J1-Pin_6)*%
X79375000Y-113030000D03*
%TO.N,Net-(J1-Pin_7)*%
X81915000Y-113030000D03*
%TO.N,Net-(J1-Pin_8)*%
X84455000Y-113030000D03*
%TO.N,Net-(J1-Pin_9)*%
X86995000Y-113030000D03*
%TO.N,Net-(J1-Pin_10)*%
X89535000Y-113030000D03*
%TO.N,Net-(J1-Pin_11)*%
X92075000Y-113030000D03*
%TO.N,Net-(J1-Pin_12)*%
X94615000Y-113030000D03*
%TO.N,Net-(J1-Pin_13)*%
X97155000Y-113030000D03*
%TO.N,Net-(J1-Pin_14)*%
X99695000Y-113030000D03*
%TO.N,Net-(J1-Pin_15)*%
X102235000Y-113030000D03*
%TO.N,Net-(J1-Pin_16)*%
X104775000Y-113030000D03*
%TO.N,Net-(J1-Pin_17)*%
X107315000Y-113030000D03*
%TO.N,Net-(J1-Pin_18)*%
X109855000Y-113030000D03*
%TO.N,Net-(J1-Pin_19)*%
X112395000Y-113030000D03*
%TO.N,Net-(J1-Pin_20)*%
X114935000Y-113030000D03*
%TO.N,Net-(J1-Pin_21)*%
X117475000Y-113030000D03*
%TO.N,Net-(J1-Pin_22)*%
X120015000Y-113030000D03*
%TO.N,Net-(J1-Pin_23)*%
X122555000Y-113030000D03*
%TO.N,Net-(J1-Pin_24)*%
X125095000Y-113030000D03*
%TO.N,Net-(J1-Pin_25)*%
X127635000Y-113030000D03*
%TO.N,Net-(J1-Pin_26)*%
X130175000Y-113030000D03*
%TO.N,Net-(J1-Pin_27)*%
X132715000Y-113030000D03*
%TO.N,Net-(J1-Pin_28)*%
X135255000Y-113030000D03*
%TO.N,Net-(J1-Pin_29)*%
X137795000Y-113030000D03*
%TO.N,Net-(J1-Pin_30)*%
X140335000Y-113030000D03*
%TD*%
D21*
%TO.N,Net-(J1-Pin_1)*%
%TO.C,J18*%
X66675000Y-101600000D03*
%TO.N,Net-(J1-Pin_2)*%
X69215000Y-101600000D03*
%TO.N,Net-(J1-Pin_3)*%
X71755000Y-101600000D03*
%TO.N,Net-(J1-Pin_4)*%
X74295000Y-101600000D03*
%TO.N,Net-(J1-Pin_5)*%
X76835000Y-101600000D03*
%TO.N,Net-(J1-Pin_6)*%
X79375000Y-101600000D03*
%TO.N,Net-(J1-Pin_7)*%
X81915000Y-101600000D03*
%TO.N,Net-(J1-Pin_8)*%
X84455000Y-101600000D03*
%TO.N,Net-(J1-Pin_9)*%
X86995000Y-101600000D03*
%TO.N,Net-(J1-Pin_10)*%
X89535000Y-101600000D03*
%TO.N,Net-(J1-Pin_11)*%
X92075000Y-101600000D03*
%TO.N,Net-(J1-Pin_12)*%
X94615000Y-101600000D03*
%TO.N,Net-(J1-Pin_13)*%
X97155000Y-101600000D03*
%TO.N,Net-(J1-Pin_14)*%
X99695000Y-101600000D03*
%TO.N,Net-(J1-Pin_15)*%
X102235000Y-101600000D03*
%TO.N,Net-(J1-Pin_16)*%
X104775000Y-101600000D03*
%TO.N,Net-(J1-Pin_17)*%
X107315000Y-101600000D03*
%TO.N,Net-(J1-Pin_18)*%
X109855000Y-101600000D03*
%TO.N,Net-(J1-Pin_19)*%
X112395000Y-101600000D03*
%TO.N,Net-(J1-Pin_20)*%
X114935000Y-101600000D03*
%TO.N,Net-(J1-Pin_21)*%
X117475000Y-101600000D03*
%TO.N,Net-(J1-Pin_22)*%
X120015000Y-101600000D03*
%TO.N,Net-(J1-Pin_23)*%
X122555000Y-101600000D03*
%TO.N,Net-(J1-Pin_24)*%
X125095000Y-101600000D03*
%TO.N,Net-(J1-Pin_25)*%
X127635000Y-101600000D03*
%TO.N,Net-(J1-Pin_26)*%
X130175000Y-101600000D03*
%TO.N,Net-(J1-Pin_27)*%
X132715000Y-101600000D03*
%TO.N,Net-(J1-Pin_28)*%
X135255000Y-101600000D03*
%TO.N,Net-(J1-Pin_29)*%
X137795000Y-101600000D03*
%TO.N,Net-(J1-Pin_30)*%
X140335000Y-101600000D03*
%TD*%
D11*
%TO.N,GND*%
%TO.C,TP20*%
X63500000Y-142240000D03*
%TD*%
D22*
%TO.N,Net-(J1-Pin_29)*%
X102974326Y-94665800D03*
X139446000Y-96088200D03*
X137820400Y-100076000D03*
X77665640Y-89171840D03*
X88925400Y-88950800D03*
%TO.N,Net-(J1-Pin_28)*%
X88734804Y-89776204D03*
X138861800Y-95758000D03*
X135236466Y-100069134D03*
X77250889Y-89729363D03*
X102475367Y-94399505D03*
%TO.N,Net-(J1-Pin_27)*%
X77285222Y-90329378D03*
X138328400Y-96037400D03*
X88499700Y-90185118D03*
X102044335Y-94416710D03*
%TO.N,Net-(J1-Pin_26)*%
X137337800Y-95885000D03*
X101523800Y-94488000D03*
X77230979Y-90840821D03*
X88163399Y-90601801D03*
%TO.N,Net-(J1-Pin_25)*%
X77239069Y-91414600D03*
X87807800Y-90951300D03*
X136855200Y-95707200D03*
X101041200Y-94615000D03*
%TO.N,Net-(J1-Pin_24)*%
X87579200Y-91429402D03*
X77181385Y-91922600D03*
X100596700Y-94780100D03*
X136347200Y-95758000D03*
%TO.N,Net-(J1-Pin_23)*%
X100177600Y-95046800D03*
X87274400Y-91922600D03*
X135712200Y-95808800D03*
X77266800Y-92430600D03*
%TO.N,Net-(J1-Pin_22)*%
X134785100Y-96113600D03*
X116662200Y-95300800D03*
X77216000Y-92887800D03*
X87045800Y-92430600D03*
%TO.N,Net-(J1-Pin_21)*%
X134213600Y-94919800D03*
X76727566Y-93122234D03*
X117221000Y-95300800D03*
X86766400Y-92938600D03*
%TO.N,Net-(J1-Pin_20)*%
X117678200Y-97536000D03*
X133497101Y-96771059D03*
X76194323Y-93198277D03*
X86512400Y-93446600D03*
%TO.N,Net-(J1-Pin_19)*%
X116052600Y-96824800D03*
X86321900Y-93954600D03*
X75634983Y-93285112D03*
X133223000Y-95681800D03*
%TO.N,Net-(J1-Pin_18)*%
X75184000Y-93446600D03*
X86140790Y-94386400D03*
X115392200Y-97409000D03*
X132308600Y-95250000D03*
%TO.N,Net-(J1-Pin_17)*%
X131673600Y-95351600D03*
X74726800Y-93599000D03*
X114427000Y-97256600D03*
X86233000Y-94818200D03*
%TO.N,Net-(J1-Pin_16)*%
X131038600Y-95377000D03*
X113753900Y-97320100D03*
X74269600Y-93548200D03*
X85327389Y-94987211D03*
%TO.N,Net-(J1-Pin_15)*%
X129794000Y-96113600D03*
%TO.N,Net-(J1-Pin_14)*%
X95224600Y-97002600D03*
X83794600Y-96367600D03*
X109448600Y-97459800D03*
X129768600Y-95250000D03*
%TO.N,Net-(J1-Pin_13)*%
X129108200Y-95326200D03*
X109334300Y-96964500D03*
X94792800Y-96393000D03*
X83184999Y-96367601D03*
%TO.N,Net-(J1-Pin_12)*%
X128600200Y-95275400D03*
X94259400Y-96393000D03*
X108813600Y-96570800D03*
X82524600Y-96367600D03*
%TO.N,Net-(J1-Pin_11)*%
X108422464Y-96306664D03*
X81915000Y-96367600D03*
X128092200Y-95377000D03*
X93726000Y-96316800D03*
%TO.N,Net-(J1-Pin_10)*%
X81280000Y-96393000D03*
X93141800Y-96393000D03*
X107784900Y-96227900D03*
X127228601Y-95224599D03*
%TO.N,Net-(J1-Pin_9)*%
X80645000Y-96367600D03*
X126593600Y-95097600D03*
X92583000Y-96367600D03*
X106908599Y-96265999D03*
%TO.N,Net-(J1-Pin_8)*%
X125984000Y-95097600D03*
X92049600Y-96393000D03*
X80035400Y-96367600D03*
X106329699Y-96164400D03*
%TO.N,Net-(J1-Pin_7)*%
X78867000Y-96367600D03*
X125552200Y-95377000D03*
X91567000Y-96393000D03*
X105651300Y-96227900D03*
%TO.N,Net-(J1-Pin_6)*%
X90982800Y-96393000D03*
X124663200Y-95224600D03*
X77063600Y-96367600D03*
X105473767Y-95796367D03*
%TO.N,Net-(J1-Pin_5)*%
X124053600Y-95021400D03*
X105283000Y-95377000D03*
X90398600Y-96469200D03*
X76377800Y-96291400D03*
%TO.N,Net-(J1-Pin_4)*%
X104343200Y-95580200D03*
X74574400Y-95758000D03*
X123024900Y-95694500D03*
X89738200Y-96520000D03*
%TO.N,Net-(J1-Pin_3)*%
X123019066Y-95002866D03*
X72796400Y-95478600D03*
X104241600Y-95072200D03*
X89154000Y-96342200D03*
%TO.N,Net-(J1-Pin_2)*%
X88646000Y-95986600D03*
X72466200Y-94996000D03*
X122148600Y-94818200D03*
X104190800Y-94512724D03*
%TO.N,Net-(J1-Pin_1)*%
X121513600Y-94818200D03*
X103809800Y-94284800D03*
X72161400Y-94538800D03*
X87833200Y-95605600D03*
%TO.N,Net-(J10-Pin_9)*%
X87045800Y-84734400D03*
X77216000Y-84277200D03*
X134620000Y-81026000D03*
X117398800Y-81076800D03*
X117449600Y-97967800D03*
%TO.N,Net-(J10-Pin_8)*%
X135712200Y-81356200D03*
X87274400Y-85242400D03*
X120345200Y-91490800D03*
X100177600Y-82118200D03*
X77266800Y-84734400D03*
%TO.N,Net-(J10-Pin_7)*%
X87579200Y-85735598D03*
X123698000Y-95605600D03*
X100596700Y-82384900D03*
X136347200Y-81407000D03*
X77181385Y-85242400D03*
%TO.N,Net-(J10-Pin_6)*%
X77239069Y-85750400D03*
X87807800Y-86213700D03*
X136855200Y-81457800D03*
X101041200Y-82550000D03*
X126060200Y-95605600D03*
%TO.N,Net-(J10-Pin_5)*%
X137337800Y-81280000D03*
X129235200Y-96469200D03*
X101523800Y-82677000D03*
X77230979Y-86324179D03*
X88163399Y-86563199D03*
%TO.N,Net-(J10-Pin_4)*%
X88499700Y-86979882D03*
X132308600Y-96570800D03*
X77285222Y-86835622D03*
X102044335Y-82748290D03*
X138328400Y-81127600D03*
%TO.N,Net-(J10-Pin_30)*%
X64744600Y-75590400D03*
X103886000Y-82677000D03*
X72263000Y-83083400D03*
X121335800Y-82346800D03*
X87833200Y-81559400D03*
%TO.N,Net-(J10-Pin_3)*%
X102475367Y-82765495D03*
X138861800Y-81407000D03*
X88734804Y-87388796D03*
X135236466Y-77095866D03*
X77250889Y-87435637D03*
X134467600Y-95377000D03*
%TO.N,Net-(J10-Pin_29)*%
X64693800Y-76250800D03*
X103910986Y-82169000D03*
X122148600Y-82296000D03*
X88646000Y-81178400D03*
X72517000Y-82651600D03*
%TO.N,Net-(J10-Pin_28)*%
X123063000Y-82346800D03*
X89154000Y-80822800D03*
X72974200Y-82219800D03*
X104038400Y-81661000D03*
X64617600Y-76936600D03*
%TO.N,Net-(J10-Pin_27)*%
X104476034Y-81330800D03*
X75031600Y-81788000D03*
X123418599Y-82067401D03*
X64617600Y-77546200D03*
X89738200Y-80645000D03*
%TO.N,Net-(J10-Pin_26)*%
X75717400Y-81356200D03*
X90398600Y-80695800D03*
X64668400Y-78206600D03*
X105448100Y-81622900D03*
X124053600Y-82169000D03*
%TO.N,Net-(J10-Pin_25)*%
X90982800Y-80772000D03*
X124688600Y-82169000D03*
X106058233Y-81622367D03*
X64643000Y-78867000D03*
X77063600Y-80924400D03*
%TO.N,Net-(J10-Pin_24)*%
X78955717Y-80883777D03*
X125730000Y-82169000D03*
X64566800Y-79578200D03*
X106019600Y-80873600D03*
X91567000Y-80772000D03*
%TO.N,Net-(J10-Pin_23)*%
X64871600Y-79959200D03*
X106451400Y-80670400D03*
X92075000Y-80873600D03*
X80010000Y-80342508D03*
X126238000Y-82296000D03*
%TO.N,Net-(J10-Pin_22)*%
X92583000Y-80797400D03*
X106892435Y-80822800D03*
X126466600Y-81737200D03*
X81229200Y-80232500D03*
X65125600Y-80441800D03*
%TO.N,Net-(J10-Pin_21)*%
X127076200Y-81788000D03*
X93141800Y-80772000D03*
X65582800Y-80873600D03*
X82105500Y-80327500D03*
X108165900Y-81318100D03*
%TO.N,Net-(J10-Pin_20)*%
X82740500Y-80327500D03*
X108585000Y-81026000D03*
X93726000Y-80848200D03*
X128092200Y-81788000D03*
X65735200Y-81330800D03*
%TO.N,Net-(J10-Pin_2)*%
X137820400Y-77089000D03*
X137058400Y-96951800D03*
X139446000Y-81076800D03*
X102995801Y-82289350D03*
X88925400Y-88214200D03*
X77665640Y-87993160D03*
%TO.N,Net-(J10-Pin_19)*%
X108051600Y-79476600D03*
X83371042Y-80323042D03*
X128600200Y-81889600D03*
X66167000Y-81788000D03*
X94259400Y-80772000D03*
%TO.N,Net-(J10-Pin_18)*%
X129108200Y-81838800D03*
X94792800Y-80772000D03*
X84175600Y-80238600D03*
X108612640Y-79428042D03*
X66548000Y-82245200D03*
%TO.N,Net-(J10-Pin_17)*%
X109435900Y-79565500D03*
X129768600Y-81915000D03*
X95224600Y-80162400D03*
X66776600Y-82677000D03*
X85344000Y-80137000D03*
%TO.N,Net-(J10-Pin_16)*%
X129794000Y-81051400D03*
%TO.N,Net-(J10-Pin_15)*%
X114491551Y-79541151D03*
X74269600Y-83616800D03*
X84768590Y-82736590D03*
X131013200Y-81407000D03*
%TO.N,Net-(J10-Pin_14)*%
X85865484Y-82346800D03*
X131648200Y-81432400D03*
X115389283Y-79422883D03*
X74726800Y-83566000D03*
%TO.N,Net-(J10-Pin_13)*%
X75184000Y-83718400D03*
X132181600Y-81559400D03*
X86140790Y-82778600D03*
X116349226Y-79393800D03*
%TO.N,Net-(J10-Pin_12)*%
X75634983Y-83879888D03*
X116916200Y-79146400D03*
X86321900Y-83210400D03*
X133197600Y-81356200D03*
X111937800Y-97129600D03*
%TO.N,Net-(J10-Pin_11)*%
X117652800Y-79146400D03*
X86512400Y-83718400D03*
X76194323Y-83966723D03*
X133578600Y-81127600D03*
%TO.N,Net-(J10-Pin_10)*%
X76740266Y-84055466D03*
X117017800Y-97967800D03*
X117500400Y-81584800D03*
X86766400Y-84226400D03*
X134137400Y-81026000D03*
%TO.N,GND*%
X74930000Y-180340000D03*
X90170000Y-180340000D03*
X66040000Y-141605000D03*
X105410000Y-180340000D03*
X63881000Y-170129200D03*
X141706600Y-171145200D03*
X142925800Y-151739600D03*
X64135000Y-151765000D03*
X141986000Y-131826000D03*
X120650000Y-180340000D03*
X136652000Y-132080000D03*
X135255000Y-180340000D03*
%TO.N,Net-(D1-DIN)*%
X141741655Y-117613968D03*
X69596000Y-117798498D03*
X70680000Y-132012000D03*
X64173100Y-150939500D03*
X70612000Y-141224000D03*
%TO.N,+5V*%
X66040000Y-149225000D03*
X101600000Y-139700000D03*
X116840000Y-185420000D03*
X132080000Y-185420000D03*
X86360000Y-139065000D03*
X86360000Y-185420000D03*
X101600000Y-185420000D03*
X134112000Y-132080000D03*
X72390000Y-140335000D03*
X132080000Y-139065000D03*
X71120000Y-185420000D03*
X117475000Y-139700000D03*
X135255000Y-140970000D03*
%TO.N,Net-(D30-DOUT)*%
X142240000Y-151130000D03*
X64287400Y-169646600D03*
%TO.N,Net-(D80-DOUT)*%
X71120000Y-135890000D03*
X66043947Y-140719947D03*
X64135000Y-179070000D03*
%TO.N,Net-(JP1-A)*%
X138495060Y-118872000D03*
X143510000Y-119888000D03*
%TO.N,Net-(JP2-A)*%
X134620000Y-118147999D03*
X141986000Y-118110000D03*
%TO.N,Net-(JP2-B)*%
X138430000Y-118275201D03*
X63500000Y-120396000D03*
%TD*%
D23*
%TO.N,Net-(J1-Pin_30)*%
X141478000Y-131414117D02*
X140970000Y-131922117D01*
X140970000Y-131922117D02*
X140970000Y-134620000D01*
X139735000Y-142910000D02*
X140335000Y-143510000D01*
X140335000Y-143510000D02*
X140335000Y-158750000D01*
X140716000Y-118060914D02*
X140716000Y-118618000D01*
X140970000Y-134620000D02*
X139735000Y-135855000D01*
X140335000Y-117679914D02*
X140716000Y-118060914D01*
X140335000Y-115570000D02*
X140335000Y-117679914D01*
X140716000Y-118618000D02*
X141478000Y-119380000D01*
X141478000Y-119380000D02*
X141478000Y-131414117D01*
X139735000Y-135855000D02*
X139735000Y-142910000D01*
%TO.N,Net-(J1-Pin_29)*%
X138430000Y-132080000D02*
X138430000Y-142875000D01*
X138430000Y-142875000D02*
X137795000Y-143510000D01*
X139446000Y-96088200D02*
X139446000Y-98450400D01*
X137795000Y-143510000D02*
X137795000Y-158750000D01*
X138938000Y-131572000D02*
X138430000Y-132080000D01*
X138938000Y-116713000D02*
X138938000Y-131572000D01*
X139446000Y-98450400D02*
X137820400Y-100076000D01*
X137795000Y-115570000D02*
X138938000Y-116713000D01*
%TO.N,Net-(J1-Pin_28)*%
X138988800Y-96316800D02*
X135236466Y-100069134D01*
X138988800Y-95885000D02*
X138988800Y-96316800D01*
X135890000Y-131922117D02*
X135890000Y-142875000D01*
X138861800Y-95758000D02*
X138988800Y-95885000D01*
X136305000Y-116620000D02*
X136305000Y-131507117D01*
X135890000Y-142875000D02*
X135255000Y-143510000D01*
X136305000Y-131507117D02*
X135890000Y-131922117D01*
X135255000Y-115570000D02*
X136305000Y-116620000D01*
X135255000Y-143510000D02*
X135255000Y-158750000D01*
%TO.N,Net-(J1-Pin_27)*%
X133858000Y-131572000D02*
X133385000Y-132045000D01*
X133385000Y-132045000D02*
X133385000Y-142840000D01*
X133858000Y-116713000D02*
X133858000Y-131572000D01*
X138328400Y-96037400D02*
X138328400Y-96367600D01*
X132715000Y-143510000D02*
X132715000Y-158750000D01*
X132715000Y-115570000D02*
X133858000Y-116713000D01*
X133385000Y-142840000D02*
X132715000Y-143510000D01*
X138328400Y-96367600D02*
X133197600Y-101498400D01*
%TO.N,Net-(J1-Pin_26)*%
X131225000Y-116620000D02*
X131225000Y-131507117D01*
X130810000Y-142875000D02*
X130175000Y-143510000D01*
X137337800Y-95885000D02*
X137337800Y-95885706D01*
X131482180Y-100200810D02*
X130200400Y-101482590D01*
X130810000Y-131922117D02*
X130810000Y-142875000D01*
X130175000Y-143510000D02*
X130175000Y-158750000D01*
X130175000Y-115570000D02*
X131225000Y-116620000D01*
X133022696Y-100200810D02*
X131482180Y-100200810D01*
X131225000Y-131507117D02*
X130810000Y-131922117D01*
X137337800Y-95885706D02*
X133022696Y-100200810D01*
%TO.N,Net-(J1-Pin_25)*%
X128778000Y-116713000D02*
X128778000Y-131338236D01*
X127635000Y-143510000D02*
X127635000Y-158750000D01*
X128363281Y-131828836D02*
X128305000Y-131873140D01*
X128305000Y-131873140D02*
X128305000Y-142840000D01*
X136855200Y-95944042D02*
X134090638Y-98708604D01*
X129466840Y-100309802D02*
X128202042Y-101574600D01*
X136855200Y-95707200D02*
X136855200Y-95944042D01*
X128511531Y-131654302D02*
X128363281Y-131828836D01*
X132652428Y-98708604D02*
X131459723Y-99901309D01*
X129984430Y-100309802D02*
X129466840Y-100309802D01*
X130392923Y-99901309D02*
X129984430Y-100309802D01*
X131459723Y-99901309D02*
X130392923Y-99901309D01*
X128778000Y-131338236D02*
X128567495Y-131548741D01*
X128567495Y-131548741D02*
X128511531Y-131654302D01*
X127635000Y-115570000D02*
X128778000Y-116713000D01*
X134090638Y-98708604D02*
X132652428Y-98708604D01*
X128305000Y-142840000D02*
X127635000Y-143510000D01*
%TO.N,Net-(J1-Pin_24)*%
X126145000Y-116620000D02*
X126145000Y-131507117D01*
X132528371Y-98409103D02*
X131335666Y-99601808D01*
X131335666Y-99601808D02*
X130268866Y-99601808D01*
X125095000Y-115570000D02*
X126145000Y-116620000D01*
X136347200Y-95758000D02*
X136347200Y-95910400D01*
X125730000Y-131922117D02*
X125730000Y-134366000D01*
X130268866Y-99601808D02*
X129860373Y-100010301D01*
X125730000Y-134366000D02*
X125095000Y-135001000D01*
X128194911Y-100010301D02*
X127923998Y-100281214D01*
X127923998Y-100281214D02*
X127049460Y-100281214D01*
X129860373Y-100010301D02*
X128194911Y-100010301D01*
X127049460Y-100281214D02*
X125756074Y-101574600D01*
X136347200Y-95910400D02*
X133848497Y-98409103D01*
X126145000Y-131507117D02*
X125730000Y-131922117D01*
X125095000Y-143510000D02*
X125095000Y-158750000D01*
X133848497Y-98409103D02*
X132528371Y-98409103D01*
X125095000Y-135001000D02*
X125095000Y-143510000D01*
%TO.N,Net-(J1-Pin_23)*%
X131211609Y-99302307D02*
X132404314Y-98109602D01*
X129736316Y-99710800D02*
X130144809Y-99302307D01*
X133411398Y-98109602D02*
X135712200Y-95808800D01*
X123225000Y-132045000D02*
X123225000Y-142840000D01*
X127799941Y-99981713D02*
X128070854Y-99710800D01*
X124013398Y-100141602D02*
X126765514Y-100141602D01*
X126765514Y-100141602D02*
X126925403Y-99981713D01*
X123698000Y-116713000D02*
X123698000Y-131572000D01*
X122555000Y-115570000D02*
X123698000Y-116713000D01*
X132404314Y-98109602D02*
X133411398Y-98109602D01*
X122580400Y-101574600D02*
X124013398Y-100141602D01*
X123698000Y-131572000D02*
X123225000Y-132045000D01*
X123225000Y-142840000D02*
X122555000Y-143510000D01*
X128070854Y-99710800D02*
X129736316Y-99710800D01*
X130144809Y-99302307D02*
X131211609Y-99302307D01*
X126925403Y-99981713D02*
X127799941Y-99981713D01*
%TO.N,Net-(J1-Pin_22)*%
X120650000Y-142875000D02*
X120015000Y-143510000D01*
X120015000Y-115570000D02*
X121065000Y-116620000D01*
X121065000Y-131507117D02*
X120650000Y-131922117D01*
X121065000Y-116620000D02*
X121065000Y-131507117D01*
X120650000Y-131922117D02*
X120650000Y-142875000D01*
%TO.N,Net-(J1-Pin_21)*%
X118110000Y-142875000D02*
X117475000Y-143510000D01*
X118110000Y-132114000D02*
X118110000Y-142875000D01*
X117475000Y-115570000D02*
X118525000Y-116620000D01*
X118525000Y-131699000D02*
X118110000Y-132114000D01*
X118525000Y-116620000D02*
X118525000Y-131699000D01*
%TO.N,Net-(J1-Pin_20)*%
X129612259Y-99411299D02*
X127946797Y-99411299D01*
X126271395Y-99842101D02*
X119984301Y-99842101D01*
X127946797Y-99411299D02*
X127675884Y-99682212D01*
X117424200Y-97282000D02*
X117678200Y-97536000D01*
X114960400Y-99288600D02*
X116967000Y-97282000D01*
X127675884Y-99682212D02*
X126431284Y-99682212D01*
X115985000Y-131507117D02*
X115570000Y-131922117D01*
X115570000Y-142875000D02*
X114935000Y-143510000D01*
X133497101Y-96771059D02*
X132483457Y-97784701D01*
X132305657Y-97784701D02*
X131087552Y-99002806D01*
X115570000Y-131922117D02*
X115570000Y-142875000D01*
X131087552Y-99002806D02*
X130020752Y-99002806D01*
X114960400Y-100711000D02*
X114960400Y-99288600D01*
X126431284Y-99682212D02*
X126271395Y-99842101D01*
X114935000Y-115570000D02*
X115985000Y-116620000D01*
X119984301Y-99842101D02*
X117678200Y-97536000D01*
X130020752Y-99002806D02*
X129612259Y-99411299D01*
X116967000Y-97282000D02*
X117424200Y-97282000D01*
X115985000Y-116620000D02*
X115985000Y-131507117D01*
X132483457Y-97784701D02*
X132305657Y-97784701D01*
%TO.N,Net-(J1-Pin_19)*%
X126183170Y-99083210D02*
X127427770Y-99083210D01*
X116052600Y-96824800D02*
X116250501Y-96626899D01*
X113030000Y-131922117D02*
X113030000Y-142875000D01*
X112420400Y-101574600D02*
X112420400Y-100981484D01*
X130966604Y-97646433D02*
X130966604Y-97209838D01*
X130209233Y-98403804D02*
X130966604Y-97646433D01*
X117801551Y-96626899D02*
X120381753Y-99207101D01*
X132494642Y-95681800D02*
X133223000Y-95681800D01*
X116052600Y-97028000D02*
X116052600Y-96824800D01*
X113030000Y-142875000D02*
X112395000Y-143510000D01*
X112395000Y-115570000D02*
X113445000Y-116620000D01*
X115824000Y-97256600D02*
X116052600Y-97028000D01*
X130966604Y-97209838D02*
X132494642Y-95681800D01*
X126059279Y-99207101D02*
X126183170Y-99083210D01*
X120381753Y-99207101D02*
X126059279Y-99207101D01*
X113445000Y-131507117D02*
X113030000Y-131922117D01*
X113445000Y-116620000D02*
X113445000Y-131507117D01*
X115824000Y-97577884D02*
X115824000Y-97256600D01*
X112420400Y-100981484D02*
X115824000Y-97577884D01*
X116250501Y-96626899D02*
X117801551Y-96626899D01*
X128107176Y-98403804D02*
X130209233Y-98403804D01*
X127427770Y-99083210D02*
X128107176Y-98403804D01*
%TO.N,Net-(J1-Pin_18)*%
X127983119Y-98104303D02*
X130085176Y-98104303D01*
X113075501Y-98379499D02*
X114421701Y-98379499D01*
X130085176Y-98104303D02*
X130667103Y-97522376D01*
X125935222Y-98907600D02*
X126059113Y-98783709D01*
X110905000Y-116620000D02*
X110905000Y-131507117D01*
X131089400Y-96545400D02*
X132308600Y-95326200D01*
X127303713Y-98783709D02*
X127983119Y-98104303D01*
X120506516Y-98907600D02*
X125935222Y-98907600D01*
X117926314Y-96327398D02*
X120506516Y-98907600D01*
X109880400Y-101574600D02*
X113075501Y-98379499D01*
X130667103Y-97522376D02*
X130667103Y-96781655D01*
X114421701Y-98379499D02*
X115392200Y-97409000D01*
X109855000Y-115570000D02*
X110905000Y-116620000D01*
X110490000Y-131922117D02*
X110490000Y-134793500D01*
X109855000Y-135428500D02*
X109855000Y-143510000D01*
X115392200Y-96697800D02*
X115762602Y-96327398D01*
X126059113Y-98783709D02*
X127303713Y-98783709D01*
X132308600Y-95326200D02*
X132308600Y-95250000D01*
X110490000Y-134793500D02*
X109855000Y-135428500D01*
X130667103Y-96781655D02*
X130903358Y-96545400D01*
X130903358Y-96545400D02*
X131089400Y-96545400D01*
X110905000Y-131507117D02*
X110490000Y-131922117D01*
X115762602Y-96327398D02*
X117926314Y-96327398D01*
X115392200Y-97409000D02*
X115392200Y-96697800D01*
%TO.N,Net-(J1-Pin_17)*%
X107340400Y-101574600D02*
X110835002Y-98079998D01*
X125935056Y-98484208D02*
X127179656Y-98484208D01*
X118050371Y-96027897D02*
X120630573Y-98608099D01*
X108712000Y-116967000D02*
X108712000Y-131160117D01*
X127179656Y-98484208D02*
X127859062Y-97804802D01*
X125811165Y-98608099D02*
X125935056Y-98484208D01*
X130367602Y-97398319D02*
X130367602Y-96657598D01*
X107950000Y-131922117D02*
X107950000Y-142875000D01*
X107315000Y-115570000D02*
X108712000Y-116967000D01*
X114427000Y-97256600D02*
X114427000Y-97214042D01*
X114427000Y-97214042D02*
X115613145Y-96027897D01*
X110835002Y-98079998D02*
X113603602Y-98079998D01*
X107950000Y-142875000D02*
X107315000Y-143510000D01*
X129961119Y-97804802D02*
X130367602Y-97398319D01*
X108712000Y-131160117D02*
X107950000Y-131922117D01*
X130367602Y-96657598D02*
X131673600Y-95351600D01*
X115613145Y-96027897D02*
X118050371Y-96027897D01*
X113603602Y-98079998D02*
X114427000Y-97256600D01*
X120630573Y-98608099D02*
X125811165Y-98608099D01*
X127859062Y-97804802D02*
X129961119Y-97804802D01*
%TO.N,Net-(J1-Pin_16)*%
X105825000Y-116620000D02*
X105825000Y-131507117D01*
X127735005Y-97505301D02*
X129837062Y-97505301D01*
X106930383Y-99816701D02*
X108277257Y-99816701D01*
X120754630Y-98308598D02*
X125687108Y-98308598D01*
X116195576Y-95478600D02*
X116445372Y-95728396D01*
X105410000Y-142875000D02*
X104775000Y-143510000D01*
X110481758Y-97612200D02*
X113461800Y-97612200D01*
X108277257Y-99816701D02*
X110481758Y-97612200D01*
X105172484Y-101574600D02*
X106930383Y-99816701D01*
X105825000Y-131507117D02*
X105410000Y-131922117D01*
X105410000Y-131922117D02*
X105410000Y-142875000D01*
X116445372Y-95728396D02*
X118174428Y-95728396D01*
X127055599Y-98184707D02*
X127735005Y-97505301D01*
X125810999Y-98184707D02*
X127055599Y-98184707D01*
X129837062Y-97505301D02*
X130068101Y-97274262D01*
X113753900Y-97320100D02*
X115595400Y-95478600D01*
X131038600Y-95469684D02*
X131038600Y-95377000D01*
X125687108Y-98308598D02*
X125810999Y-98184707D01*
X113461800Y-97612200D02*
X113753900Y-97320100D01*
X104775000Y-115570000D02*
X105825000Y-116620000D01*
X130068101Y-97274262D02*
X130068101Y-96440183D01*
X130068101Y-96440183D02*
X131038600Y-95469684D01*
X118174428Y-95728396D02*
X120754630Y-98308598D01*
X115595400Y-95478600D02*
X116195576Y-95478600D01*
%TO.N,Net-(J1-Pin_15)*%
X127610948Y-97205800D02*
X129713005Y-97205800D01*
X129713005Y-97205800D02*
X129743200Y-97175605D01*
X102235000Y-115570000D02*
X103285000Y-116620000D01*
X129743200Y-96164400D02*
X129794000Y-96113600D01*
X102835000Y-132115000D02*
X102835000Y-142910000D01*
X120886929Y-98009097D02*
X125563051Y-98009097D01*
X129743200Y-97175605D02*
X129743200Y-96164400D01*
X103285000Y-116620000D02*
X103285000Y-131665000D01*
X112979200Y-94691200D02*
X117569032Y-94691200D01*
X125563051Y-98009097D02*
X125686942Y-97885206D01*
X103285000Y-131665000D02*
X102835000Y-132115000D01*
X104304093Y-99530907D02*
X106176799Y-99530907D01*
X125686942Y-97885206D02*
X126931542Y-97885206D01*
X106176799Y-99530907D02*
X106317506Y-99390200D01*
X102835000Y-142910000D02*
X102235000Y-143510000D01*
X106317506Y-99390200D02*
X108280200Y-99390200D01*
X126931542Y-97885206D02*
X127610948Y-97205800D01*
X117569032Y-94691200D02*
X120886929Y-98009097D01*
X108280200Y-99390200D02*
X112979200Y-94691200D01*
X102260400Y-101574600D02*
X104304093Y-99530907D01*
%TO.N,Net-(J1-Pin_14)*%
X125562885Y-97585705D02*
X125438994Y-97709596D01*
X99695000Y-115570000D02*
X100745000Y-116620000D01*
X103230899Y-99448313D02*
X103447806Y-99231406D01*
X100745000Y-131507117D02*
X100330000Y-131922117D01*
X107817701Y-99090699D02*
X109448600Y-97459800D01*
X100745000Y-116620000D02*
X100745000Y-131507117D01*
X103447806Y-99231406D02*
X106052742Y-99231406D01*
X127703798Y-96689392D02*
X126807485Y-97585705D01*
X128362850Y-96689392D02*
X127703798Y-96689392D01*
X125438994Y-97709596D02*
X121010986Y-97709596D01*
X100330000Y-131922117D02*
X100330000Y-142875000D01*
X101846687Y-99448313D02*
X103230899Y-99448313D01*
X117540689Y-94239299D02*
X112669101Y-94239299D01*
X121010986Y-97709596D02*
X117540689Y-94239299D01*
X106052742Y-99231406D02*
X106193449Y-99090699D01*
X100330000Y-142875000D02*
X99695000Y-143510000D01*
X106193449Y-99090699D02*
X107817701Y-99090699D01*
X129768600Y-95283642D02*
X128362850Y-96689392D01*
X112669101Y-94239299D02*
X109448600Y-97459800D01*
X99720400Y-101574600D02*
X101846687Y-99448313D01*
X126807485Y-97585705D02*
X125562885Y-97585705D01*
X129768600Y-95250000D02*
X129768600Y-95283642D01*
%TO.N,Net-(J1-Pin_13)*%
X103051672Y-99148812D02*
X103268579Y-98931905D01*
X94792800Y-96393000D02*
X95298104Y-96393000D01*
X117507230Y-93776800D02*
X112522000Y-93776800D01*
X97790000Y-142875000D02*
X97155000Y-143510000D01*
X103268579Y-98931905D02*
X105928685Y-98931905D01*
X121140525Y-97410095D02*
X117507230Y-93776800D01*
X98204999Y-116619999D02*
X98204999Y-131919001D01*
X125438828Y-97286204D02*
X125314937Y-97410095D01*
X112522000Y-93776800D02*
X109334300Y-96964500D01*
X105928685Y-98931905D02*
X106069392Y-98791198D01*
X129108200Y-95326200D02*
X129108200Y-95402400D01*
X128120709Y-96389891D02*
X127579741Y-96389891D01*
X107152002Y-98791198D02*
X108978700Y-96964500D01*
X98204999Y-131919001D02*
X97790000Y-132334000D01*
X95298104Y-96393000D02*
X98053916Y-99148812D01*
X127579741Y-96389891D02*
X126683428Y-97286204D01*
X108978700Y-96964500D02*
X109334300Y-96964500D01*
X125314937Y-97410095D02*
X121140525Y-97410095D01*
X98053916Y-99148812D02*
X103051672Y-99148812D01*
X126683428Y-97286204D02*
X125438828Y-97286204D01*
X106069392Y-98791198D02*
X107152002Y-98791198D01*
X97155000Y-115570000D02*
X98204999Y-116619999D01*
X97790000Y-132334000D02*
X97790000Y-142875000D01*
X129108200Y-95402400D02*
X128120709Y-96389891D01*
%TO.N,Net-(J1-Pin_12)*%
X106520619Y-98491697D02*
X106764021Y-98248295D01*
X94259400Y-96393000D02*
X94259400Y-95300800D01*
X125190880Y-97110594D02*
X121265288Y-97110594D01*
X128600200Y-95478600D02*
X127988410Y-96090390D01*
X95665000Y-116620000D02*
X95665000Y-131826000D01*
X121265288Y-97110594D02*
X117631993Y-93477299D01*
X125314771Y-96986703D02*
X125190880Y-97110594D01*
X107136105Y-98248295D02*
X108813600Y-96570800D01*
X127455684Y-96090390D02*
X126559371Y-96986703D01*
X98177973Y-98849311D02*
X102927615Y-98849311D01*
X94269998Y-95290202D02*
X94618864Y-95290202D01*
X126559371Y-96986703D02*
X125314771Y-96986703D01*
X103144522Y-98632404D02*
X105804628Y-98632404D01*
X105804628Y-98632404D02*
X105945335Y-98491697D01*
X106764021Y-98248295D02*
X107136105Y-98248295D01*
X94259400Y-95300800D02*
X94269998Y-95290202D01*
X102927615Y-98849311D02*
X103144522Y-98632404D01*
X94615000Y-115570000D02*
X95665000Y-116620000D01*
X95215000Y-134655000D02*
X94615000Y-135255000D01*
X111907101Y-93477299D02*
X108813600Y-96570800D01*
X94615000Y-135255000D02*
X94615000Y-143510000D01*
X128600200Y-95275400D02*
X128600200Y-95478600D01*
X117631993Y-93477299D02*
X111907101Y-93477299D01*
X127988410Y-96090390D02*
X127455684Y-96090390D01*
X95665000Y-131826000D02*
X95215000Y-132276000D01*
X95215000Y-132276000D02*
X95215000Y-134655000D01*
X105945335Y-98491697D02*
X106520619Y-98491697D01*
X94618864Y-95290202D02*
X98177973Y-98849311D01*
%TO.N,Net-(J1-Pin_11)*%
X106780334Y-97948794D02*
X108422464Y-96306664D01*
X125190714Y-96687202D02*
X125066823Y-96811093D01*
X127192602Y-95790889D02*
X127192602Y-95929914D01*
X93726000Y-94990701D02*
X94742921Y-94990701D01*
X127678311Y-95790889D02*
X127192602Y-95790889D01*
X93132457Y-116627457D02*
X93132457Y-131931779D01*
X106396562Y-98192196D02*
X106639964Y-97948794D01*
X93132457Y-131931779D02*
X92710000Y-132354236D01*
X111551330Y-93177798D02*
X108422464Y-96306664D01*
X128092200Y-95377000D02*
X127678311Y-95790889D01*
X94742921Y-94990701D02*
X98085123Y-98332903D01*
X106639964Y-97948794D02*
X106780334Y-97948794D01*
X105821278Y-98192196D02*
X106396562Y-98192196D01*
X117756050Y-93177798D02*
X111551330Y-93177798D01*
X92075000Y-115570000D02*
X93132457Y-116627457D01*
X127192602Y-95929914D02*
X126435314Y-96687202D01*
X125066823Y-96811093D02*
X121389345Y-96811093D01*
X92710000Y-142875000D02*
X92075000Y-143510000D01*
X92710000Y-132354236D02*
X92710000Y-142875000D01*
X93726000Y-96316800D02*
X93726000Y-94990701D01*
X126435314Y-96687202D02*
X125190714Y-96687202D01*
X105680571Y-98332903D02*
X105821278Y-98192196D01*
X121389345Y-96811093D02*
X117756050Y-93177798D01*
X98085123Y-98332903D02*
X105680571Y-98332903D01*
%TO.N,Net-(J1-Pin_10)*%
X127228601Y-95267157D02*
X127228601Y-95224599D01*
X105556514Y-98033402D02*
X105697221Y-97892695D01*
X126893101Y-95602657D02*
X127228601Y-95267157D01*
X121514782Y-96511592D02*
X124942766Y-96511592D01*
X106120105Y-97892695D02*
X107784900Y-96227900D01*
X124942766Y-96511592D02*
X125066657Y-96387701D01*
X89535000Y-115570000D02*
X90585000Y-116620000D01*
X95063284Y-94691200D02*
X98405486Y-98033402D01*
X107784900Y-96227900D02*
X111201200Y-92811600D01*
X93141800Y-94979516D02*
X93430116Y-94691200D01*
X90585000Y-131507117D02*
X90170000Y-131922117D01*
X125066657Y-96387701D02*
X126311257Y-96387701D01*
X117814790Y-92811600D02*
X121514782Y-96511592D01*
X105697221Y-97892695D02*
X106120105Y-97892695D01*
X90170000Y-131922117D02*
X90170000Y-142875000D01*
X111201200Y-92811600D02*
X117814790Y-92811600D01*
X98405486Y-98033402D02*
X105556514Y-98033402D01*
X90170000Y-142875000D02*
X89535000Y-143510000D01*
X126893101Y-95805857D02*
X126893101Y-95602657D01*
X90585000Y-116620000D02*
X90585000Y-131507117D01*
X126311257Y-96387701D02*
X126893101Y-95805857D01*
X93430116Y-94691200D02*
X95063284Y-94691200D01*
X93141800Y-96393000D02*
X93141800Y-94979516D01*
%TO.N,Net-(J1-Pin_9)*%
X106900359Y-96265999D02*
X106908599Y-96265999D01*
X124942600Y-96088200D02*
X126187200Y-96088200D01*
X92583000Y-96367600D02*
X92583000Y-95114758D01*
X110662499Y-92512099D02*
X118031531Y-92512099D01*
X92583000Y-95114758D02*
X93306059Y-94391699D01*
X86995000Y-115570000D02*
X88045000Y-116620000D01*
X86995000Y-143510000D02*
X86995000Y-158750000D01*
X106908599Y-96265999D02*
X110662499Y-92512099D01*
X121731523Y-96212091D02*
X124818709Y-96212091D01*
X98529543Y-97733901D02*
X105432457Y-97733901D01*
X126187200Y-96088200D02*
X126593600Y-95681800D01*
X88045000Y-131939236D02*
X87630000Y-132354236D01*
X87630000Y-142875000D02*
X86995000Y-143510000D01*
X118031531Y-92512099D02*
X121731523Y-96212091D01*
X87630000Y-132354236D02*
X87630000Y-142875000D01*
X124818709Y-96212091D02*
X124942600Y-96088200D01*
X126593600Y-95681800D02*
X126593600Y-95097600D01*
X95187341Y-94391699D02*
X98529543Y-97733901D01*
X105432457Y-97733901D02*
X106900359Y-96265999D01*
X88045000Y-116620000D02*
X88045000Y-131939236D01*
X93306059Y-94391699D02*
X95187341Y-94391699D01*
%TO.N,Net-(J1-Pin_8)*%
X84455000Y-143510000D02*
X84455000Y-158750000D01*
X85090000Y-131922117D02*
X85090000Y-142875000D01*
X85090000Y-142875000D02*
X84455000Y-143510000D01*
X98653600Y-97434400D02*
X105059699Y-97434400D01*
X92049600Y-95224600D02*
X93243400Y-94030800D01*
X95250000Y-94030800D02*
X98653600Y-97434400D01*
X105059699Y-97434400D02*
X106329699Y-96164400D01*
X92049600Y-96393000D02*
X92049600Y-95224600D01*
X125984000Y-95097600D02*
X123098998Y-92212598D01*
X85505000Y-131507117D02*
X85090000Y-131922117D01*
X93243400Y-94030800D02*
X95250000Y-94030800D01*
X84455000Y-115570000D02*
X85505000Y-116620000D01*
X123098998Y-92212598D02*
X110281501Y-92212598D01*
X85505000Y-116620000D02*
X85505000Y-131507117D01*
X110281501Y-92212598D02*
X106329699Y-96164400D01*
%TO.N,Net-(J1-Pin_7)*%
X79451200Y-95783400D02*
X78867000Y-96367600D01*
X82981800Y-131673600D02*
X82585000Y-132070400D01*
X98828457Y-97109499D02*
X104769701Y-97109499D01*
X90793903Y-97267697D02*
X88445655Y-97267697D01*
X82585000Y-142840000D02*
X81915000Y-143510000D01*
X91567000Y-96393000D02*
X91567000Y-95258242D01*
X81915000Y-143510000D02*
X81915000Y-158750000D01*
X95450257Y-93731299D02*
X98828457Y-97109499D01*
X86961358Y-95783400D02*
X79451200Y-95783400D01*
X91567000Y-95258242D02*
X93093943Y-93731299D01*
X91567000Y-96494600D02*
X90793903Y-97267697D01*
X88445655Y-97267697D02*
X86961358Y-95783400D01*
X81915000Y-115570000D02*
X82964999Y-116619999D01*
X82964999Y-116619999D02*
X82964999Y-131656799D01*
X82585000Y-132070400D02*
X82585000Y-142840000D01*
X93093943Y-93731299D02*
X95450257Y-93731299D01*
X104769701Y-97109499D02*
X105651300Y-96227900D01*
X82964999Y-131656799D02*
X82981800Y-131673600D01*
X91567000Y-96393000D02*
X91567000Y-96494600D01*
%TO.N,Net-(J1-Pin_6)*%
X79375000Y-135607918D02*
X79375000Y-143510000D01*
X104425286Y-96809998D02*
X105438917Y-95796367D01*
X77947301Y-95483899D02*
X77063600Y-96367600D01*
X79375000Y-115570000D02*
X80425000Y-116620000D01*
X80010000Y-134972918D02*
X79375000Y-135607918D01*
X90982800Y-96393000D02*
X90982800Y-96528242D01*
X90982800Y-96393000D02*
X90982800Y-95418884D01*
X80425000Y-131507117D02*
X80010000Y-131922117D01*
X90542846Y-96968196D02*
X88595112Y-96968196D01*
X79375000Y-143510000D02*
X79375000Y-158750000D01*
X88595112Y-96968196D02*
X87110815Y-95483899D01*
X90982800Y-95418884D02*
X92969886Y-93431798D01*
X92969886Y-93431798D02*
X95574314Y-93431798D01*
X80425000Y-116620000D02*
X80425000Y-131507117D01*
X98952514Y-96809998D02*
X104425286Y-96809998D01*
X80010000Y-131922117D02*
X80010000Y-134972918D01*
X87110815Y-95483899D02*
X77947301Y-95483899D01*
X90982800Y-96528242D02*
X90542846Y-96968196D01*
X95574314Y-93431798D02*
X98952514Y-96809998D01*
X105438917Y-95796367D02*
X105473767Y-95796367D01*
%TO.N,Net-(J1-Pin_5)*%
X77470000Y-142875000D02*
X76835000Y-143510000D01*
X95698371Y-93132297D02*
X99076571Y-96510497D01*
X77470000Y-132207000D02*
X77470000Y-142875000D01*
X77884999Y-131758399D02*
X77901800Y-131775200D01*
X77884999Y-116619999D02*
X77884999Y-131758399D01*
X77901800Y-131775200D02*
X77470000Y-132207000D01*
X99076571Y-96510497D02*
X104149503Y-96510497D01*
X90398600Y-96469200D02*
X90398600Y-95189610D01*
X104149503Y-96510497D02*
X105283000Y-95377000D01*
X76835000Y-115570000D02*
X77884999Y-116619999D01*
X76835000Y-143510000D02*
X76835000Y-158750000D01*
X90398600Y-95189610D02*
X92455913Y-93132297D01*
X92455913Y-93132297D02*
X95698371Y-93132297D01*
%TO.N,Net-(J1-Pin_4)*%
X75345000Y-131507117D02*
X74930000Y-131922117D01*
X92331856Y-92832796D02*
X95822428Y-92832796D01*
X74930000Y-131922117D02*
X74930000Y-142875000D01*
X95822428Y-92832796D02*
X99200628Y-96210996D01*
X74295000Y-158750000D02*
X74295000Y-143510000D01*
X74930000Y-142875000D02*
X74295000Y-143510000D01*
X103712404Y-96210996D02*
X104343200Y-95580200D01*
X89738200Y-95426452D02*
X92331856Y-92832796D01*
X75345000Y-116620000D02*
X75345000Y-131507117D01*
X89738200Y-96520000D02*
X89738200Y-95426452D01*
X74295000Y-115570000D02*
X75345000Y-116620000D01*
X99200628Y-96210996D02*
X103712404Y-96210996D01*
%TO.N,Net-(J1-Pin_3)*%
X72390000Y-139192000D02*
X72898000Y-139700000D01*
X71755000Y-143510000D02*
X71755000Y-158750000D01*
X103402305Y-95911495D02*
X104241600Y-95072200D01*
X89154000Y-95587094D02*
X92207799Y-92533295D01*
X72898000Y-139700000D02*
X72898000Y-142367000D01*
X92207799Y-92533295D02*
X95946485Y-92533295D01*
X99324685Y-95911495D02*
X103402305Y-95911495D01*
X95946485Y-92533295D02*
X99324685Y-95911495D01*
X89154000Y-96342200D02*
X89154000Y-95587094D01*
X72805000Y-116620000D02*
X72805000Y-131919000D01*
X71755000Y-115570000D02*
X72805000Y-116620000D01*
X72898000Y-142367000D02*
X71755000Y-143510000D01*
X72390000Y-132334000D02*
X72390000Y-139192000D01*
X72805000Y-131919000D02*
X72390000Y-132334000D01*
%TO.N,Net-(J1-Pin_2)*%
X70265000Y-131507117D02*
X69850000Y-131922117D01*
X88646000Y-95986600D02*
X88646000Y-95671536D01*
X88646000Y-95671536D02*
X92083742Y-92233794D01*
X103091530Y-95611994D02*
X104190800Y-94512724D01*
X96070542Y-92233794D02*
X99448742Y-95611994D01*
X69215000Y-158750000D02*
X69215000Y-143510000D01*
X70265000Y-116620000D02*
X70265000Y-131507117D01*
X69215000Y-115570000D02*
X70265000Y-116620000D01*
X69850000Y-131922117D02*
X69850000Y-142875000D01*
X92083742Y-92233794D02*
X96070542Y-92233794D01*
X99448742Y-95611994D02*
X103091530Y-95611994D01*
X69850000Y-142875000D02*
X69215000Y-143510000D01*
%TO.N,Net-(J1-Pin_1)*%
X66675000Y-143510000D02*
X66675000Y-158750000D01*
X67716400Y-116611400D02*
X67716400Y-120191400D01*
X87833200Y-95605600D02*
X91529907Y-91908893D01*
X67310000Y-132334000D02*
X67310000Y-142875000D01*
X67310000Y-142875000D02*
X66675000Y-143510000D01*
X67725000Y-120200000D02*
X67725000Y-131919000D01*
X66675000Y-115570000D02*
X67716400Y-116611400D01*
X67716400Y-120191400D02*
X67725000Y-120200000D01*
X91529907Y-91908893D02*
X101433893Y-91908893D01*
X101433893Y-91908893D02*
X103809800Y-94284800D01*
X67725000Y-131919000D02*
X67310000Y-132334000D01*
%TO.N,Net-(J10-Pin_9)*%
X117449600Y-98374200D02*
X117449600Y-97967800D01*
X118965000Y-119600000D02*
X118965000Y-104133528D01*
X118719600Y-102082600D02*
X118719600Y-99644200D01*
X119345000Y-103753528D02*
X119345000Y-102708000D01*
X120015000Y-120650000D02*
X118965000Y-119600000D01*
X119380000Y-142494000D02*
X118872000Y-143002000D01*
X118872000Y-160147000D02*
X120015000Y-161290000D01*
X119380000Y-131445000D02*
X119380000Y-142494000D01*
X120015000Y-161290000D02*
X120015000Y-176530000D01*
X118719600Y-99644200D02*
X117449600Y-98374200D01*
X119345000Y-102708000D02*
X118719600Y-102082600D01*
X120015000Y-130810000D02*
X119380000Y-131445000D01*
X118965000Y-104133528D02*
X119345000Y-103753528D01*
X118872000Y-143002000D02*
X118872000Y-160147000D01*
%TO.N,Net-(J10-Pin_8)*%
X130768029Y-79282903D02*
X133638903Y-79282903D01*
X122555000Y-78003400D02*
X125753044Y-78003400D01*
X129864227Y-78379101D02*
X130768029Y-79282903D01*
X122580400Y-76200000D02*
X122555000Y-76225400D01*
X121158000Y-142494000D02*
X121158000Y-159893000D01*
X133638903Y-79282903D02*
X135712200Y-81356200D01*
X121158000Y-159893000D02*
X122555000Y-161290000D01*
X122555000Y-76225400D02*
X122555000Y-78003400D01*
X125758343Y-77998101D02*
X128027185Y-77998101D01*
X128027185Y-77998101D02*
X128408185Y-78379101D01*
X128408185Y-78379101D02*
X129864227Y-78379101D01*
X122555000Y-130810000D02*
X121955000Y-131410000D01*
X122555000Y-161290000D02*
X122555000Y-176530000D01*
X121955000Y-141697000D02*
X121158000Y-142494000D01*
X121955000Y-131410000D02*
X121955000Y-141697000D01*
X125753044Y-78003400D02*
X125758343Y-77998101D01*
%TO.N,Net-(J10-Pin_7)*%
X124460000Y-141544949D02*
X123698000Y-142306949D01*
X134076002Y-78983402D02*
X130892086Y-78983402D01*
X125882400Y-77698600D02*
X125120400Y-76936600D01*
X130109398Y-78200714D02*
X130109398Y-78175314D01*
X123698000Y-142306949D02*
X123698000Y-159893000D01*
X128202042Y-77698600D02*
X125882400Y-77698600D01*
X130109398Y-78175314D02*
X130008385Y-78074301D01*
X125095000Y-130810000D02*
X124460000Y-131445000D01*
X130008385Y-78074301D02*
X128577743Y-78074301D01*
X128577743Y-78074301D02*
X128202042Y-77698600D01*
X136347200Y-81407000D02*
X136347200Y-81254600D01*
X125120400Y-76936600D02*
X125120400Y-76200000D01*
X130892086Y-78983402D02*
X130109398Y-78200714D01*
X125095000Y-161290000D02*
X125095000Y-176530000D01*
X124460000Y-131445000D02*
X124460000Y-141544949D01*
X123698000Y-159893000D02*
X125095000Y-161290000D01*
X136347200Y-81254600D02*
X134076002Y-78983402D01*
%TO.N,Net-(J10-Pin_6)*%
X128701800Y-77774800D02*
X127889000Y-76962000D01*
X127000000Y-134972918D02*
X127215000Y-135187918D01*
X127889000Y-76962000D02*
X127889000Y-76428600D01*
X131042249Y-78683901D02*
X130133148Y-77774800D01*
X127215000Y-141771000D02*
X126492000Y-142494000D01*
X134318143Y-78683901D02*
X131042249Y-78683901D01*
X136855200Y-81457800D02*
X136855200Y-81220958D01*
X127889000Y-76428600D02*
X127660400Y-76200000D01*
X127215000Y-135187918D02*
X127215000Y-141771000D01*
X126492000Y-160147000D02*
X127635000Y-161290000D01*
X127635000Y-161290000D02*
X127635000Y-176530000D01*
X127000000Y-131445000D02*
X127000000Y-134972918D01*
X136855200Y-81220958D02*
X134318143Y-78683901D01*
X130133148Y-77774800D02*
X128701800Y-77774800D01*
X127635000Y-130810000D02*
X127000000Y-131445000D01*
X126492000Y-142494000D02*
X126492000Y-160147000D01*
%TO.N,Net-(J10-Pin_5)*%
X137337800Y-81280000D02*
X137337800Y-81279294D01*
X137337800Y-81279294D02*
X134442906Y-78384400D01*
X131166306Y-78384400D02*
X130200400Y-77418494D01*
X134442906Y-78384400D02*
X131166306Y-78384400D01*
X129032000Y-160147000D02*
X130175000Y-161290000D01*
X129032000Y-143002000D02*
X129032000Y-160147000D01*
X129505000Y-131480000D02*
X129505000Y-142529000D01*
X130200400Y-77418494D02*
X130200400Y-76200000D01*
X130175000Y-161290000D02*
X130175000Y-176530000D01*
X130175000Y-130810000D02*
X129505000Y-131480000D01*
X129505000Y-142529000D02*
X129032000Y-143002000D01*
%TO.N,Net-(J10-Pin_4)*%
X132115000Y-137887000D02*
X131572000Y-138430000D01*
X131572000Y-138430000D02*
X131572000Y-160147000D01*
X138328400Y-81127600D02*
X135178800Y-77978000D01*
X132816600Y-77978000D02*
X132816600Y-75666600D01*
X132715000Y-161290000D02*
X132715000Y-176530000D01*
X132115000Y-131410000D02*
X132115000Y-137887000D01*
X135178800Y-77978000D02*
X132816600Y-77978000D01*
X131572000Y-160147000D02*
X132715000Y-161290000D01*
X132715000Y-130810000D02*
X132115000Y-131410000D01*
%TO.N,Net-(J10-Pin_30)*%
X66548000Y-142240000D02*
X65532000Y-143256000D01*
X66675000Y-161290000D02*
X66675000Y-176530000D01*
X65625000Y-119600000D02*
X65625000Y-104133528D01*
X66675000Y-120650000D02*
X65625000Y-119600000D01*
X65625000Y-102876472D02*
X65625000Y-101158600D01*
X65532000Y-143256000D02*
X65532000Y-160147000D01*
X66005000Y-103256472D02*
X65625000Y-102876472D01*
X65625000Y-101158600D02*
X65633600Y-101150000D01*
X66040000Y-131445000D02*
X66040000Y-134415459D01*
X66040000Y-134415459D02*
X66548000Y-134923459D01*
X101078293Y-85484707D02*
X103886000Y-82677000D01*
X65633600Y-94812654D02*
X62585600Y-91764654D01*
X91758507Y-85484707D02*
X101078293Y-85484707D01*
X65633600Y-101150000D02*
X65633600Y-94812654D01*
X66005000Y-103753528D02*
X66005000Y-103256472D01*
X65625000Y-104133528D02*
X66005000Y-103753528D01*
X65532000Y-160147000D02*
X66675000Y-161290000D01*
X87833200Y-81559400D02*
X91758507Y-85484707D01*
X62585600Y-91764654D02*
X62585600Y-77749400D01*
X66548000Y-134923459D02*
X66548000Y-142240000D01*
X66675000Y-130810000D02*
X66040000Y-131445000D01*
X62585600Y-77749400D02*
X64744600Y-75590400D01*
%TO.N,Net-(J10-Pin_3)*%
X138988800Y-80848200D02*
X135236466Y-77095866D01*
X138988800Y-81280000D02*
X138988800Y-80848200D01*
X133858000Y-136652000D02*
X133858000Y-159893000D01*
X134655000Y-135855000D02*
X133858000Y-136652000D01*
X138861800Y-81694642D02*
X138861800Y-81407000D01*
X135255000Y-161290000D02*
X135255000Y-176530000D01*
X133858000Y-159893000D02*
X135255000Y-161290000D01*
X134467600Y-95377000D02*
X138409899Y-91434701D01*
X138861800Y-81407000D02*
X138988800Y-81280000D01*
X138409899Y-91434701D02*
X138409899Y-82146543D01*
X134655000Y-131410000D02*
X134655000Y-135855000D01*
X138409899Y-82146543D02*
X138861800Y-81694642D01*
X135255000Y-130810000D02*
X134655000Y-131410000D01*
%TO.N,Net-(J10-Pin_29)*%
X69215000Y-161290000D02*
X69215000Y-176530000D01*
X68165000Y-101108012D02*
X68199000Y-101074012D01*
X62885101Y-91640597D02*
X62885101Y-78059499D01*
X68072000Y-160147000D02*
X69215000Y-161290000D01*
X68545000Y-103753528D02*
X68545000Y-103256472D01*
X88646000Y-81178400D02*
X88646000Y-81662348D01*
X68545000Y-103256472D02*
X68165000Y-102876472D01*
X68072000Y-141986000D02*
X68072000Y-160147000D01*
X68165000Y-119600000D02*
X68165000Y-104133528D01*
X100007542Y-81680006D02*
X103338972Y-81680006D01*
X69215000Y-120650000D02*
X68165000Y-119600000D01*
X88646000Y-81662348D02*
X92168858Y-85185206D01*
X68615000Y-141443000D02*
X68072000Y-141986000D01*
X103338972Y-81680006D02*
X103827966Y-82169000D01*
X92168858Y-85185206D02*
X96680142Y-85185206D01*
X68199000Y-101074012D02*
X68199000Y-96954496D01*
X99739406Y-81948142D02*
X100007542Y-81680006D01*
X68615000Y-131410000D02*
X68615000Y-141443000D01*
X68165000Y-101108012D02*
X68165000Y-102876472D01*
X96680142Y-85185206D02*
X99739406Y-82125942D01*
X99739406Y-82125942D02*
X99739406Y-81948142D01*
X68199000Y-96954496D02*
X62885101Y-91640597D01*
X69215000Y-130810000D02*
X68615000Y-131410000D01*
X68165000Y-104133528D02*
X68545000Y-103753528D01*
X103827966Y-82169000D02*
X103910986Y-82169000D01*
X62885101Y-78059499D02*
X64693800Y-76250800D01*
%TO.N,Net-(J10-Pin_28)*%
X63184602Y-91516540D02*
X63184602Y-78369598D01*
X70612000Y-119507000D02*
X70612000Y-104805883D01*
X71085000Y-104332883D02*
X71085000Y-103256472D01*
X103463029Y-81380505D02*
X103743524Y-81661000D01*
X99883485Y-81380505D02*
X103463029Y-81380505D01*
X71755000Y-176530000D02*
X71755000Y-161290000D01*
X96556085Y-84885705D02*
X99439905Y-82001885D01*
X70372715Y-102544187D02*
X70372715Y-98704653D01*
X71085000Y-103256472D02*
X70372715Y-102544187D01*
X99439905Y-82001885D02*
X99439905Y-81824085D01*
X63184602Y-78369598D02*
X64617600Y-76936600D01*
X103743524Y-81661000D02*
X104038400Y-81661000D01*
X71120000Y-135093000D02*
X71566000Y-135539000D01*
X92292915Y-84885705D02*
X96556085Y-84885705D01*
X70612000Y-142240000D02*
X70612000Y-160147000D01*
X70612000Y-104805883D02*
X71085000Y-104332883D01*
X89154000Y-80822800D02*
X89154000Y-81746790D01*
X99439905Y-81824085D02*
X99883485Y-81380505D01*
X71566000Y-141286000D02*
X70612000Y-142240000D01*
X89154000Y-81746790D02*
X92292915Y-84885705D01*
X71755000Y-130810000D02*
X71120000Y-131445000D01*
X70372715Y-98704653D02*
X63184602Y-91516540D01*
X71120000Y-131445000D02*
X71120000Y-135093000D01*
X71755000Y-120650000D02*
X70612000Y-119507000D01*
X70612000Y-160147000D02*
X71755000Y-161290000D01*
X71566000Y-135539000D02*
X71566000Y-141286000D01*
%TO.N,Net-(J10-Pin_27)*%
X73241241Y-102832241D02*
X73241241Y-101149621D01*
X63484103Y-78679697D02*
X64617600Y-77546200D01*
X73660000Y-131445000D02*
X73660000Y-142494000D01*
X73660000Y-142494000D02*
X72898000Y-143256000D01*
X73152000Y-119507000D02*
X73152000Y-104775000D01*
X74295000Y-120650000D02*
X73152000Y-119507000D01*
X73152000Y-104775000D02*
X73625000Y-104302000D01*
X74295000Y-130810000D02*
X73660000Y-131445000D01*
X96432028Y-84586204D02*
X99140404Y-81877828D01*
X89738200Y-80645000D02*
X89738200Y-81907432D01*
X63484103Y-91392483D02*
X63484103Y-78679697D01*
X92416972Y-84586204D02*
X96432028Y-84586204D01*
X103735282Y-81229200D02*
X104374434Y-81229200D01*
X73625000Y-104302000D02*
X73625000Y-103216000D01*
X99784828Y-81055604D02*
X103561686Y-81055604D01*
X72898000Y-159893000D02*
X74295000Y-161290000D01*
X99140404Y-81700028D02*
X99784828Y-81055604D01*
X72898000Y-143256000D02*
X72898000Y-159893000D01*
X74295000Y-161290000D02*
X74295000Y-176530000D01*
X99140404Y-81877828D02*
X99140404Y-81700028D01*
X73625000Y-103216000D02*
X73241241Y-102832241D01*
X73241241Y-101149621D02*
X63484103Y-91392483D01*
X104374434Y-81229200D02*
X104476034Y-81330800D01*
X89738200Y-81907432D02*
X92416972Y-84586204D01*
X103561686Y-81055604D02*
X103735282Y-81229200D01*
%TO.N,Net-(J10-Pin_26)*%
X75692000Y-142748000D02*
X75692000Y-160147000D01*
X76200000Y-142240000D02*
X75692000Y-142748000D01*
X75777543Y-104720340D02*
X76165000Y-104332883D01*
X76835000Y-130810000D02*
X76200000Y-131445000D01*
X75692000Y-101092674D02*
X74888029Y-100288703D01*
X76835000Y-161290000D02*
X76835000Y-176530000D01*
X104659185Y-80893701D02*
X105388384Y-81622900D01*
X103823341Y-80893701D02*
X104659185Y-80893701D01*
X63783604Y-91268426D02*
X63783604Y-79091396D01*
X75777543Y-119592543D02*
X75777543Y-104720340D01*
X75692000Y-160147000D02*
X76835000Y-161290000D01*
X72803881Y-100288703D02*
X63783604Y-91268426D01*
X76835000Y-120650000D02*
X75777543Y-119592543D01*
X74888029Y-100288703D02*
X72803881Y-100288703D01*
X75692000Y-102783472D02*
X75692000Y-101092674D01*
X90398600Y-80695800D02*
X90398600Y-82144274D01*
X90398600Y-82144274D02*
X92541029Y-84286703D01*
X92541029Y-84286703D02*
X96130171Y-84286703D01*
X103685743Y-80756103D02*
X103823341Y-80893701D01*
X96130171Y-84286703D02*
X99660771Y-80756103D01*
X63783604Y-79091396D02*
X64668400Y-78206600D01*
X76165000Y-104332883D02*
X76165000Y-103256472D01*
X76165000Y-103256472D02*
X75692000Y-102783472D01*
X99660771Y-80756103D02*
X103685743Y-80756103D01*
X76200000Y-131445000D02*
X76200000Y-142240000D01*
X105388384Y-81622900D02*
X105448100Y-81622900D01*
%TO.N,Net-(J10-Pin_25)*%
X78325000Y-104248940D02*
X78705000Y-103868940D01*
X76971319Y-99989202D02*
X72927938Y-99989202D01*
X78232000Y-101249883D02*
X76971319Y-99989202D01*
X103947398Y-80594200D02*
X104783242Y-80594200D01*
X78325000Y-119600000D02*
X78325000Y-104248940D01*
X87110815Y-81681101D02*
X77820301Y-81681101D01*
X96006114Y-83987202D02*
X99536714Y-80456602D01*
X79375000Y-130810000D02*
X78740000Y-131445000D01*
X103809800Y-80456602D02*
X103947398Y-80594200D01*
X105608967Y-81173101D02*
X106058233Y-81622367D01*
X88595112Y-80196804D02*
X87110815Y-81681101D01*
X77978000Y-159893000D02*
X79375000Y-161290000D01*
X99536714Y-80456602D02*
X103809800Y-80456602D01*
X90982800Y-82304916D02*
X92665086Y-83987202D01*
X77978000Y-142748000D02*
X77978000Y-159893000D01*
X79375000Y-161290000D02*
X79375000Y-176530000D01*
X92665086Y-83987202D02*
X96006114Y-83987202D01*
X90542846Y-80196804D02*
X88595112Y-80196804D01*
X77820301Y-81681101D02*
X77063600Y-80924400D01*
X78705000Y-103256472D02*
X78232000Y-102783472D01*
X78705000Y-103868940D02*
X78705000Y-103256472D01*
X104783242Y-80594200D02*
X105362143Y-81173101D01*
X90982800Y-80772000D02*
X90982800Y-80636758D01*
X78232000Y-102783472D02*
X78232000Y-101249883D01*
X64083105Y-91144369D02*
X64083105Y-79426895D01*
X78740000Y-131445000D02*
X78740000Y-141986000D01*
X79375000Y-120650000D02*
X78325000Y-119600000D01*
X90982800Y-80772000D02*
X90982800Y-82304916D01*
X78740000Y-141986000D02*
X77978000Y-142748000D01*
X72927938Y-99989202D02*
X64083105Y-91144369D01*
X64083105Y-79426895D02*
X64643000Y-78867000D01*
X105362143Y-81173101D02*
X105608967Y-81173101D01*
X90982800Y-80636758D02*
X90542846Y-80196804D01*
%TO.N,Net-(J10-Pin_24)*%
X80518000Y-143510000D02*
X80518000Y-159893000D01*
X104066156Y-80289400D02*
X104902000Y-80289400D01*
X81495000Y-142533000D02*
X80518000Y-143510000D01*
X87484581Y-80883777D02*
X78955717Y-80883777D01*
X81245000Y-104332883D02*
X81245000Y-103216000D01*
X91567000Y-80772000D02*
X91567000Y-80755516D01*
X81915000Y-130810000D02*
X81315000Y-131410000D01*
X99412657Y-80157101D02*
X103933857Y-80157101D01*
X80857543Y-104720340D02*
X81245000Y-104332883D01*
X81315000Y-131410000D02*
X81315000Y-135007918D01*
X80645000Y-101122883D02*
X79211818Y-99689701D01*
X81245000Y-103216000D02*
X80645000Y-102616000D01*
X80645000Y-101122883D02*
X80645000Y-102616000D01*
X90708787Y-79897303D02*
X88471055Y-79897303D01*
X81495000Y-135187918D02*
X81495000Y-142533000D01*
X64382606Y-79762394D02*
X64566800Y-79578200D01*
X64382606Y-91020312D02*
X64382606Y-79762394D01*
X105486200Y-80873600D02*
X106019600Y-80873600D01*
X80518000Y-159893000D02*
X81915000Y-161290000D01*
X80857543Y-119592543D02*
X80857543Y-104720340D01*
X103933857Y-80157101D02*
X104066156Y-80289400D01*
X81315000Y-135007918D02*
X81495000Y-135187918D01*
X81915000Y-120650000D02*
X80857543Y-119592543D01*
X95882057Y-83687701D02*
X99412657Y-80157101D01*
X88471055Y-79897303D02*
X87484581Y-80883777D01*
X104902000Y-80289400D02*
X105486200Y-80873600D01*
X73051995Y-99689701D02*
X64382606Y-91020312D01*
X91567000Y-80772000D02*
X91567000Y-82465558D01*
X91567000Y-80755516D02*
X90708787Y-79897303D01*
X91567000Y-82465558D02*
X92789143Y-83687701D01*
X92789143Y-83687701D02*
X95882057Y-83687701D01*
X79211818Y-99689701D02*
X73051995Y-99689701D01*
X81915000Y-161290000D02*
X81915000Y-176530000D01*
%TO.N,Net-(J10-Pin_23)*%
X104601294Y-79989400D02*
X105770400Y-79989400D01*
X92075000Y-80594200D02*
X91770200Y-80289400D01*
X73176052Y-99390200D02*
X64682107Y-90896255D01*
X92075000Y-82550000D02*
X92913200Y-83388200D01*
X83185000Y-100838000D02*
X81737200Y-99390200D01*
X64682107Y-80148693D02*
X64871600Y-79959200D01*
X83312000Y-142494000D02*
X83312000Y-160147000D01*
X91524442Y-80289400D02*
X89563343Y-78328301D01*
X83820000Y-103291472D02*
X83185000Y-102656472D01*
X84455000Y-120650000D02*
X83405000Y-119600000D01*
X86896343Y-78328301D02*
X84768042Y-76200000D01*
X83405000Y-104712883D02*
X83820000Y-104297883D01*
X110419686Y-84952402D02*
X106451400Y-80984116D01*
X83405000Y-119600000D02*
X83405000Y-104712883D01*
X99314000Y-79832200D02*
X104444094Y-79832200D01*
X92075000Y-80873600D02*
X92075000Y-82550000D01*
X126238000Y-82296000D02*
X123581598Y-84952402D01*
X83785000Y-131480000D02*
X83785000Y-142021000D01*
X91770200Y-80289400D02*
X91524442Y-80289400D01*
X105770400Y-79989400D02*
X106451400Y-80670400D01*
X89563343Y-78328301D02*
X86896343Y-78328301D01*
X81737200Y-99390200D02*
X73176052Y-99390200D01*
X83185000Y-102656472D02*
X83185000Y-100838000D01*
X83312000Y-160147000D02*
X84455000Y-161290000D01*
X123581598Y-84952402D02*
X110419686Y-84952402D01*
X92075000Y-80873600D02*
X92075000Y-80594200D01*
X83785000Y-142021000D02*
X83312000Y-142494000D01*
X64682107Y-90896255D02*
X64682107Y-80148693D01*
X92913200Y-83388200D02*
X95758000Y-83388200D01*
X106451400Y-80984116D02*
X106451400Y-80670400D01*
X84455000Y-161290000D02*
X84455000Y-176530000D01*
X95758000Y-83388200D02*
X99314000Y-79832200D01*
X84768042Y-76200000D02*
X84480400Y-76200000D01*
X84455000Y-130810000D02*
X83785000Y-131480000D01*
X83820000Y-104297883D02*
X83820000Y-103291472D01*
X104444094Y-79832200D02*
X104601294Y-79989400D01*
%TO.N,Net-(J10-Pin_22)*%
X86334600Y-103266072D02*
X86334600Y-104323283D01*
X86995000Y-161290000D02*
X86995000Y-176530000D01*
X83764304Y-99089105D02*
X85928200Y-101253001D01*
X106892435Y-80315793D02*
X106892435Y-80822800D01*
X73298515Y-99089105D02*
X83764304Y-99089105D01*
X86395000Y-137633000D02*
X85852000Y-138176000D01*
X95873141Y-82773301D02*
X99113743Y-79532699D01*
X92583000Y-80424642D02*
X92148257Y-79989899D01*
X110722536Y-84652901D02*
X106892435Y-80822800D01*
X92583000Y-80797400D02*
X92583000Y-82380442D01*
X85928200Y-101253001D02*
X85928200Y-102859672D01*
X85902800Y-104755083D02*
X85902800Y-119557800D01*
X104568151Y-79532699D02*
X104601959Y-79566507D01*
X86995000Y-130810000D02*
X86395000Y-131410000D01*
X118031531Y-84652901D02*
X110722536Y-84652901D01*
X86334600Y-104323283D02*
X85902800Y-104755083D01*
X92583000Y-82380442D02*
X92975859Y-82773301D01*
X64981608Y-90772198D02*
X73298515Y-99089105D01*
X65125600Y-80441800D02*
X64981608Y-80585792D01*
X92975859Y-82773301D02*
X95873141Y-82773301D01*
X92583000Y-80797400D02*
X92583000Y-80424642D01*
X64981608Y-80585792D02*
X64981608Y-90772198D01*
X104601959Y-79566507D02*
X106143149Y-79566507D01*
X126466600Y-81737200D02*
X126365000Y-81635600D01*
X99113743Y-79532699D02*
X104568151Y-79532699D01*
X85902800Y-119557800D02*
X86995000Y-120650000D01*
X85852000Y-138176000D02*
X85852000Y-160147000D01*
X106143149Y-79566507D02*
X106892435Y-80315793D01*
X89687400Y-78028800D02*
X88849200Y-78028800D01*
X91648499Y-79989899D02*
X89687400Y-78028800D01*
X88849200Y-78028800D02*
X87020400Y-76200000D01*
X121048832Y-81635600D02*
X118031531Y-84652901D01*
X92148257Y-79989899D02*
X91648499Y-79989899D01*
X85928200Y-102859672D02*
X86334600Y-103266072D01*
X126365000Y-81635600D02*
X121048832Y-81635600D01*
X86395000Y-131410000D02*
X86395000Y-137633000D01*
X85852000Y-160147000D02*
X86995000Y-161290000D01*
%TO.N,Net-(J10-Pin_21)*%
X106267206Y-79267006D02*
X108165900Y-81165700D01*
X127076200Y-81788000D02*
X127076200Y-81722738D01*
X73422572Y-98789604D02*
X85931721Y-98789604D01*
X65281109Y-81175291D02*
X65281109Y-90648141D01*
X104286514Y-79233198D02*
X104692208Y-79233198D01*
X111201200Y-84353400D02*
X108165900Y-81318100D01*
X88900000Y-131445000D02*
X88900000Y-142240000D01*
X88485000Y-119600000D02*
X89535000Y-120650000D01*
X99015086Y-79207798D02*
X99714514Y-79207798D01*
X99728221Y-79221505D02*
X103598779Y-79221505D01*
X99714514Y-79207798D02*
X99728221Y-79221505D01*
X127076200Y-81722738D02*
X126658862Y-81305400D01*
X93226916Y-82473800D02*
X95749084Y-82473800D01*
X88417400Y-102285800D02*
X88935000Y-102803400D01*
X89535000Y-161290000D02*
X89535000Y-176530000D01*
X89535000Y-130810000D02*
X88900000Y-131445000D01*
X95749084Y-82473800D02*
X99015086Y-79207798D01*
X126658862Y-81305400D02*
X120955474Y-81305400D01*
X85931721Y-98789604D02*
X88417400Y-101275283D01*
X103598779Y-79221505D02*
X103612486Y-79207798D01*
X65582800Y-80873600D02*
X65281109Y-81175291D01*
X93141800Y-82388684D02*
X93226916Y-82473800D01*
X104726016Y-79267006D02*
X106267206Y-79267006D01*
X104692208Y-79233198D02*
X104726016Y-79267006D01*
X120955474Y-81305400D02*
X117907474Y-84353400D01*
X88935000Y-103922152D02*
X88485000Y-104372152D01*
X108165900Y-81165700D02*
X108165900Y-81318100D01*
X117907474Y-84353400D02*
X111201200Y-84353400D01*
X88392000Y-160147000D02*
X89535000Y-161290000D01*
X88417400Y-101275283D02*
X88417400Y-102285800D01*
X93141800Y-80356684D02*
X89560400Y-76775284D01*
X65281109Y-90648141D02*
X73422572Y-98789604D01*
X88935000Y-102803400D02*
X88935000Y-103922152D01*
X88900000Y-142240000D02*
X88392000Y-142748000D01*
X89560400Y-76775284D02*
X89560400Y-76200000D01*
X88485000Y-104372152D02*
X88485000Y-119600000D01*
X93141800Y-80772000D02*
X93141800Y-82388684D01*
X103612486Y-79207798D02*
X104261114Y-79207798D01*
X88392000Y-142748000D02*
X88392000Y-160147000D01*
X93141800Y-80772000D02*
X93141800Y-80356684D01*
X104261114Y-79207798D02*
X104286514Y-79233198D01*
%TO.N,Net-(J10-Pin_20)*%
X117756050Y-83987202D02*
X111546202Y-83987202D01*
X93726000Y-82174299D02*
X95548827Y-82174299D01*
X73546629Y-98490103D02*
X88172220Y-98490103D01*
X98865629Y-78933697D02*
X98891029Y-78908297D01*
X128092200Y-81788000D02*
X127678311Y-81374111D01*
X98789429Y-78933697D02*
X98865629Y-78933697D01*
X91405000Y-103231800D02*
X91405000Y-104327400D01*
X104501907Y-78933697D02*
X104816265Y-78933697D01*
X104490214Y-78922004D02*
X104501907Y-78933697D01*
X98891029Y-78908297D02*
X104385171Y-78908297D01*
X104398878Y-78922004D02*
X104490214Y-78922004D01*
X91475000Y-131410000D02*
X91475000Y-141697000D01*
X106391263Y-78967505D02*
X106645263Y-79221505D01*
X126777620Y-81000600D02*
X120742652Y-81000600D01*
X106645263Y-79221505D02*
X106780505Y-79221505D01*
X127131030Y-81354010D02*
X126777620Y-81000600D01*
X91008200Y-102835000D02*
X91405000Y-103231800D01*
X104816265Y-78933697D02*
X104850073Y-78967505D01*
X65580610Y-81485390D02*
X65580610Y-90524084D01*
X91405000Y-104327400D02*
X91025000Y-104707400D01*
X92100400Y-78257400D02*
X92100400Y-76200000D01*
X91008200Y-101326083D02*
X91008200Y-102835000D01*
X92075000Y-161290000D02*
X92075000Y-176530000D01*
X93726000Y-80848200D02*
X93726000Y-82174299D01*
X88172220Y-98490103D02*
X91008200Y-101326083D01*
X90932000Y-160147000D02*
X92075000Y-161290000D01*
X91475000Y-141697000D02*
X90932000Y-142240000D01*
X127184773Y-81374111D02*
X127164672Y-81354010D01*
X127164672Y-81354010D02*
X127131030Y-81354010D01*
X104385171Y-78908297D02*
X104398878Y-78922004D01*
X91025000Y-104707400D02*
X91025000Y-119600000D01*
X111546202Y-83987202D02*
X108585000Y-81026000D01*
X106780505Y-79221505D02*
X108585000Y-81026000D01*
X65735200Y-81330800D02*
X65580610Y-81485390D01*
X92075000Y-130810000D02*
X91475000Y-131410000D01*
X104850073Y-78967505D02*
X106391263Y-78967505D01*
X95548827Y-82174299D02*
X98789429Y-78933697D01*
X65580610Y-90524084D02*
X73546629Y-98490103D01*
X90932000Y-142240000D02*
X90932000Y-160147000D01*
X127678311Y-81374111D02*
X127184773Y-81374111D01*
X93726000Y-80848200D02*
X93726000Y-79883000D01*
X91025000Y-119600000D02*
X92075000Y-120650000D01*
X93726000Y-79883000D02*
X92100400Y-78257400D01*
X120742652Y-81000600D02*
X117756050Y-83987202D01*
%TO.N,Net-(J10-Pin_2)*%
X137795000Y-130810000D02*
X137160000Y-131445000D01*
X137160000Y-131445000D02*
X137160000Y-134366000D01*
X136652000Y-134874000D02*
X136652000Y-160147000D01*
X136652000Y-160147000D02*
X137795000Y-161290000D01*
X139446000Y-78714600D02*
X137820400Y-77089000D01*
X139446000Y-81076800D02*
X139446000Y-78714600D01*
X137795000Y-161290000D02*
X137795000Y-176530000D01*
X137160000Y-134366000D02*
X136652000Y-134874000D01*
X137744200Y-96012000D02*
X138709400Y-95046800D01*
X138709400Y-82270600D02*
X139446000Y-81534000D01*
X137058400Y-96951800D02*
X137744200Y-96266000D01*
X138709400Y-95046800D02*
X138709400Y-82270600D01*
X139446000Y-81534000D02*
X139446000Y-81076800D01*
X137744200Y-96266000D02*
X137744200Y-96012000D01*
%TO.N,Net-(J10-Pin_19)*%
X127275188Y-81074610D02*
X126900582Y-80700004D01*
X107497004Y-78922004D02*
X108051600Y-79476600D01*
X93472000Y-142494000D02*
X93472000Y-160147000D01*
X94615000Y-130810000D02*
X94015000Y-131410000D01*
X112262701Y-83687701D02*
X108051600Y-79476600D01*
X94015000Y-131410000D02*
X94015000Y-141951000D01*
X104974130Y-78668004D02*
X106515320Y-78668004D01*
X96461966Y-80761402D02*
X98614572Y-78608796D01*
X93565000Y-102861400D02*
X93945000Y-103241400D01*
X104625964Y-78634196D02*
X104940322Y-78634196D01*
X93945000Y-104327400D02*
X93557543Y-104714857D01*
X106515320Y-78668004D02*
X106769320Y-78922004D01*
X65880111Y-90400027D02*
X73670686Y-98190602D01*
X128600200Y-81686400D02*
X127988410Y-81074610D01*
X90485801Y-98190602D02*
X93565000Y-101269801D01*
X93557543Y-119592543D02*
X94615000Y-120650000D01*
X94618864Y-81874798D02*
X95732260Y-80761402D01*
X95732260Y-80761402D02*
X96461966Y-80761402D01*
X93945000Y-103241400D02*
X93945000Y-104327400D01*
X94259400Y-80772000D02*
X94259400Y-81864200D01*
X120619690Y-80700004D02*
X117631993Y-83687701D01*
X93565000Y-101269801D02*
X93565000Y-102861400D01*
X94259400Y-81864200D02*
X94269998Y-81874798D01*
X126900582Y-80700004D02*
X120619690Y-80700004D01*
X94259400Y-80772000D02*
X94259400Y-75971400D01*
X65880111Y-82074889D02*
X65880111Y-90400027D01*
X94269998Y-81874798D02*
X94618864Y-81874798D01*
X66167000Y-81788000D02*
X65880111Y-82074889D01*
X117631993Y-83687701D02*
X112262701Y-83687701D01*
X104940322Y-78634196D02*
X104974130Y-78668004D01*
X104600564Y-78608796D02*
X104625964Y-78634196D01*
X128600200Y-81889600D02*
X128600200Y-81686400D01*
X73670686Y-98190602D02*
X90485801Y-98190602D01*
X98614572Y-78608796D02*
X104600564Y-78608796D01*
X93557543Y-104714857D02*
X93557543Y-119592543D01*
X94615000Y-161290000D02*
X94615000Y-176530000D01*
X93472000Y-160147000D02*
X94615000Y-161290000D01*
X94015000Y-141951000D02*
X93472000Y-142494000D01*
X106769320Y-78922004D02*
X107497004Y-78922004D01*
X127988410Y-81074610D02*
X127275188Y-81074610D01*
%TO.N,Net-(J10-Pin_18)*%
X96519216Y-104298667D02*
X96519216Y-103250216D01*
X127399245Y-80775109D02*
X127024639Y-80400503D01*
X105064379Y-78334695D02*
X105098187Y-78368503D01*
X129108200Y-81838800D02*
X129108200Y-81762600D01*
X127024639Y-80400503D02*
X120494927Y-80400503D01*
X97155000Y-130810000D02*
X96555000Y-131410000D01*
X104750021Y-78334695D02*
X105064379Y-78334695D01*
X98490515Y-78309295D02*
X104724621Y-78309295D01*
X94792800Y-80772000D02*
X95298104Y-80772000D01*
X96105000Y-102836000D02*
X96105000Y-101342883D01*
X96105000Y-119600000D02*
X96105000Y-104712883D01*
X66179612Y-82613588D02*
X66548000Y-82245200D01*
X106639377Y-78368503D02*
X106893377Y-78622503D01*
X128120709Y-80775109D02*
X127399245Y-80775109D01*
X66179612Y-90275970D02*
X66179612Y-82613588D01*
X96337909Y-80461901D02*
X98490515Y-78309295D01*
X106893377Y-78622503D02*
X107807101Y-78622503D01*
X112572798Y-83388200D02*
X108612640Y-79428042D01*
X95758000Y-142240000D02*
X95758000Y-159893000D01*
X97155000Y-120650000D02*
X96105000Y-119600000D01*
X92653218Y-97891101D02*
X73794743Y-97891101D01*
X107807101Y-78622503D02*
X108612640Y-79428042D01*
X96519216Y-103250216D02*
X96105000Y-102836000D01*
X95608203Y-80461901D02*
X96337909Y-80461901D01*
X96555000Y-131410000D02*
X96555000Y-134401000D01*
X96774000Y-76606400D02*
X97180400Y-76200000D01*
X95298104Y-80772000D02*
X95608203Y-80461901D01*
X97282000Y-135128000D02*
X97282000Y-140716000D01*
X96105000Y-104712883D02*
X96519216Y-104298667D01*
X129108200Y-81762600D02*
X128120709Y-80775109D01*
X97155000Y-176530000D02*
X97155000Y-161290000D01*
X96105000Y-101342883D02*
X92653218Y-97891101D01*
X95758000Y-159893000D02*
X97155000Y-161290000D01*
X97282000Y-140716000D02*
X95758000Y-142240000D01*
X96555000Y-134401000D02*
X97282000Y-135128000D01*
X105098187Y-78368503D02*
X106639377Y-78368503D01*
X104724621Y-78309295D02*
X104750021Y-78334695D01*
X117507230Y-83388200D02*
X112572798Y-83388200D01*
X94792800Y-80772000D02*
X94792800Y-79688042D01*
X120494927Y-80400503D02*
X117507230Y-83388200D01*
X73794743Y-97891101D02*
X66179612Y-90275970D01*
X94792800Y-79688042D02*
X96774000Y-77706842D01*
X96774000Y-77706842D02*
X96774000Y-76606400D01*
%TO.N,Net-(J10-Pin_17)*%
X99025000Y-142021000D02*
X98552000Y-142494000D01*
X107017434Y-78323002D02*
X108193402Y-78323002D01*
X105188436Y-78035194D02*
X105222244Y-78069002D01*
X98628200Y-104729683D02*
X99025000Y-104332883D01*
X112796101Y-82925701D02*
X109435900Y-79565500D01*
X99720400Y-76200000D02*
X99720400Y-76655852D01*
X128362850Y-80475608D02*
X127523302Y-80475608D01*
X66479113Y-82974487D02*
X66776600Y-82677000D01*
X99720400Y-76655852D02*
X96213852Y-80162400D01*
X98628200Y-119583200D02*
X98628200Y-104729683D01*
X73918301Y-97591101D02*
X66479113Y-90151913D01*
X105222244Y-78069002D02*
X106763434Y-78069002D01*
X99025000Y-131480000D02*
X99025000Y-142021000D01*
X99025000Y-104332883D02*
X99025000Y-103256472D01*
X129768600Y-81881358D02*
X128362850Y-80475608D01*
X104848678Y-78009794D02*
X104874078Y-78035194D01*
X127523302Y-80475608D02*
X127148696Y-80101002D01*
X98552000Y-160147000D02*
X99695000Y-161290000D01*
X101530194Y-78009794D02*
X104848678Y-78009794D01*
X117540015Y-82925701D02*
X112796101Y-82925701D01*
X99025000Y-103256472D02*
X98645000Y-102876472D01*
X99695000Y-161290000D02*
X99695000Y-176530000D01*
X98645000Y-101342883D02*
X94893218Y-97591101D01*
X66479113Y-90151913D02*
X66479113Y-82974487D01*
X98552000Y-142494000D02*
X98552000Y-160147000D01*
X120364714Y-80101002D02*
X117540015Y-82925701D01*
X96213852Y-80162400D02*
X95224600Y-80162400D01*
X99695000Y-120650000D02*
X98628200Y-119583200D01*
X99720400Y-76200000D02*
X101530194Y-78009794D01*
X108193402Y-78323002D02*
X109435900Y-79565500D01*
X94893218Y-97591101D02*
X73918301Y-97591101D01*
X106763434Y-78069002D02*
X107017434Y-78323002D01*
X129768600Y-81915000D02*
X129768600Y-81881358D01*
X104874078Y-78035194D02*
X105188436Y-78035194D01*
X99695000Y-130810000D02*
X99025000Y-131480000D01*
X127148696Y-80101002D02*
X120364714Y-80101002D01*
X98645000Y-102876472D02*
X98645000Y-101342883D01*
%TO.N,Net-(J10-Pin_16)*%
X103770693Y-77710293D02*
X105033799Y-77710293D01*
X102235000Y-161290000D02*
X102235000Y-176530000D01*
X127647359Y-80176107D02*
X128918707Y-80176107D01*
X105059199Y-77735693D02*
X106853683Y-77735693D01*
X108353878Y-77882794D02*
X112944884Y-82473800D01*
X102235000Y-130810000D02*
X101600000Y-131445000D01*
X101600000Y-131445000D02*
X101600000Y-138684000D01*
X120240657Y-79801501D02*
X126496291Y-79801501D01*
X107000784Y-77882794D02*
X108353878Y-77882794D01*
X126496291Y-79801501D02*
X126502685Y-79795107D01*
X105033799Y-77710293D02*
X105059199Y-77735693D01*
X128918707Y-80176107D02*
X129794000Y-81051400D01*
X127266359Y-79795107D02*
X127647359Y-80176107D01*
X112944884Y-82473800D02*
X117568358Y-82473800D01*
X126502685Y-79795107D02*
X127266359Y-79795107D01*
X106853683Y-77735693D02*
X107000784Y-77882794D01*
X101092000Y-160147000D02*
X102235000Y-161290000D01*
X102260400Y-76200000D02*
X103770693Y-77710293D01*
X117568358Y-82473800D02*
X120240657Y-79801501D01*
X101092000Y-139192000D02*
X101092000Y-160147000D01*
X101600000Y-138684000D02*
X101092000Y-139192000D01*
%TO.N,Net-(J10-Pin_15)*%
X114491551Y-79668151D02*
X114491551Y-79541151D01*
X106977740Y-77436192D02*
X107124841Y-77583293D01*
X110279145Y-79384503D02*
X110313461Y-79384503D01*
X116185486Y-80634402D02*
X115906086Y-80355002D01*
X115178402Y-80355002D02*
X114491551Y-79668151D01*
X131013200Y-81407000D02*
X130774336Y-81407000D01*
X105172484Y-75590400D02*
X105172484Y-77436192D01*
X103632000Y-143002000D02*
X103632000Y-160147000D01*
X104775000Y-161290000D02*
X104775000Y-176530000D01*
X108477935Y-77583293D02*
X110279145Y-79384503D01*
X104775000Y-130810000D02*
X104140000Y-131445000D01*
X127390416Y-79495606D02*
X126378628Y-79495606D01*
X127771416Y-79876606D02*
X127390416Y-79495606D01*
X103632000Y-160147000D02*
X104775000Y-161290000D01*
X105172484Y-77436192D02*
X106977740Y-77436192D01*
X129243942Y-79876606D02*
X127771416Y-79876606D01*
X120100116Y-79502000D02*
X118967714Y-80634402D01*
X126378628Y-79495606D02*
X126372234Y-79502000D01*
X110313461Y-79384503D02*
X110481758Y-79552800D01*
X110481758Y-79552800D02*
X114479902Y-79552800D01*
X118967714Y-80634402D02*
X116185486Y-80634402D01*
X104140000Y-142494000D02*
X103632000Y-143002000D01*
X130774336Y-81407000D02*
X129243942Y-79876606D01*
X114479902Y-79552800D02*
X114491551Y-79541151D01*
X107124841Y-77583293D02*
X108477935Y-77583293D01*
X115906086Y-80355002D02*
X115178402Y-80355002D01*
X126372234Y-79502000D02*
X120100116Y-79502000D01*
X104140000Y-131445000D02*
X104140000Y-142494000D01*
%TO.N,Net-(J10-Pin_14)*%
X106172000Y-142240000D02*
X106172000Y-160147000D01*
X130271801Y-80480907D02*
X130696707Y-80480907D01*
X116309543Y-80334901D02*
X118843657Y-80334901D01*
X107518200Y-76200000D02*
X110403202Y-79085002D01*
X116134099Y-79880057D02*
X116134099Y-80159457D01*
X107340400Y-76200000D02*
X107518200Y-76200000D01*
X115676925Y-79422883D02*
X116134099Y-79880057D01*
X119977154Y-79201404D02*
X126249272Y-79201404D01*
X106172000Y-160147000D02*
X107315000Y-161290000D01*
X115051402Y-79085002D02*
X115389283Y-79422883D01*
X107315000Y-161290000D02*
X107315000Y-176530000D01*
X130696707Y-80480907D02*
X131648200Y-81432400D01*
X118843657Y-80334901D02*
X119977154Y-79201404D01*
X107315000Y-130810000D02*
X106715000Y-131410000D01*
X106715000Y-131410000D02*
X106715000Y-141697000D01*
X116134099Y-80159457D02*
X116309543Y-80334901D01*
X127514473Y-79196105D02*
X127895473Y-79577105D01*
X129367999Y-79577105D02*
X130271801Y-80480907D01*
X106715000Y-141697000D02*
X106172000Y-142240000D01*
X126254571Y-79196105D02*
X127514473Y-79196105D01*
X110403202Y-79085002D02*
X115051402Y-79085002D01*
X127895473Y-79577105D02*
X129367999Y-79577105D01*
X126249272Y-79201404D02*
X126254571Y-79196105D01*
X115389283Y-79422883D02*
X115676925Y-79422883D01*
%TO.N,Net-(J10-Pin_13)*%
X132181600Y-81559400D02*
X132181600Y-81356874D01*
X108458000Y-137004918D02*
X108458000Y-159893000D01*
X126125215Y-78901903D02*
X119853097Y-78901903D01*
X109855000Y-161290000D02*
X109855000Y-176530000D01*
X111102543Y-78785501D02*
X115572943Y-78785501D01*
X127638530Y-78896604D02*
X126130514Y-78896604D01*
X118719600Y-80035400D02*
X116738400Y-80035400D01*
X131006132Y-80181406D02*
X130395858Y-80181406D01*
X109880400Y-77563358D02*
X111102543Y-78785501D01*
X116349226Y-79646226D02*
X116349226Y-79393800D01*
X130395858Y-80181406D02*
X129492056Y-79277604D01*
X126130514Y-78896604D02*
X126125215Y-78901903D01*
X119853097Y-78901903D02*
X118719600Y-80035400D01*
X132181600Y-81356874D02*
X131006132Y-80181406D01*
X116181242Y-79393800D02*
X116349226Y-79393800D01*
X128019530Y-79277604D02*
X127638530Y-78896604D01*
X108458000Y-159893000D02*
X109855000Y-161290000D01*
X115572943Y-78785501D02*
X116181242Y-79393800D01*
X129492056Y-79277604D02*
X128019530Y-79277604D01*
X109220000Y-136242918D02*
X108458000Y-137004918D01*
X116738400Y-80035400D02*
X116349226Y-79646226D01*
X109220000Y-131445000D02*
X109220000Y-136242918D01*
X109880400Y-76200000D02*
X109880400Y-77563358D01*
X109855000Y-130810000D02*
X109220000Y-131445000D01*
%TO.N,Net-(J10-Pin_12)*%
X112420400Y-76200000D02*
X112420400Y-77241400D01*
X117505200Y-79735400D02*
X118595336Y-79735400D01*
X127762587Y-78597103D02*
X128143587Y-78978103D01*
X111795000Y-134147000D02*
X112268000Y-134620000D01*
X113659701Y-78480701D02*
X116250501Y-78480701D01*
X112268000Y-141986000D02*
X111252000Y-143002000D01*
X119733633Y-78597103D02*
X122301587Y-78597103D01*
X112268000Y-134620000D02*
X112268000Y-141986000D01*
X116916200Y-79146400D02*
X117505200Y-79735400D01*
X111252000Y-160147000D02*
X112395000Y-161290000D01*
X111252000Y-143002000D02*
X111252000Y-160147000D01*
X111760000Y-131445000D02*
X111760000Y-132080000D01*
X126001158Y-78602402D02*
X126006457Y-78597103D01*
X116250501Y-78480701D02*
X116916200Y-79146400D01*
X118595336Y-79735400D02*
X119733633Y-78597103D01*
X122301587Y-78597103D02*
X122306886Y-78602402D01*
X111795000Y-132115000D02*
X111795000Y-134147000D01*
X111760000Y-132080000D02*
X111795000Y-132115000D01*
X131723305Y-79881905D02*
X133197600Y-81356200D01*
X112395000Y-130810000D02*
X111760000Y-131445000D01*
X122306886Y-78602402D02*
X126001158Y-78602402D01*
X126006457Y-78597103D02*
X127762587Y-78597103D01*
X130519915Y-79881905D02*
X131723305Y-79881905D01*
X112420400Y-77241400D02*
X113659701Y-78480701D01*
X112395000Y-161290000D02*
X112395000Y-176530000D01*
X128143587Y-78978103D02*
X129616113Y-78978103D01*
X129616113Y-78978103D02*
X130519915Y-79881905D01*
%TO.N,Net-(J10-Pin_11)*%
X113877543Y-104664057D02*
X113877543Y-119592543D01*
X114300000Y-131445000D02*
X114300000Y-142748000D01*
X127551827Y-99382711D02*
X126307227Y-99382711D01*
X116953459Y-96982499D02*
X116842943Y-96982499D01*
X114294115Y-104247485D02*
X113877543Y-104664057D01*
X133578600Y-81127600D02*
X133680200Y-81229200D01*
X114935000Y-161290000D02*
X114935000Y-176530000D01*
X125882400Y-78297602D02*
X127886644Y-78297602D01*
X133680200Y-81229200D02*
X133680200Y-95986600D01*
X114935000Y-130810000D02*
X114300000Y-131445000D01*
X117652800Y-79146400D02*
X118501598Y-78297602D01*
X130963495Y-98703305D02*
X129896695Y-98703305D01*
X126307227Y-99382711D02*
X126166940Y-99522998D01*
X114294115Y-102701840D02*
X114294115Y-104247485D01*
X128267644Y-78678602D02*
X129740170Y-78678602D01*
X117449600Y-77597000D02*
X117652800Y-77800200D01*
X113538000Y-159893000D02*
X114935000Y-161290000D01*
X122425644Y-78297602D02*
X122430943Y-78302901D01*
X114300000Y-142748000D02*
X113538000Y-143510000D01*
X117652800Y-77800200D02*
X117652800Y-79146400D01*
X120274092Y-99522998D02*
X117677494Y-96926400D01*
X127886644Y-78297602D02*
X128267644Y-78678602D01*
X122430943Y-78302901D02*
X125877101Y-78302901D01*
X114960400Y-77266800D02*
X115290600Y-77597000D01*
X114960400Y-76454000D02*
X114960400Y-77266800D01*
X125877101Y-78302901D02*
X125882400Y-78297602D01*
X113877543Y-119592543D02*
X114935000Y-120650000D01*
X117677494Y-96926400D02*
X117009558Y-96926400D01*
X113877543Y-99947899D02*
X113877543Y-102285268D01*
X113538000Y-143510000D02*
X113538000Y-159893000D01*
X129896695Y-98703305D02*
X129488202Y-99111798D01*
X127822740Y-99111798D02*
X127551827Y-99382711D01*
X113877543Y-102285268D02*
X114294115Y-102701840D01*
X116842943Y-96982499D02*
X113877543Y-99947899D01*
X132033404Y-79582404D02*
X133578600Y-81127600D01*
X129488202Y-99111798D02*
X127822740Y-99111798D01*
X118501598Y-78297602D02*
X122425644Y-78297602D01*
X117009558Y-96926400D02*
X116953459Y-96982499D01*
X130643972Y-79582404D02*
X132033404Y-79582404D01*
X126166940Y-99522998D02*
X120274092Y-99522998D01*
X133680200Y-95986600D02*
X130963495Y-98703305D01*
X115290600Y-77597000D02*
X117449600Y-77597000D01*
X129740170Y-78678602D02*
X130643972Y-79582404D01*
%TO.N,Net-(J10-Pin_10)*%
X116425000Y-119600000D02*
X116425000Y-104133528D01*
X116840000Y-131445000D02*
X116840000Y-142240000D01*
X116805000Y-103753528D02*
X116805000Y-102733400D01*
X117475000Y-130810000D02*
X116840000Y-131445000D01*
X116078000Y-159893000D02*
X117475000Y-161290000D01*
X117475000Y-120650000D02*
X116425000Y-119600000D01*
X116805000Y-102733400D02*
X116408200Y-102336600D01*
X117017800Y-98145600D02*
X117017800Y-97967800D01*
X116425000Y-104133528D02*
X116805000Y-103753528D01*
X116408200Y-102336600D02*
X116408200Y-98755200D01*
X116840000Y-142240000D02*
X116078000Y-143002000D01*
X116078000Y-143002000D02*
X116078000Y-159893000D01*
X117475000Y-161290000D02*
X117475000Y-176530000D01*
X116408200Y-98755200D02*
X117017800Y-98145600D01*
%TO.N,Net-(J10-Pin_1)*%
X140335000Y-161290000D02*
X140335000Y-176530000D01*
X139192000Y-160147000D02*
X140335000Y-161290000D01*
X139735000Y-135093000D02*
X139192000Y-135636000D01*
X139735000Y-131410000D02*
X139735000Y-135093000D01*
X140335000Y-130810000D02*
X139735000Y-131410000D01*
X139192000Y-135636000D02*
X139192000Y-160147000D01*
D24*
%TO.N,GND*%
X141510000Y-116300000D02*
X141224000Y-116586000D01*
X141224000Y-116586000D02*
X141224000Y-118110000D01*
X142875000Y-85979000D02*
X140901499Y-87952501D01*
X141636499Y-94266189D02*
X141636499Y-102589618D01*
X140901499Y-93531189D02*
X141636499Y-94266189D01*
X140980000Y-103246117D02*
X140980000Y-104130129D01*
X141224000Y-118110000D02*
X141986000Y-118872000D01*
X141636499Y-102589618D02*
X140980000Y-103246117D01*
X140980000Y-104130129D02*
X141510000Y-104660129D01*
X141510000Y-104660129D02*
X141510000Y-116300000D01*
X140901499Y-87952501D02*
X140901499Y-93531189D01*
X141986000Y-118872000D02*
X141986000Y-131826000D01*
D23*
%TO.N,Net-(D1-DIN)*%
X64550000Y-145830000D02*
X64550000Y-150562600D01*
D24*
X141351000Y-93345000D02*
X142230000Y-94224000D01*
X141351000Y-90043000D02*
X141351000Y-93345000D01*
X142875000Y-88265000D02*
X142875000Y-88519000D01*
X142230000Y-117125623D02*
X141741655Y-117613968D01*
X142230000Y-94224000D02*
X142230000Y-117125623D01*
X142875000Y-88519000D02*
X141351000Y-90043000D01*
D23*
X63500000Y-144780000D02*
X64550000Y-145830000D01*
X64550000Y-150562600D02*
X64173100Y-150939500D01*
D24*
%TO.N,+5V*%
X142875000Y-90805000D02*
X142240000Y-91440000D01*
%TO.N,Net-(JP1-A)*%
X65405000Y-181610000D02*
X141605000Y-181610000D01*
%TO.N,Net-(JP2-B)*%
X141605000Y-184150000D02*
X65405000Y-184150000D01*
%TD*%
M02*
