M48
; DRILL file {KiCad 7.0.7} date 2023 October 12, Thursday 12:02:58
; FORMAT={-:-/ absolute / metric / decimal}
; #@! TF.CreationDate,2023-10-12T12:02:58-07:00
; #@! TF.GenerationSoftware,Kicad,Pcbnew,7.0.7
; #@! TF.FileFunction,Plated,1,4,PTH
FMAT,2
METRIC
; #@! TA.AperFunction,Plated,PTH,ViaDrill
T1C0.150
; #@! TA.AperFunction,Plated,PTH,ComponentDrill
T2C0.350
; #@! TA.AperFunction,Plated,PTH,ComponentDrill
T3C0.600
; #@! TA.AperFunction,Plated,PTH,ComponentDrill
T4C0.900
; #@! TA.AperFunction,Plated,PTH,ComponentDrill
T5C1.000
%
G90
G05
T1
X63.5Y-120.396
X63.881Y-170.129
X64.135Y-151.765
X64.135Y-179.07
X64.173Y-150.939
X64.287Y-169.647
X64.567Y-79.578
X64.618Y-76.937
X64.618Y-77.546
X64.643Y-78.867
X64.668Y-78.207
X64.694Y-76.251
X64.745Y-75.59
X64.872Y-79.959
X65.126Y-80.442
X65.583Y-80.874
X65.735Y-81.331
X66.04Y-141.605
X66.04Y-149.225
X66.044Y-140.72
X66.167Y-81.788
X66.548Y-82.245
X66.777Y-82.677
X69.596Y-117.798
X70.612Y-141.224
X70.68Y-132.012
X71.12Y-135.89
X71.12Y-185.42
X72.161Y-94.539
X72.263Y-83.083
X72.39Y-140.335
X72.466Y-94.996
X72.517Y-82.652
X72.796Y-95.479
X72.974Y-82.22
X74.27Y-83.617
X74.27Y-93.548
X74.574Y-95.758
X74.727Y-83.566
X74.727Y-93.599
X74.93Y-180.34
X75.032Y-81.788
X75.184Y-83.718
X75.184Y-93.447
X75.635Y-83.88
X75.635Y-93.285
X75.717Y-81.356
X76.194Y-83.967
X76.194Y-93.198
X76.378Y-96.291
X76.728Y-93.122
X76.74Y-84.055
X77.064Y-80.924
X77.064Y-96.368
X77.181Y-85.242
X77.181Y-91.923
X77.216Y-84.277
X77.216Y-92.888
X77.231Y-86.324
X77.231Y-90.841
X77.239Y-85.75
X77.239Y-91.415
X77.251Y-87.436
X77.251Y-89.729
X77.267Y-84.734
X77.267Y-92.431
X77.285Y-86.836
X77.285Y-90.329
X77.666Y-87.993
X77.666Y-89.172
X78.867Y-96.368
X78.956Y-80.884
X80.01Y-80.343
X80.035Y-96.368
X80.645Y-96.368
X81.229Y-80.233
X81.28Y-96.393
X81.915Y-96.368
X82.105Y-80.328
X82.525Y-96.368
X82.74Y-80.328
X83.185Y-96.368
X83.371Y-80.323
X83.795Y-96.368
X84.176Y-80.239
X84.769Y-82.737
X85.327Y-94.987
X85.344Y-80.137
X85.865Y-82.347
X86.141Y-82.779
X86.141Y-94.386
X86.233Y-94.818
X86.322Y-83.21
X86.322Y-93.955
X86.36Y-139.065
X86.36Y-185.42
X86.512Y-83.718
X86.512Y-93.447
X86.766Y-84.226
X86.766Y-92.939
X87.046Y-84.734
X87.046Y-92.431
X87.274Y-85.242
X87.274Y-91.923
X87.579Y-85.736
X87.579Y-91.429
X87.808Y-86.214
X87.808Y-90.951
X87.833Y-81.559
X87.833Y-95.606
X88.163Y-86.563
X88.163Y-90.602
X88.5Y-86.98
X88.5Y-90.185
X88.646Y-81.178
X88.646Y-95.987
X88.735Y-87.389
X88.735Y-89.776
X88.925Y-88.214
X88.925Y-88.951
X89.154Y-80.823
X89.154Y-96.342
X89.738Y-80.645
X89.738Y-96.52
X90.17Y-180.34
X90.399Y-80.696
X90.399Y-96.469
X90.983Y-80.772
X90.983Y-96.393
X91.567Y-80.772
X91.567Y-96.393
X92.05Y-96.393
X92.075Y-80.874
X92.583Y-80.797
X92.583Y-96.368
X93.142Y-80.772
X93.142Y-96.393
X93.726Y-80.848
X93.726Y-96.317
X94.259Y-80.772
X94.259Y-96.393
X94.793Y-80.772
X94.793Y-96.393
X95.225Y-80.162
X95.225Y-97.003
X100.178Y-82.118
X100.178Y-95.047
X100.597Y-82.385
X100.597Y-94.78
X101.041Y-82.55
X101.041Y-94.615
X101.524Y-82.677
X101.524Y-94.488
X101.6Y-139.7
X101.6Y-185.42
X102.044Y-82.748
X102.044Y-94.417
X102.475Y-82.765
X102.475Y-94.4
X102.974Y-94.666
X102.996Y-82.289
X103.81Y-94.285
X103.886Y-82.677
X103.911Y-82.169
X104.038Y-81.661
X104.191Y-94.513
X104.242Y-95.072
X104.343Y-95.58
X104.476Y-81.331
X105.283Y-95.377
X105.41Y-180.34
X105.448Y-81.623
X105.474Y-95.796
X105.651Y-96.228
X106.02Y-80.874
X106.058Y-81.622
X106.33Y-96.164
X106.451Y-80.67
X106.892Y-80.823
X106.909Y-96.266
X107.785Y-96.228
X108.052Y-79.477
X108.166Y-81.318
X108.422Y-96.307
X108.585Y-81.026
X108.613Y-79.428
X108.814Y-96.571
X109.334Y-96.965
X109.436Y-79.566
X109.449Y-97.46
X111.938Y-97.13
X113.754Y-97.32
X114.427Y-97.257
X114.492Y-79.541
X115.389Y-79.423
X115.392Y-97.409
X116.053Y-96.825
X116.349Y-79.394
X116.662Y-95.301
X116.84Y-185.42
X116.916Y-79.146
X117.018Y-97.968
X117.221Y-95.301
X117.399Y-81.077
X117.45Y-97.968
X117.475Y-139.7
X117.5Y-81.585
X117.653Y-79.146
X117.678Y-97.536
X120.345Y-91.491
X120.65Y-180.34
X121.336Y-82.347
X121.514Y-94.818
X122.149Y-82.296
X122.149Y-94.818
X123.019Y-95.003
X123.025Y-95.694
X123.063Y-82.347
X123.419Y-82.067
X123.698Y-95.606
X124.054Y-82.169
X124.054Y-95.021
X124.663Y-95.225
X124.689Y-82.169
X125.552Y-95.377
X125.73Y-82.169
X125.984Y-95.098
X126.06Y-95.606
X126.238Y-82.296
X126.467Y-81.737
X126.594Y-95.098
X127.076Y-81.788
X127.229Y-95.225
X128.092Y-81.788
X128.092Y-95.377
X128.6Y-81.89
X128.6Y-95.275
X129.108Y-81.839
X129.108Y-95.326
X129.235Y-96.469
X129.769Y-81.915
X129.769Y-95.25
X129.794Y-81.051
X129.794Y-96.114
X131.013Y-81.407
X131.039Y-95.377
X131.648Y-81.432
X131.674Y-95.352
X132.08Y-139.065
X132.08Y-185.42
X132.182Y-81.559
X132.309Y-95.25
X132.309Y-96.571
X133.198Y-81.356
X133.223Y-95.682
X133.497Y-96.771
X133.579Y-81.128
X134.112Y-132.08
X134.137Y-81.026
X134.214Y-94.92
X134.468Y-95.377
X134.62Y-81.026
X134.62Y-118.148
X134.785Y-96.114
X135.236Y-77.096
X135.236Y-100.069
X135.255Y-140.97
X135.255Y-180.34
X135.712Y-81.356
X135.712Y-95.809
X136.347Y-81.407
X136.347Y-95.758
X136.652Y-132.08
X136.855Y-81.458
X136.855Y-95.707
X137.058Y-96.952
X137.338Y-81.28
X137.338Y-95.885
X137.82Y-77.089
X137.82Y-100.076
X138.328Y-81.128
X138.328Y-96.037
X138.43Y-118.275
X138.495Y-118.872
X138.862Y-81.407
X138.862Y-95.758
X139.446Y-81.077
X139.446Y-96.088
X141.707Y-171.145
X141.742Y-117.614
X141.986Y-118.11
X141.986Y-131.826
X142.24Y-151.13
X142.926Y-151.74
X143.51Y-119.888
T2
X71.185Y-88.587
X72.086Y-87.686
X72.086Y-89.489
X72.988Y-86.784
X72.988Y-88.587
X72.988Y-90.39
X73.89Y-87.686
X73.89Y-89.489
X74.791Y-88.587
T5
X63.5Y-106.68
X63.5Y-109.22
X63.5Y-127.0
X63.5Y-129.54
X63.5Y-142.24
X63.5Y-144.78
X63.5Y-147.32
X66.675Y-123.19
X66.675Y-125.73
X66.675Y-101.6
X66.675Y-105.41
X66.675Y-107.95
X66.675Y-113.03
X66.675Y-115.57
X66.675Y-120.65
X66.675Y-128.27
X66.675Y-130.81
X66.675Y-110.49
X66.7Y-76.2
X69.215Y-123.19
X69.215Y-125.73
X69.215Y-101.6
X69.215Y-105.41
X69.215Y-107.95
X69.215Y-113.03
X69.215Y-115.57
X69.215Y-120.65
X69.215Y-128.27
X69.215Y-130.81
X69.215Y-110.49
X69.24Y-76.2
X71.755Y-123.19
X71.755Y-125.73
X71.755Y-101.6
X71.755Y-105.41
X71.755Y-107.95
X71.755Y-113.03
X71.755Y-115.57
X71.755Y-120.65
X71.755Y-128.27
X71.755Y-130.81
X71.755Y-110.49
X71.78Y-76.2
X74.295Y-123.19
X74.295Y-125.73
X74.295Y-101.6
X74.295Y-105.41
X74.295Y-107.95
X74.295Y-113.03
X74.295Y-115.57
X74.295Y-120.65
X74.295Y-128.27
X74.295Y-130.81
X74.295Y-110.49
X74.32Y-76.2
X76.835Y-123.19
X76.835Y-125.73
X76.835Y-101.6
X76.835Y-105.41
X76.835Y-107.95
X76.835Y-113.03
X76.835Y-115.57
X76.835Y-120.65
X76.835Y-128.27
X76.835Y-130.81
X76.835Y-110.49
X76.86Y-76.2
X79.375Y-123.19
X79.375Y-125.73
X79.375Y-101.6
X79.375Y-105.41
X79.375Y-107.95
X79.375Y-113.03
X79.375Y-115.57
X79.375Y-120.65
X79.375Y-128.27
X79.375Y-130.81
X79.375Y-110.49
X79.4Y-76.2
X81.915Y-123.19
X81.915Y-125.73
X81.915Y-101.6
X81.915Y-105.41
X81.915Y-107.95
X81.915Y-113.03
X81.915Y-115.57
X81.915Y-120.65
X81.915Y-128.27
X81.915Y-130.81
X81.915Y-110.49
X81.94Y-76.2
X84.455Y-123.19
X84.455Y-125.73
X84.455Y-101.6
X84.455Y-105.41
X84.455Y-107.95
X84.455Y-113.03
X84.455Y-115.57
X84.455Y-120.65
X84.455Y-128.27
X84.455Y-130.81
X84.455Y-110.49
X84.48Y-76.2
X86.995Y-123.19
X86.995Y-125.73
X86.995Y-101.6
X86.995Y-105.41
X86.995Y-107.95
X86.995Y-113.03
X86.995Y-115.57
X86.995Y-120.65
X86.995Y-128.27
X86.995Y-130.81
X86.995Y-110.49
X87.02Y-76.2
X89.535Y-123.19
X89.535Y-125.73
X89.535Y-101.6
X89.535Y-105.41
X89.535Y-107.95
X89.535Y-113.03
X89.535Y-115.57
X89.535Y-120.65
X89.535Y-128.27
X89.535Y-130.81
X89.535Y-110.49
X89.56Y-76.2
X92.075Y-123.19
X92.075Y-125.73
X92.075Y-101.6
X92.075Y-105.41
X92.075Y-107.95
X92.075Y-113.03
X92.075Y-115.57
X92.075Y-120.65
X92.075Y-128.27
X92.075Y-130.81
X92.075Y-110.49
X92.1Y-76.2
X94.615Y-123.19
X94.615Y-125.73
X94.615Y-101.6
X94.615Y-105.41
X94.615Y-107.95
X94.615Y-113.03
X94.615Y-115.57
X94.615Y-120.65
X94.615Y-128.27
X94.615Y-130.81
X94.615Y-110.49
X94.64Y-76.2
X97.155Y-123.19
X97.155Y-125.73
X97.155Y-101.6
X97.155Y-105.41
X97.155Y-107.95
X97.155Y-113.03
X97.155Y-115.57
X97.155Y-120.65
X97.155Y-128.27
X97.155Y-130.81
X97.155Y-110.49
X97.18Y-76.2
X99.695Y-123.19
X99.695Y-125.73
X99.695Y-101.6
X99.695Y-105.41
X99.695Y-107.95
X99.695Y-113.03
X99.695Y-115.57
X99.695Y-120.65
X99.695Y-128.27
X99.695Y-130.81
X99.695Y-110.49
X99.72Y-76.2
X102.235Y-123.19
X102.235Y-125.73
X102.235Y-101.6
X102.235Y-105.41
X102.235Y-107.95
X102.235Y-113.03
X102.235Y-115.57
X102.235Y-120.65
X102.235Y-128.27
X102.235Y-130.81
X102.235Y-110.49
X102.26Y-76.2
X104.775Y-123.19
X104.775Y-125.73
X104.775Y-101.6
X104.775Y-105.41
X104.775Y-107.95
X104.775Y-113.03
X104.775Y-115.57
X104.775Y-120.65
X104.775Y-128.27
X104.775Y-130.81
X104.775Y-110.49
X104.8Y-76.2
X107.315Y-123.19
X107.315Y-125.73
X107.315Y-101.6
X107.315Y-105.41
X107.315Y-107.95
X107.315Y-113.03
X107.315Y-115.57
X107.315Y-120.65
X107.315Y-128.27
X107.315Y-130.81
X107.315Y-110.49
X107.34Y-76.2
X109.855Y-123.19
X109.855Y-125.73
X109.855Y-101.6
X109.855Y-105.41
X109.855Y-107.95
X109.855Y-113.03
X109.855Y-115.57
X109.855Y-120.65
X109.855Y-128.27
X109.855Y-130.81
X109.855Y-110.49
X109.88Y-76.2
X112.395Y-123.19
X112.395Y-125.73
X112.395Y-101.6
X112.395Y-105.41
X112.395Y-107.95
X112.395Y-113.03
X112.395Y-115.57
X112.395Y-120.65
X112.395Y-128.27
X112.395Y-130.81
X112.395Y-110.49
X112.42Y-76.2
X114.935Y-123.19
X114.935Y-125.73
X114.935Y-101.6
X114.935Y-105.41
X114.935Y-107.95
X114.935Y-113.03
X114.935Y-115.57
X114.935Y-120.65
X114.935Y-128.27
X114.935Y-130.81
X114.935Y-110.49
X114.96Y-76.2
X117.475Y-123.19
X117.475Y-125.73
X117.475Y-101.6
X117.475Y-105.41
X117.475Y-107.95
X117.475Y-113.03
X117.475Y-115.57
X117.475Y-120.65
X117.475Y-128.27
X117.475Y-130.81
X117.475Y-110.49
X117.5Y-76.2
X120.015Y-123.19
X120.015Y-125.73
X120.015Y-101.6
X120.015Y-105.41
X120.015Y-107.95
X120.015Y-113.03
X120.015Y-115.57
X120.015Y-120.65
X120.015Y-128.27
X120.015Y-130.81
X120.015Y-110.49
X120.04Y-76.2
X122.555Y-123.19
X122.555Y-125.73
X122.555Y-101.6
X122.555Y-105.41
X122.555Y-107.95
X122.555Y-113.03
X122.555Y-115.57
X122.555Y-120.65
X122.555Y-128.27
X122.555Y-130.81
X122.555Y-110.49
X122.58Y-76.2
X125.095Y-123.19
X125.095Y-125.73
X125.095Y-101.6
X125.095Y-105.41
X125.095Y-107.95
X125.095Y-113.03
X125.095Y-115.57
X125.095Y-120.65
X125.095Y-128.27
X125.095Y-130.81
X125.095Y-110.49
X125.12Y-76.2
X127.635Y-123.19
X127.635Y-125.73
X127.635Y-101.6
X127.635Y-105.41
X127.635Y-107.95
X127.635Y-113.03
X127.635Y-115.57
X127.635Y-120.65
X127.635Y-128.27
X127.635Y-130.81
X127.635Y-110.49
X127.66Y-76.2
X130.175Y-123.19
X130.175Y-125.73
X130.175Y-101.6
X130.175Y-105.41
X130.175Y-107.95
X130.175Y-113.03
X130.175Y-115.57
X130.175Y-120.65
X130.175Y-128.27
X130.175Y-130.81
X130.175Y-110.49
X130.2Y-76.2
X132.715Y-123.19
X132.715Y-125.73
X132.715Y-101.6
X132.715Y-105.41
X132.715Y-107.95
X132.715Y-113.03
X132.715Y-115.57
X132.715Y-120.65
X132.715Y-128.27
X132.715Y-130.81
X132.715Y-110.49
X132.74Y-76.2
X135.255Y-123.19
X135.255Y-125.73
X135.255Y-101.6
X135.255Y-105.41
X135.255Y-107.95
X135.255Y-113.03
X135.255Y-115.57
X135.255Y-120.65
X135.255Y-128.27
X135.255Y-130.81
X135.255Y-110.49
X135.28Y-76.2
X137.795Y-123.19
X137.795Y-125.73
X137.795Y-101.6
X137.795Y-105.41
X137.795Y-107.95
X137.795Y-113.03
X137.795Y-115.57
X137.795Y-120.65
X137.795Y-128.27
X137.795Y-130.81
X137.795Y-110.49
X137.82Y-76.2
X140.335Y-123.19
X140.335Y-125.73
X140.335Y-101.6
X140.335Y-105.41
X140.335Y-107.95
X140.335Y-113.03
X140.335Y-115.57
X140.335Y-120.65
X140.335Y-128.27
X140.335Y-130.81
X140.335Y-110.49
X140.36Y-76.2
X142.875Y-85.979
X142.875Y-88.519
X142.875Y-91.059
X143.51Y-106.68
X143.51Y-109.22
X143.51Y-127.0
X143.51Y-129.54
X143.51Y-142.24
X143.51Y-144.78
X143.51Y-147.32
T3
X66.225Y-143.51G85X67.125Y-143.51
G05
X66.225Y-158.75G85X67.125Y-158.75
G05
X66.225Y-161.29G85X67.125Y-161.29
G05
X66.225Y-176.53G85X67.125Y-176.53
G05
X68.765Y-143.51G85X69.665Y-143.51
G05
X68.765Y-158.75G85X69.665Y-158.75
G05
X68.765Y-161.29G85X69.665Y-161.29
G05
X68.765Y-176.53G85X69.665Y-176.53
G05
X71.305Y-143.51G85X72.205Y-143.51
G05
X71.305Y-158.75G85X72.205Y-158.75
G05
X71.305Y-161.29G85X72.205Y-161.29
G05
X71.305Y-176.53G85X72.205Y-176.53
G05
X73.845Y-143.51G85X74.745Y-143.51
G05
X73.845Y-158.75G85X74.745Y-158.75
G05
X73.845Y-161.29G85X74.745Y-161.29
G05
X73.845Y-176.53G85X74.745Y-176.53
G05
X76.385Y-143.51G85X77.285Y-143.51
G05
X76.385Y-158.75G85X77.285Y-158.75
G05
X76.385Y-161.29G85X77.285Y-161.29
G05
X76.385Y-176.53G85X77.285Y-176.53
G05
X78.925Y-143.51G85X79.825Y-143.51
G05
X78.925Y-158.75G85X79.825Y-158.75
G05
X78.925Y-161.29G85X79.825Y-161.29
G05
X78.925Y-176.53G85X79.825Y-176.53
G05
X81.465Y-143.51G85X82.365Y-143.51
G05
X81.465Y-158.75G85X82.365Y-158.75
G05
X81.465Y-161.29G85X82.365Y-161.29
G05
X81.465Y-176.53G85X82.365Y-176.53
G05
X84.005Y-143.51G85X84.905Y-143.51
G05
X84.005Y-158.75G85X84.905Y-158.75
G05
X84.005Y-161.29G85X84.905Y-161.29
G05
X84.005Y-176.53G85X84.905Y-176.53
G05
X86.545Y-143.51G85X87.445Y-143.51
G05
X86.545Y-158.75G85X87.445Y-158.75
G05
X86.545Y-161.29G85X87.445Y-161.29
G05
X86.545Y-176.53G85X87.445Y-176.53
G05
X89.085Y-143.51G85X89.985Y-143.51
G05
X89.085Y-158.75G85X89.985Y-158.75
G05
X89.085Y-161.29G85X89.985Y-161.29
G05
X89.085Y-176.53G85X89.985Y-176.53
G05
X91.625Y-143.51G85X92.525Y-143.51
G05
X91.625Y-158.75G85X92.525Y-158.75
G05
X91.625Y-161.29G85X92.525Y-161.29
G05
X91.625Y-176.53G85X92.525Y-176.53
G05
X94.165Y-143.51G85X95.065Y-143.51
G05
X94.165Y-158.75G85X95.065Y-158.75
G05
X94.165Y-161.29G85X95.065Y-161.29
G05
X94.165Y-176.53G85X95.065Y-176.53
G05
X96.705Y-143.51G85X97.605Y-143.51
G05
X96.705Y-158.75G85X97.605Y-158.75
G05
X96.705Y-161.29G85X97.605Y-161.29
G05
X96.705Y-176.53G85X97.605Y-176.53
G05
X99.245Y-143.51G85X100.145Y-143.51
G05
X99.245Y-158.75G85X100.145Y-158.75
G05
X99.245Y-161.29G85X100.145Y-161.29
G05
X99.245Y-176.53G85X100.145Y-176.53
G05
X101.785Y-143.51G85X102.685Y-143.51
G05
X101.785Y-158.75G85X102.685Y-158.75
G05
X101.785Y-161.29G85X102.685Y-161.29
G05
X101.785Y-176.53G85X102.685Y-176.53
G05
X104.325Y-143.51G85X105.225Y-143.51
G05
X104.325Y-158.75G85X105.225Y-158.75
G05
X104.325Y-161.29G85X105.225Y-161.29
G05
X104.325Y-176.53G85X105.225Y-176.53
G05
X106.865Y-143.51G85X107.765Y-143.51
G05
X106.865Y-158.75G85X107.765Y-158.75
G05
X106.865Y-161.29G85X107.765Y-161.29
G05
X106.865Y-176.53G85X107.765Y-176.53
G05
X109.405Y-143.51G85X110.305Y-143.51
G05
X109.405Y-158.75G85X110.305Y-158.75
G05
X109.405Y-161.29G85X110.305Y-161.29
G05
X109.405Y-176.53G85X110.305Y-176.53
G05
X111.945Y-143.51G85X112.845Y-143.51
G05
X111.945Y-158.75G85X112.845Y-158.75
G05
X111.945Y-161.29G85X112.845Y-161.29
G05
X111.945Y-176.53G85X112.845Y-176.53
G05
X114.485Y-143.51G85X115.385Y-143.51
G05
X114.485Y-158.75G85X115.385Y-158.75
G05
X114.485Y-161.29G85X115.385Y-161.29
G05
X114.485Y-176.53G85X115.385Y-176.53
G05
X117.025Y-143.51G85X117.925Y-143.51
G05
X117.025Y-158.75G85X117.925Y-158.75
G05
X117.025Y-161.29G85X117.925Y-161.29
G05
X117.025Y-176.53G85X117.925Y-176.53
G05
X119.565Y-143.51G85X120.465Y-143.51
G05
X119.565Y-158.75G85X120.465Y-158.75
G05
X119.565Y-161.29G85X120.465Y-161.29
G05
X119.565Y-176.53G85X120.465Y-176.53
G05
X122.105Y-143.51G85X123.005Y-143.51
G05
X122.105Y-158.75G85X123.005Y-158.75
G05
X122.105Y-161.29G85X123.005Y-161.29
G05
X122.105Y-176.53G85X123.005Y-176.53
G05
X124.645Y-143.51G85X125.545Y-143.51
G05
X124.645Y-158.75G85X125.545Y-158.75
G05
X124.645Y-161.29G85X125.545Y-161.29
G05
X124.645Y-176.53G85X125.545Y-176.53
G05
X127.185Y-143.51G85X128.085Y-143.51
G05
X127.185Y-158.75G85X128.085Y-158.75
G05
X127.185Y-161.29G85X128.085Y-161.29
G05
X127.185Y-176.53G85X128.085Y-176.53
G05
X129.725Y-143.51G85X130.625Y-143.51
G05
X129.725Y-158.75G85X130.625Y-158.75
G05
X129.725Y-161.29G85X130.625Y-161.29
G05
X129.725Y-176.53G85X130.625Y-176.53
G05
X132.265Y-143.51G85X133.165Y-143.51
G05
X132.265Y-158.75G85X133.165Y-158.75
G05
X132.265Y-161.29G85X133.165Y-161.29
G05
X132.265Y-176.53G85X133.165Y-176.53
G05
X134.805Y-143.51G85X135.705Y-143.51
G05
X134.805Y-158.75G85X135.705Y-158.75
G05
X134.805Y-161.29G85X135.705Y-161.29
G05
X134.805Y-176.53G85X135.705Y-176.53
G05
X137.345Y-143.51G85X138.245Y-143.51
G05
X137.345Y-158.75G85X138.245Y-158.75
G05
X137.345Y-161.29G85X138.245Y-161.29
G05
X137.345Y-176.53G85X138.245Y-176.53
G05
X139.885Y-143.51G85X140.785Y-143.51
G05
X139.885Y-158.75G85X140.785Y-158.75
G05
X139.885Y-161.29G85X140.785Y-161.29
G05
X139.885Y-176.53G85X140.785Y-176.53
G05
T4
X65.405Y-135.49G85X65.405Y-136.29
G05
X65.405Y-138.03G85X65.405Y-138.83
G05
X65.405Y-181.21G85X65.405Y-182.01
G05
X65.405Y-183.75G85X65.405Y-184.55
G05
X80.645Y-135.49G85X80.645Y-136.29
G05
X80.645Y-135.49G85X80.645Y-136.29
G05
X80.645Y-138.03G85X80.645Y-138.83
G05
X80.645Y-138.03G85X80.645Y-138.83
G05
X80.645Y-181.21G85X80.645Y-182.01
G05
X80.645Y-181.21G85X80.645Y-182.01
G05
X80.645Y-183.75G85X80.645Y-184.55
G05
X80.645Y-183.75G85X80.645Y-184.55
G05
X95.885Y-135.49G85X95.885Y-136.29
G05
X95.885Y-135.49G85X95.885Y-136.29
G05
X95.885Y-138.03G85X95.885Y-138.83
G05
X95.885Y-138.03G85X95.885Y-138.83
G05
X95.885Y-181.223G85X95.885Y-182.023
G05
X95.885Y-181.223G85X95.885Y-182.023
G05
X95.885Y-183.75G85X95.885Y-184.55
G05
X95.885Y-183.75G85X95.885Y-184.55
G05
X111.125Y-135.49G85X111.125Y-136.29
G05
X111.125Y-135.49G85X111.125Y-136.29
G05
X111.125Y-138.03G85X111.125Y-138.83
G05
X111.125Y-138.03G85X111.125Y-138.83
G05
X111.125Y-181.21G85X111.125Y-182.01
G05
X111.125Y-181.21G85X111.125Y-182.01
G05
X111.125Y-183.75G85X111.125Y-184.55
G05
X111.125Y-183.75G85X111.125Y-184.55
G05
X126.365Y-135.49G85X126.365Y-136.29
G05
X126.365Y-135.49G85X126.365Y-136.29
G05
X126.365Y-138.03G85X126.365Y-138.83
G05
X126.365Y-138.03G85X126.365Y-138.83
G05
X126.365Y-181.21G85X126.365Y-182.01
G05
X126.365Y-181.21G85X126.365Y-182.01
G05
X126.365Y-183.75G85X126.365Y-184.55
G05
X126.365Y-183.75G85X126.365Y-184.55
G05
X141.605Y-135.49G85X141.605Y-136.29
G05
X141.605Y-138.03G85X141.605Y-138.83
G05
X141.605Y-181.21G85X141.605Y-182.01
G05
X141.605Y-183.75G85X141.605Y-184.55
G05
T0
M30
