%TF.GenerationSoftware,KiCad,Pcbnew,7.0.7*%
%TF.CreationDate,2023-10-12T12:02:56-07:00*%
%TF.ProjectId,JumperLUX,4a756d70-6572-44c5-9558-2e6b69636164,rev?*%
%TF.SameCoordinates,Original*%
%TF.FileFunction,Drillmap*%
%TF.FilePolarity,Positive*%
%FSLAX45Y45*%
G04 Gerber Fmt 4.5, Leading zero omitted, Abs format (unit mm)*
G04 Created by KiCad (PCBNEW 7.0.7) date 2023-10-12 12:02:56*
%MOMM*%
%LPD*%
G01*
G04 APERTURE LIST*
%ADD10C,0.050000*%
%ADD11C,0.200000*%
G04 APERTURE END LIST*
D10*
X6223000Y-7683500D02*
X6223000Y-10160000D01*
X6362700Y-18148300D02*
X6362700Y-18409920D01*
X6413500Y-10350500D02*
X6223000Y-10541000D01*
X6223000Y-13258800D02*
X6553200Y-13258800D01*
X6807200Y-18592800D02*
X6807200Y-18732500D01*
X6223000Y-13855700D02*
X6223000Y-18148300D01*
X14287500Y-10350500D02*
X14478000Y-10160000D01*
X6223000Y-10541000D02*
X6223000Y-13256260D01*
X6362700Y-18409920D02*
X6545580Y-18592800D01*
X6807200Y-18732500D02*
X13893800Y-18732500D01*
X14478000Y-13258800D02*
X14478000Y-10541000D01*
X14478000Y-10541000D02*
X14287500Y-10350500D01*
X6362700Y-13855700D02*
X6223000Y-13855700D01*
X14478000Y-13855700D02*
X14338300Y-13855700D01*
X14478000Y-7683500D02*
X14287500Y-7493000D01*
X6223000Y-18148300D02*
X6362700Y-18148300D01*
X14478000Y-18148300D02*
X14478000Y-13855700D01*
X14152880Y-18592800D02*
X14338300Y-18407380D01*
X6413500Y-7493000D02*
X6223000Y-7683500D01*
X14338300Y-18148300D02*
X14478000Y-18148300D01*
X14338300Y-18407380D02*
X14338300Y-18148300D01*
X13893800Y-18592800D02*
X14152880Y-18592800D01*
X14338300Y-13855700D02*
X14338300Y-13596620D01*
X13893800Y-18732500D02*
X13893800Y-18592800D01*
X14147800Y-13258800D02*
X14478000Y-13258800D01*
X14287500Y-7493000D02*
X6413500Y-7493000D01*
X6553200Y-13403580D02*
X6362700Y-13594080D01*
X6362700Y-13853160D02*
X6362700Y-13855700D01*
X6545580Y-18592800D02*
X6807200Y-18592800D01*
X14478000Y-10160000D02*
X14478000Y-7683500D01*
X6223000Y-10160000D02*
X6413500Y-10350500D01*
X14338300Y-13596620D02*
X14147800Y-13406120D01*
X6362700Y-13594080D02*
X6362700Y-13853160D01*
X6223000Y-13256260D02*
X6223000Y-13258800D01*
X14147800Y-13406120D02*
X14147800Y-13258800D01*
X6553200Y-13258800D02*
X6553200Y-13403580D01*
D11*
D10*
X6515500Y-10325500D02*
X6565500Y-10375500D01*
X6565500Y-10325500D02*
X6515500Y-10375500D01*
X6642500Y-10325500D02*
X6692500Y-10375500D01*
X6692500Y-10325500D02*
X6642500Y-10375500D01*
X6642500Y-13310000D02*
X6692500Y-13360000D01*
X6692500Y-13310000D02*
X6642500Y-13360000D01*
X6769500Y-10325500D02*
X6819500Y-10375500D01*
X6819500Y-10325500D02*
X6769500Y-10375500D01*
X6769500Y-13310000D02*
X6819500Y-13360000D01*
X6819500Y-13310000D02*
X6769500Y-13360000D01*
X6896500Y-10325500D02*
X6946500Y-10375500D01*
X6946500Y-10325500D02*
X6896500Y-10375500D01*
X6896500Y-13310000D02*
X6946500Y-13360000D01*
X6946500Y-13310000D02*
X6896500Y-13360000D01*
X7023500Y-10325500D02*
X7073500Y-10375500D01*
X7073500Y-10325500D02*
X7023500Y-10375500D01*
X7150500Y-10325500D02*
X7200500Y-10375500D01*
X7200500Y-10325500D02*
X7150500Y-10375500D01*
X7150500Y-13310000D02*
X7200500Y-13360000D01*
X7200500Y-13310000D02*
X7150500Y-13360000D01*
X7277500Y-10325500D02*
X7327500Y-10375500D01*
X7327500Y-10325500D02*
X7277500Y-10375500D01*
X7277500Y-13310000D02*
X7327500Y-13360000D01*
X7327500Y-13310000D02*
X7277500Y-13360000D01*
X7404500Y-10325500D02*
X7454500Y-10375500D01*
X7454500Y-10325500D02*
X7404500Y-10375500D01*
X7404500Y-13310000D02*
X7454500Y-13360000D01*
X7454500Y-13310000D02*
X7404500Y-13360000D01*
X7531500Y-10325500D02*
X7581500Y-10375500D01*
X7581500Y-10325500D02*
X7531500Y-10375500D01*
X7658500Y-10325500D02*
X7708500Y-10375500D01*
X7708500Y-10325500D02*
X7658500Y-10375500D01*
X7658500Y-13310000D02*
X7708500Y-13360000D01*
X7708500Y-13310000D02*
X7658500Y-13360000D01*
X7785500Y-10325500D02*
X7835500Y-10375500D01*
X7835500Y-10325500D02*
X7785500Y-10375500D01*
X7785500Y-13310000D02*
X7835500Y-13360000D01*
X7835500Y-13310000D02*
X7785500Y-13360000D01*
X7912500Y-10325500D02*
X7962500Y-10375500D01*
X7962500Y-10325500D02*
X7912500Y-10375500D01*
X7912500Y-13310000D02*
X7962500Y-13360000D01*
X7962500Y-13310000D02*
X7912500Y-13360000D01*
X8039500Y-10325500D02*
X8089500Y-10375500D01*
X8089500Y-10325500D02*
X8039500Y-10375500D01*
X8166500Y-10325500D02*
X8216500Y-10375500D01*
X8216500Y-10325500D02*
X8166500Y-10375500D01*
X8166500Y-13310000D02*
X8216500Y-13360000D01*
X8216500Y-13310000D02*
X8166500Y-13360000D01*
X8293500Y-10325500D02*
X8343500Y-10375500D01*
X8343500Y-10325500D02*
X8293500Y-10375500D01*
X8293500Y-13310000D02*
X8343500Y-13360000D01*
X8343500Y-13310000D02*
X8293500Y-13360000D01*
X8420500Y-10325500D02*
X8470500Y-10375500D01*
X8470500Y-10325500D02*
X8420500Y-10375500D01*
X8420500Y-13310000D02*
X8470500Y-13360000D01*
X8470500Y-13310000D02*
X8420500Y-13360000D01*
X8547500Y-10325500D02*
X8597500Y-10375500D01*
X8597500Y-10325500D02*
X8547500Y-10375500D01*
X8674500Y-10325500D02*
X8724500Y-10375500D01*
X8724500Y-10325500D02*
X8674500Y-10375500D01*
X8674500Y-13310000D02*
X8724500Y-13360000D01*
X8724500Y-13310000D02*
X8674500Y-13360000D01*
X8801500Y-10325500D02*
X8851500Y-10375500D01*
X8851500Y-10325500D02*
X8801500Y-10375500D01*
X8801500Y-13310000D02*
X8851500Y-13360000D01*
X8851500Y-13310000D02*
X8801500Y-13360000D01*
X8928500Y-10325500D02*
X8978500Y-10375500D01*
X8978500Y-10325500D02*
X8928500Y-10375500D01*
X8928500Y-13310000D02*
X8978500Y-13360000D01*
X8978500Y-13310000D02*
X8928500Y-13360000D01*
X9055500Y-10325500D02*
X9105500Y-10375500D01*
X9105500Y-10325500D02*
X9055500Y-10375500D01*
X9182500Y-10325500D02*
X9232500Y-10375500D01*
X9232500Y-10325500D02*
X9182500Y-10375500D01*
X9182500Y-13310000D02*
X9232500Y-13360000D01*
X9232500Y-13310000D02*
X9182500Y-13360000D01*
X9309500Y-10325500D02*
X9359500Y-10375500D01*
X9359500Y-10325500D02*
X9309500Y-10375500D01*
X9309500Y-13310000D02*
X9359500Y-13360000D01*
X9359500Y-13310000D02*
X9309500Y-13360000D01*
X9436500Y-10325500D02*
X9486500Y-10375500D01*
X9486500Y-10325500D02*
X9436500Y-10375500D01*
X9436500Y-13310000D02*
X9486500Y-13360000D01*
X9486500Y-13310000D02*
X9436500Y-13360000D01*
X9563500Y-10325500D02*
X9613500Y-10375500D01*
X9613500Y-10325500D02*
X9563500Y-10375500D01*
X9690500Y-10325500D02*
X9740500Y-10375500D01*
X9740500Y-10325500D02*
X9690500Y-10375500D01*
X9690500Y-13310000D02*
X9740500Y-13360000D01*
X9740500Y-13310000D02*
X9690500Y-13360000D01*
X9817500Y-10325500D02*
X9867500Y-10375500D01*
X9867500Y-10325500D02*
X9817500Y-10375500D01*
X9817500Y-13310000D02*
X9867500Y-13360000D01*
X9867500Y-13310000D02*
X9817500Y-13360000D01*
X9944500Y-10325500D02*
X9994500Y-10375500D01*
X9994500Y-10325500D02*
X9944500Y-10375500D01*
X9944500Y-13310000D02*
X9994500Y-13360000D01*
X9994500Y-13310000D02*
X9944500Y-13360000D01*
X10071500Y-10325500D02*
X10121500Y-10375500D01*
X10121500Y-10325500D02*
X10071500Y-10375500D01*
X10198500Y-10325500D02*
X10248500Y-10375500D01*
X10248500Y-10325500D02*
X10198500Y-10375500D01*
X10198500Y-13310000D02*
X10248500Y-13360000D01*
X10248500Y-13310000D02*
X10198500Y-13360000D01*
X10325500Y-10325500D02*
X10375500Y-10375500D01*
X10375500Y-10325500D02*
X10325500Y-10375500D01*
X10325500Y-13310000D02*
X10375500Y-13360000D01*
X10375500Y-13310000D02*
X10325500Y-13360000D01*
X10452500Y-10325500D02*
X10502500Y-10375500D01*
X10502500Y-10325500D02*
X10452500Y-10375500D01*
X10452500Y-13310000D02*
X10502500Y-13360000D01*
X10502500Y-13310000D02*
X10452500Y-13360000D01*
X10579500Y-10325500D02*
X10629500Y-10375500D01*
X10629500Y-10325500D02*
X10579500Y-10375500D01*
X10706500Y-10325500D02*
X10756500Y-10375500D01*
X10756500Y-10325500D02*
X10706500Y-10375500D01*
X10706500Y-13310000D02*
X10756500Y-13360000D01*
X10756500Y-13310000D02*
X10706500Y-13360000D01*
X10833500Y-10325500D02*
X10883500Y-10375500D01*
X10883500Y-10325500D02*
X10833500Y-10375500D01*
X10833500Y-13310000D02*
X10883500Y-13360000D01*
X10883500Y-13310000D02*
X10833500Y-13360000D01*
X10960500Y-10325500D02*
X11010500Y-10375500D01*
X11010500Y-10325500D02*
X10960500Y-10375500D01*
X10960500Y-13310000D02*
X11010500Y-13360000D01*
X11010500Y-13310000D02*
X10960500Y-13360000D01*
X11087500Y-10325500D02*
X11137500Y-10375500D01*
X11137500Y-10325500D02*
X11087500Y-10375500D01*
X11214500Y-10325500D02*
X11264500Y-10375500D01*
X11264500Y-10325500D02*
X11214500Y-10375500D01*
X11214500Y-13310000D02*
X11264500Y-13360000D01*
X11264500Y-13310000D02*
X11214500Y-13360000D01*
X11341500Y-10325500D02*
X11391500Y-10375500D01*
X11391500Y-10325500D02*
X11341500Y-10375500D01*
X11341500Y-13310000D02*
X11391500Y-13360000D01*
X11391500Y-13310000D02*
X11341500Y-13360000D01*
X11468500Y-10325500D02*
X11518500Y-10375500D01*
X11518500Y-10325500D02*
X11468500Y-10375500D01*
X11468500Y-13310000D02*
X11518500Y-13360000D01*
X11518500Y-13310000D02*
X11468500Y-13360000D01*
X11595500Y-10325500D02*
X11645500Y-10375500D01*
X11645500Y-10325500D02*
X11595500Y-10375500D01*
X11722500Y-10325500D02*
X11772500Y-10375500D01*
X11772500Y-10325500D02*
X11722500Y-10375500D01*
X11722500Y-13310000D02*
X11772500Y-13360000D01*
X11772500Y-13310000D02*
X11722500Y-13360000D01*
X11849500Y-10325500D02*
X11899500Y-10375500D01*
X11899500Y-10325500D02*
X11849500Y-10375500D01*
X11849500Y-13310000D02*
X11899500Y-13360000D01*
X11899500Y-13310000D02*
X11849500Y-13360000D01*
X11976500Y-10325500D02*
X12026500Y-10375500D01*
X12026500Y-10325500D02*
X11976500Y-10375500D01*
X11976500Y-13310000D02*
X12026500Y-13360000D01*
X12026500Y-13310000D02*
X11976500Y-13360000D01*
X12103500Y-10325500D02*
X12153500Y-10375500D01*
X12153500Y-10325500D02*
X12103500Y-10375500D01*
X12230500Y-10325500D02*
X12280500Y-10375500D01*
X12280500Y-10325500D02*
X12230500Y-10375500D01*
X12230500Y-13310000D02*
X12280500Y-13360000D01*
X12280500Y-13310000D02*
X12230500Y-13360000D01*
X12357500Y-10325500D02*
X12407500Y-10375500D01*
X12407500Y-10325500D02*
X12357500Y-10375500D01*
X12357500Y-13310000D02*
X12407500Y-13360000D01*
X12407500Y-13310000D02*
X12357500Y-13360000D01*
X12484500Y-10325500D02*
X12534500Y-10375500D01*
X12534500Y-10325500D02*
X12484500Y-10375500D01*
X12484500Y-13310000D02*
X12534500Y-13360000D01*
X12534500Y-13310000D02*
X12484500Y-13360000D01*
X12611500Y-10325500D02*
X12661500Y-10375500D01*
X12661500Y-10325500D02*
X12611500Y-10375500D01*
X12738500Y-10325500D02*
X12788500Y-10375500D01*
X12788500Y-10325500D02*
X12738500Y-10375500D01*
X12738500Y-13310000D02*
X12788500Y-13360000D01*
X12788500Y-13310000D02*
X12738500Y-13360000D01*
X12865500Y-10325500D02*
X12915500Y-10375500D01*
X12915500Y-10325500D02*
X12865500Y-10375500D01*
X12865500Y-13310000D02*
X12915500Y-13360000D01*
X12915500Y-13310000D02*
X12865500Y-13360000D01*
X12992500Y-10325500D02*
X13042500Y-10375500D01*
X13042500Y-10325500D02*
X12992500Y-10375500D01*
X12992500Y-13310000D02*
X13042500Y-13360000D01*
X13042500Y-13310000D02*
X12992500Y-13360000D01*
X13119500Y-10325500D02*
X13169500Y-10375500D01*
X13169500Y-10325500D02*
X13119500Y-10375500D01*
X13246500Y-10325500D02*
X13296500Y-10375500D01*
X13296500Y-10325500D02*
X13246500Y-10375500D01*
X13246500Y-13310000D02*
X13296500Y-13360000D01*
X13296500Y-13310000D02*
X13246500Y-13360000D01*
X13373500Y-10325500D02*
X13423500Y-10375500D01*
X13423500Y-10325500D02*
X13373500Y-10375500D01*
X13373500Y-13310000D02*
X13423500Y-13360000D01*
X13423500Y-13310000D02*
X13373500Y-13360000D01*
X13500500Y-10325500D02*
X13550500Y-10375500D01*
X13550500Y-10325500D02*
X13500500Y-10375500D01*
X13500500Y-13310000D02*
X13550500Y-13360000D01*
X13550500Y-13310000D02*
X13500500Y-13360000D01*
X13627500Y-10325500D02*
X13677500Y-10375500D01*
X13677500Y-10325500D02*
X13627500Y-10375500D01*
X13754500Y-10325500D02*
X13804500Y-10375500D01*
X13804500Y-10325500D02*
X13754500Y-10375500D01*
X13754500Y-13310000D02*
X13804500Y-13360000D01*
X13804500Y-13310000D02*
X13754500Y-13360000D01*
X13881500Y-10325500D02*
X13931500Y-10375500D01*
X13931500Y-10325500D02*
X13881500Y-10375500D01*
X13881500Y-13310000D02*
X13931500Y-13360000D01*
X13931500Y-13310000D02*
X13881500Y-13360000D01*
X14008500Y-10325500D02*
X14058500Y-10375500D01*
X14058500Y-10325500D02*
X14008500Y-10375500D01*
X14008500Y-13310000D02*
X14058500Y-13360000D01*
X14058500Y-13310000D02*
X14008500Y-13360000D01*
X14135500Y-10325500D02*
X14185500Y-10375500D01*
X14185500Y-10325500D02*
X14135500Y-10375500D01*
D11*
X6481277Y-19046484D02*
X6481277Y-18846484D01*
X6481277Y-18846484D02*
X6528896Y-18846484D01*
X6528896Y-18846484D02*
X6557467Y-18856008D01*
X6557467Y-18856008D02*
X6576515Y-18875055D01*
X6576515Y-18875055D02*
X6586039Y-18894103D01*
X6586039Y-18894103D02*
X6595562Y-18932198D01*
X6595562Y-18932198D02*
X6595562Y-18960770D01*
X6595562Y-18960770D02*
X6586039Y-18998865D01*
X6586039Y-18998865D02*
X6576515Y-19017912D01*
X6576515Y-19017912D02*
X6557467Y-19036960D01*
X6557467Y-19036960D02*
X6528896Y-19046484D01*
X6528896Y-19046484D02*
X6481277Y-19046484D01*
X6681277Y-19046484D02*
X6681277Y-18913150D01*
X6681277Y-18951246D02*
X6690801Y-18932198D01*
X6690801Y-18932198D02*
X6700324Y-18922674D01*
X6700324Y-18922674D02*
X6719372Y-18913150D01*
X6719372Y-18913150D02*
X6738420Y-18913150D01*
X6805086Y-19046484D02*
X6805086Y-18913150D01*
X6805086Y-18846484D02*
X6795562Y-18856008D01*
X6795562Y-18856008D02*
X6805086Y-18865531D01*
X6805086Y-18865531D02*
X6814610Y-18856008D01*
X6814610Y-18856008D02*
X6805086Y-18846484D01*
X6805086Y-18846484D02*
X6805086Y-18865531D01*
X6928896Y-19046484D02*
X6909848Y-19036960D01*
X6909848Y-19036960D02*
X6900324Y-19017912D01*
X6900324Y-19017912D02*
X6900324Y-18846484D01*
X7033658Y-19046484D02*
X7014610Y-19036960D01*
X7014610Y-19036960D02*
X7005086Y-19017912D01*
X7005086Y-19017912D02*
X7005086Y-18846484D01*
X7262229Y-19046484D02*
X7262229Y-18846484D01*
X7262229Y-18846484D02*
X7328896Y-18989341D01*
X7328896Y-18989341D02*
X7395562Y-18846484D01*
X7395562Y-18846484D02*
X7395562Y-19046484D01*
X7576515Y-19046484D02*
X7576515Y-18941722D01*
X7576515Y-18941722D02*
X7566991Y-18922674D01*
X7566991Y-18922674D02*
X7547943Y-18913150D01*
X7547943Y-18913150D02*
X7509848Y-18913150D01*
X7509848Y-18913150D02*
X7490801Y-18922674D01*
X7576515Y-19036960D02*
X7557467Y-19046484D01*
X7557467Y-19046484D02*
X7509848Y-19046484D01*
X7509848Y-19046484D02*
X7490801Y-19036960D01*
X7490801Y-19036960D02*
X7481277Y-19017912D01*
X7481277Y-19017912D02*
X7481277Y-18998865D01*
X7481277Y-18998865D02*
X7490801Y-18979817D01*
X7490801Y-18979817D02*
X7509848Y-18970293D01*
X7509848Y-18970293D02*
X7557467Y-18970293D01*
X7557467Y-18970293D02*
X7576515Y-18960770D01*
X7671753Y-18913150D02*
X7671753Y-19113150D01*
X7671753Y-18922674D02*
X7690801Y-18913150D01*
X7690801Y-18913150D02*
X7728896Y-18913150D01*
X7728896Y-18913150D02*
X7747943Y-18922674D01*
X7747943Y-18922674D02*
X7757467Y-18932198D01*
X7757467Y-18932198D02*
X7766991Y-18951246D01*
X7766991Y-18951246D02*
X7766991Y-19008389D01*
X7766991Y-19008389D02*
X7757467Y-19027436D01*
X7757467Y-19027436D02*
X7747943Y-19036960D01*
X7747943Y-19036960D02*
X7728896Y-19046484D01*
X7728896Y-19046484D02*
X7690801Y-19046484D01*
X7690801Y-19046484D02*
X7671753Y-19036960D01*
X7852705Y-19027436D02*
X7862229Y-19036960D01*
X7862229Y-19036960D02*
X7852705Y-19046484D01*
X7852705Y-19046484D02*
X7843182Y-19036960D01*
X7843182Y-19036960D02*
X7852705Y-19027436D01*
X7852705Y-19027436D02*
X7852705Y-19046484D01*
X7852705Y-18922674D02*
X7862229Y-18932198D01*
X7862229Y-18932198D02*
X7852705Y-18941722D01*
X7852705Y-18941722D02*
X7843182Y-18932198D01*
X7843182Y-18932198D02*
X7852705Y-18922674D01*
X7852705Y-18922674D02*
X7852705Y-18941722D01*
D10*
X6170500Y-19350000D02*
X6220500Y-19400000D01*
X6220500Y-19350000D02*
X6170500Y-19400000D01*
D11*
X6519372Y-19266484D02*
X6538420Y-19266484D01*
X6538420Y-19266484D02*
X6557467Y-19276008D01*
X6557467Y-19276008D02*
X6566991Y-19285531D01*
X6566991Y-19285531D02*
X6576515Y-19304579D01*
X6576515Y-19304579D02*
X6586039Y-19342674D01*
X6586039Y-19342674D02*
X6586039Y-19390293D01*
X6586039Y-19390293D02*
X6576515Y-19428389D01*
X6576515Y-19428389D02*
X6566991Y-19447436D01*
X6566991Y-19447436D02*
X6557467Y-19456960D01*
X6557467Y-19456960D02*
X6538420Y-19466484D01*
X6538420Y-19466484D02*
X6519372Y-19466484D01*
X6519372Y-19466484D02*
X6500324Y-19456960D01*
X6500324Y-19456960D02*
X6490801Y-19447436D01*
X6490801Y-19447436D02*
X6481277Y-19428389D01*
X6481277Y-19428389D02*
X6471753Y-19390293D01*
X6471753Y-19390293D02*
X6471753Y-19342674D01*
X6471753Y-19342674D02*
X6481277Y-19304579D01*
X6481277Y-19304579D02*
X6490801Y-19285531D01*
X6490801Y-19285531D02*
X6500324Y-19276008D01*
X6500324Y-19276008D02*
X6519372Y-19266484D01*
X6671753Y-19447436D02*
X6681277Y-19456960D01*
X6681277Y-19456960D02*
X6671753Y-19466484D01*
X6671753Y-19466484D02*
X6662229Y-19456960D01*
X6662229Y-19456960D02*
X6671753Y-19447436D01*
X6671753Y-19447436D02*
X6671753Y-19466484D01*
X6862229Y-19266484D02*
X6766991Y-19266484D01*
X6766991Y-19266484D02*
X6757467Y-19361722D01*
X6757467Y-19361722D02*
X6766991Y-19352198D01*
X6766991Y-19352198D02*
X6786039Y-19342674D01*
X6786039Y-19342674D02*
X6833658Y-19342674D01*
X6833658Y-19342674D02*
X6852705Y-19352198D01*
X6852705Y-19352198D02*
X6862229Y-19361722D01*
X6862229Y-19361722D02*
X6871753Y-19380770D01*
X6871753Y-19380770D02*
X6871753Y-19428389D01*
X6871753Y-19428389D02*
X6862229Y-19447436D01*
X6862229Y-19447436D02*
X6852705Y-19456960D01*
X6852705Y-19456960D02*
X6833658Y-19466484D01*
X6833658Y-19466484D02*
X6786039Y-19466484D01*
X6786039Y-19466484D02*
X6766991Y-19456960D01*
X6766991Y-19456960D02*
X6757467Y-19447436D01*
X6995562Y-19266484D02*
X7014610Y-19266484D01*
X7014610Y-19266484D02*
X7033658Y-19276008D01*
X7033658Y-19276008D02*
X7043182Y-19285531D01*
X7043182Y-19285531D02*
X7052705Y-19304579D01*
X7052705Y-19304579D02*
X7062229Y-19342674D01*
X7062229Y-19342674D02*
X7062229Y-19390293D01*
X7062229Y-19390293D02*
X7052705Y-19428389D01*
X7052705Y-19428389D02*
X7043182Y-19447436D01*
X7043182Y-19447436D02*
X7033658Y-19456960D01*
X7033658Y-19456960D02*
X7014610Y-19466484D01*
X7014610Y-19466484D02*
X6995562Y-19466484D01*
X6995562Y-19466484D02*
X6976515Y-19456960D01*
X6976515Y-19456960D02*
X6966991Y-19447436D01*
X6966991Y-19447436D02*
X6957467Y-19428389D01*
X6957467Y-19428389D02*
X6947943Y-19390293D01*
X6947943Y-19390293D02*
X6947943Y-19342674D01*
X6947943Y-19342674D02*
X6957467Y-19304579D01*
X6957467Y-19304579D02*
X6966991Y-19285531D01*
X6966991Y-19285531D02*
X6976515Y-19276008D01*
X6976515Y-19276008D02*
X6995562Y-19266484D01*
X7186039Y-19266484D02*
X7205086Y-19266484D01*
X7205086Y-19266484D02*
X7224134Y-19276008D01*
X7224134Y-19276008D02*
X7233658Y-19285531D01*
X7233658Y-19285531D02*
X7243182Y-19304579D01*
X7243182Y-19304579D02*
X7252705Y-19342674D01*
X7252705Y-19342674D02*
X7252705Y-19390293D01*
X7252705Y-19390293D02*
X7243182Y-19428389D01*
X7243182Y-19428389D02*
X7233658Y-19447436D01*
X7233658Y-19447436D02*
X7224134Y-19456960D01*
X7224134Y-19456960D02*
X7205086Y-19466484D01*
X7205086Y-19466484D02*
X7186039Y-19466484D01*
X7186039Y-19466484D02*
X7166991Y-19456960D01*
X7166991Y-19456960D02*
X7157467Y-19447436D01*
X7157467Y-19447436D02*
X7147943Y-19428389D01*
X7147943Y-19428389D02*
X7138420Y-19390293D01*
X7138420Y-19390293D02*
X7138420Y-19342674D01*
X7138420Y-19342674D02*
X7147943Y-19304579D01*
X7147943Y-19304579D02*
X7157467Y-19285531D01*
X7157467Y-19285531D02*
X7166991Y-19276008D01*
X7166991Y-19276008D02*
X7186039Y-19266484D01*
X7338420Y-19466484D02*
X7338420Y-19333150D01*
X7338420Y-19352198D02*
X7347943Y-19342674D01*
X7347943Y-19342674D02*
X7366991Y-19333150D01*
X7366991Y-19333150D02*
X7395563Y-19333150D01*
X7395563Y-19333150D02*
X7414610Y-19342674D01*
X7414610Y-19342674D02*
X7424134Y-19361722D01*
X7424134Y-19361722D02*
X7424134Y-19466484D01*
X7424134Y-19361722D02*
X7433658Y-19342674D01*
X7433658Y-19342674D02*
X7452705Y-19333150D01*
X7452705Y-19333150D02*
X7481277Y-19333150D01*
X7481277Y-19333150D02*
X7500324Y-19342674D01*
X7500324Y-19342674D02*
X7509848Y-19361722D01*
X7509848Y-19361722D02*
X7509848Y-19466484D01*
X7605086Y-19466484D02*
X7605086Y-19333150D01*
X7605086Y-19352198D02*
X7614610Y-19342674D01*
X7614610Y-19342674D02*
X7633658Y-19333150D01*
X7633658Y-19333150D02*
X7662229Y-19333150D01*
X7662229Y-19333150D02*
X7681277Y-19342674D01*
X7681277Y-19342674D02*
X7690801Y-19361722D01*
X7690801Y-19361722D02*
X7690801Y-19466484D01*
X7690801Y-19361722D02*
X7700324Y-19342674D01*
X7700324Y-19342674D02*
X7719372Y-19333150D01*
X7719372Y-19333150D02*
X7747943Y-19333150D01*
X7747943Y-19333150D02*
X7766991Y-19342674D01*
X7766991Y-19342674D02*
X7776515Y-19361722D01*
X7776515Y-19361722D02*
X7776515Y-19466484D01*
X8166991Y-19256960D02*
X7995563Y-19514103D01*
X8424134Y-19266484D02*
X8443182Y-19266484D01*
X8443182Y-19266484D02*
X8462229Y-19276008D01*
X8462229Y-19276008D02*
X8471753Y-19285531D01*
X8471753Y-19285531D02*
X8481277Y-19304579D01*
X8481277Y-19304579D02*
X8490801Y-19342674D01*
X8490801Y-19342674D02*
X8490801Y-19390293D01*
X8490801Y-19390293D02*
X8481277Y-19428389D01*
X8481277Y-19428389D02*
X8471753Y-19447436D01*
X8471753Y-19447436D02*
X8462229Y-19456960D01*
X8462229Y-19456960D02*
X8443182Y-19466484D01*
X8443182Y-19466484D02*
X8424134Y-19466484D01*
X8424134Y-19466484D02*
X8405087Y-19456960D01*
X8405087Y-19456960D02*
X8395563Y-19447436D01*
X8395563Y-19447436D02*
X8386039Y-19428389D01*
X8386039Y-19428389D02*
X8376515Y-19390293D01*
X8376515Y-19390293D02*
X8376515Y-19342674D01*
X8376515Y-19342674D02*
X8386039Y-19304579D01*
X8386039Y-19304579D02*
X8395563Y-19285531D01*
X8395563Y-19285531D02*
X8405087Y-19276008D01*
X8405087Y-19276008D02*
X8424134Y-19266484D01*
X8576515Y-19447436D02*
X8586039Y-19456960D01*
X8586039Y-19456960D02*
X8576515Y-19466484D01*
X8576515Y-19466484D02*
X8566991Y-19456960D01*
X8566991Y-19456960D02*
X8576515Y-19447436D01*
X8576515Y-19447436D02*
X8576515Y-19466484D01*
X8709848Y-19266484D02*
X8728896Y-19266484D01*
X8728896Y-19266484D02*
X8747944Y-19276008D01*
X8747944Y-19276008D02*
X8757468Y-19285531D01*
X8757468Y-19285531D02*
X8766991Y-19304579D01*
X8766991Y-19304579D02*
X8776515Y-19342674D01*
X8776515Y-19342674D02*
X8776515Y-19390293D01*
X8776515Y-19390293D02*
X8766991Y-19428389D01*
X8766991Y-19428389D02*
X8757468Y-19447436D01*
X8757468Y-19447436D02*
X8747944Y-19456960D01*
X8747944Y-19456960D02*
X8728896Y-19466484D01*
X8728896Y-19466484D02*
X8709848Y-19466484D01*
X8709848Y-19466484D02*
X8690801Y-19456960D01*
X8690801Y-19456960D02*
X8681277Y-19447436D01*
X8681277Y-19447436D02*
X8671753Y-19428389D01*
X8671753Y-19428389D02*
X8662229Y-19390293D01*
X8662229Y-19390293D02*
X8662229Y-19342674D01*
X8662229Y-19342674D02*
X8671753Y-19304579D01*
X8671753Y-19304579D02*
X8681277Y-19285531D01*
X8681277Y-19285531D02*
X8690801Y-19276008D01*
X8690801Y-19276008D02*
X8709848Y-19266484D01*
X8966991Y-19466484D02*
X8852706Y-19466484D01*
X8909848Y-19466484D02*
X8909848Y-19266484D01*
X8909848Y-19266484D02*
X8890801Y-19295055D01*
X8890801Y-19295055D02*
X8871753Y-19314103D01*
X8871753Y-19314103D02*
X8852706Y-19323627D01*
X9062229Y-19466484D02*
X9100325Y-19466484D01*
X9100325Y-19466484D02*
X9119372Y-19456960D01*
X9119372Y-19456960D02*
X9128896Y-19447436D01*
X9128896Y-19447436D02*
X9147944Y-19418865D01*
X9147944Y-19418865D02*
X9157468Y-19380770D01*
X9157468Y-19380770D02*
X9157468Y-19304579D01*
X9157468Y-19304579D02*
X9147944Y-19285531D01*
X9147944Y-19285531D02*
X9138420Y-19276008D01*
X9138420Y-19276008D02*
X9119372Y-19266484D01*
X9119372Y-19266484D02*
X9081277Y-19266484D01*
X9081277Y-19266484D02*
X9062229Y-19276008D01*
X9062229Y-19276008D02*
X9052706Y-19285531D01*
X9052706Y-19285531D02*
X9043182Y-19304579D01*
X9043182Y-19304579D02*
X9043182Y-19352198D01*
X9043182Y-19352198D02*
X9052706Y-19371246D01*
X9052706Y-19371246D02*
X9062229Y-19380770D01*
X9062229Y-19380770D02*
X9081277Y-19390293D01*
X9081277Y-19390293D02*
X9119372Y-19390293D01*
X9119372Y-19390293D02*
X9138420Y-19380770D01*
X9138420Y-19380770D02*
X9147944Y-19371246D01*
X9147944Y-19371246D02*
X9157468Y-19352198D01*
X9224134Y-19266484D02*
X9357468Y-19266484D01*
X9357468Y-19266484D02*
X9271753Y-19466484D01*
X9424134Y-19266484D02*
X9424134Y-19304579D01*
X9500325Y-19266484D02*
X9500325Y-19304579D01*
X9795563Y-19542674D02*
X9786039Y-19533150D01*
X9786039Y-19533150D02*
X9766991Y-19504579D01*
X9766991Y-19504579D02*
X9757468Y-19485531D01*
X9757468Y-19485531D02*
X9747944Y-19456960D01*
X9747944Y-19456960D02*
X9738420Y-19409341D01*
X9738420Y-19409341D02*
X9738420Y-19371246D01*
X9738420Y-19371246D02*
X9747944Y-19323627D01*
X9747944Y-19323627D02*
X9757468Y-19295055D01*
X9757468Y-19295055D02*
X9766991Y-19276008D01*
X9766991Y-19276008D02*
X9786039Y-19247436D01*
X9786039Y-19247436D02*
X9795563Y-19237912D01*
X9976515Y-19466484D02*
X9862230Y-19466484D01*
X9919372Y-19466484D02*
X9919372Y-19266484D01*
X9919372Y-19266484D02*
X9900325Y-19295055D01*
X9900325Y-19295055D02*
X9881277Y-19314103D01*
X9881277Y-19314103D02*
X9862230Y-19323627D01*
X10100325Y-19266484D02*
X10119372Y-19266484D01*
X10119372Y-19266484D02*
X10138420Y-19276008D01*
X10138420Y-19276008D02*
X10147944Y-19285531D01*
X10147944Y-19285531D02*
X10157468Y-19304579D01*
X10157468Y-19304579D02*
X10166991Y-19342674D01*
X10166991Y-19342674D02*
X10166991Y-19390293D01*
X10166991Y-19390293D02*
X10157468Y-19428389D01*
X10157468Y-19428389D02*
X10147944Y-19447436D01*
X10147944Y-19447436D02*
X10138420Y-19456960D01*
X10138420Y-19456960D02*
X10119372Y-19466484D01*
X10119372Y-19466484D02*
X10100325Y-19466484D01*
X10100325Y-19466484D02*
X10081277Y-19456960D01*
X10081277Y-19456960D02*
X10071753Y-19447436D01*
X10071753Y-19447436D02*
X10062230Y-19428389D01*
X10062230Y-19428389D02*
X10052706Y-19390293D01*
X10052706Y-19390293D02*
X10052706Y-19342674D01*
X10052706Y-19342674D02*
X10062230Y-19304579D01*
X10062230Y-19304579D02*
X10071753Y-19285531D01*
X10071753Y-19285531D02*
X10081277Y-19276008D01*
X10081277Y-19276008D02*
X10100325Y-19266484D01*
X10338420Y-19266484D02*
X10300325Y-19266484D01*
X10300325Y-19266484D02*
X10281277Y-19276008D01*
X10281277Y-19276008D02*
X10271753Y-19285531D01*
X10271753Y-19285531D02*
X10252706Y-19314103D01*
X10252706Y-19314103D02*
X10243182Y-19352198D01*
X10243182Y-19352198D02*
X10243182Y-19428389D01*
X10243182Y-19428389D02*
X10252706Y-19447436D01*
X10252706Y-19447436D02*
X10262230Y-19456960D01*
X10262230Y-19456960D02*
X10281277Y-19466484D01*
X10281277Y-19466484D02*
X10319372Y-19466484D01*
X10319372Y-19466484D02*
X10338420Y-19456960D01*
X10338420Y-19456960D02*
X10347944Y-19447436D01*
X10347944Y-19447436D02*
X10357468Y-19428389D01*
X10357468Y-19428389D02*
X10357468Y-19380770D01*
X10357468Y-19380770D02*
X10347944Y-19361722D01*
X10347944Y-19361722D02*
X10338420Y-19352198D01*
X10338420Y-19352198D02*
X10319372Y-19342674D01*
X10319372Y-19342674D02*
X10281277Y-19342674D01*
X10281277Y-19342674D02*
X10262230Y-19352198D01*
X10262230Y-19352198D02*
X10252706Y-19361722D01*
X10252706Y-19361722D02*
X10243182Y-19380770D01*
X10595563Y-19466484D02*
X10595563Y-19266484D01*
X10681277Y-19466484D02*
X10681277Y-19361722D01*
X10681277Y-19361722D02*
X10671753Y-19342674D01*
X10671753Y-19342674D02*
X10652706Y-19333150D01*
X10652706Y-19333150D02*
X10624134Y-19333150D01*
X10624134Y-19333150D02*
X10605087Y-19342674D01*
X10605087Y-19342674D02*
X10595563Y-19352198D01*
X10805087Y-19466484D02*
X10786039Y-19456960D01*
X10786039Y-19456960D02*
X10776515Y-19447436D01*
X10776515Y-19447436D02*
X10766992Y-19428389D01*
X10766992Y-19428389D02*
X10766992Y-19371246D01*
X10766992Y-19371246D02*
X10776515Y-19352198D01*
X10776515Y-19352198D02*
X10786039Y-19342674D01*
X10786039Y-19342674D02*
X10805087Y-19333150D01*
X10805087Y-19333150D02*
X10833658Y-19333150D01*
X10833658Y-19333150D02*
X10852706Y-19342674D01*
X10852706Y-19342674D02*
X10862230Y-19352198D01*
X10862230Y-19352198D02*
X10871753Y-19371246D01*
X10871753Y-19371246D02*
X10871753Y-19428389D01*
X10871753Y-19428389D02*
X10862230Y-19447436D01*
X10862230Y-19447436D02*
X10852706Y-19456960D01*
X10852706Y-19456960D02*
X10833658Y-19466484D01*
X10833658Y-19466484D02*
X10805087Y-19466484D01*
X10986039Y-19466484D02*
X10966992Y-19456960D01*
X10966992Y-19456960D02*
X10957468Y-19437912D01*
X10957468Y-19437912D02*
X10957468Y-19266484D01*
X11138420Y-19456960D02*
X11119373Y-19466484D01*
X11119373Y-19466484D02*
X11081277Y-19466484D01*
X11081277Y-19466484D02*
X11062230Y-19456960D01*
X11062230Y-19456960D02*
X11052706Y-19437912D01*
X11052706Y-19437912D02*
X11052706Y-19361722D01*
X11052706Y-19361722D02*
X11062230Y-19342674D01*
X11062230Y-19342674D02*
X11081277Y-19333150D01*
X11081277Y-19333150D02*
X11119373Y-19333150D01*
X11119373Y-19333150D02*
X11138420Y-19342674D01*
X11138420Y-19342674D02*
X11147944Y-19361722D01*
X11147944Y-19361722D02*
X11147944Y-19380770D01*
X11147944Y-19380770D02*
X11052706Y-19399817D01*
X11224134Y-19456960D02*
X11243182Y-19466484D01*
X11243182Y-19466484D02*
X11281277Y-19466484D01*
X11281277Y-19466484D02*
X11300325Y-19456960D01*
X11300325Y-19456960D02*
X11309849Y-19437912D01*
X11309849Y-19437912D02*
X11309849Y-19428389D01*
X11309849Y-19428389D02*
X11300325Y-19409341D01*
X11300325Y-19409341D02*
X11281277Y-19399817D01*
X11281277Y-19399817D02*
X11252706Y-19399817D01*
X11252706Y-19399817D02*
X11233658Y-19390293D01*
X11233658Y-19390293D02*
X11224134Y-19371246D01*
X11224134Y-19371246D02*
X11224134Y-19361722D01*
X11224134Y-19361722D02*
X11233658Y-19342674D01*
X11233658Y-19342674D02*
X11252706Y-19333150D01*
X11252706Y-19333150D02*
X11281277Y-19333150D01*
X11281277Y-19333150D02*
X11300325Y-19342674D01*
X11376515Y-19542674D02*
X11386039Y-19533150D01*
X11386039Y-19533150D02*
X11405087Y-19504579D01*
X11405087Y-19504579D02*
X11414611Y-19485531D01*
X11414611Y-19485531D02*
X11424134Y-19456960D01*
X11424134Y-19456960D02*
X11433658Y-19409341D01*
X11433658Y-19409341D02*
X11433658Y-19371246D01*
X11433658Y-19371246D02*
X11424134Y-19323627D01*
X11424134Y-19323627D02*
X11414611Y-19295055D01*
X11414611Y-19295055D02*
X11405087Y-19276008D01*
X11405087Y-19276008D02*
X11386039Y-19247436D01*
X11386039Y-19247436D02*
X11376515Y-19237912D01*
X11738420Y-19542674D02*
X11728896Y-19533150D01*
X11728896Y-19533150D02*
X11709849Y-19504579D01*
X11709849Y-19504579D02*
X11700325Y-19485531D01*
X11700325Y-19485531D02*
X11690801Y-19456960D01*
X11690801Y-19456960D02*
X11681277Y-19409341D01*
X11681277Y-19409341D02*
X11681277Y-19371246D01*
X11681277Y-19371246D02*
X11690801Y-19323627D01*
X11690801Y-19323627D02*
X11700325Y-19295055D01*
X11700325Y-19295055D02*
X11709849Y-19276008D01*
X11709849Y-19276008D02*
X11728896Y-19247436D01*
X11728896Y-19247436D02*
X11738420Y-19237912D01*
X11814611Y-19333150D02*
X11814611Y-19466484D01*
X11814611Y-19352198D02*
X11824134Y-19342674D01*
X11824134Y-19342674D02*
X11843182Y-19333150D01*
X11843182Y-19333150D02*
X11871753Y-19333150D01*
X11871753Y-19333150D02*
X11890801Y-19342674D01*
X11890801Y-19342674D02*
X11900325Y-19361722D01*
X11900325Y-19361722D02*
X11900325Y-19466484D01*
X12024134Y-19466484D02*
X12005087Y-19456960D01*
X12005087Y-19456960D02*
X11995563Y-19447436D01*
X11995563Y-19447436D02*
X11986039Y-19428389D01*
X11986039Y-19428389D02*
X11986039Y-19371246D01*
X11986039Y-19371246D02*
X11995563Y-19352198D01*
X11995563Y-19352198D02*
X12005087Y-19342674D01*
X12005087Y-19342674D02*
X12024134Y-19333150D01*
X12024134Y-19333150D02*
X12052706Y-19333150D01*
X12052706Y-19333150D02*
X12071753Y-19342674D01*
X12071753Y-19342674D02*
X12081277Y-19352198D01*
X12081277Y-19352198D02*
X12090801Y-19371246D01*
X12090801Y-19371246D02*
X12090801Y-19428389D01*
X12090801Y-19428389D02*
X12081277Y-19447436D01*
X12081277Y-19447436D02*
X12071753Y-19456960D01*
X12071753Y-19456960D02*
X12052706Y-19466484D01*
X12052706Y-19466484D02*
X12024134Y-19466484D01*
X12147944Y-19333150D02*
X12224134Y-19333150D01*
X12176515Y-19266484D02*
X12176515Y-19437912D01*
X12176515Y-19437912D02*
X12186039Y-19456960D01*
X12186039Y-19456960D02*
X12205087Y-19466484D01*
X12205087Y-19466484D02*
X12224134Y-19466484D01*
X12443182Y-19333150D02*
X12443182Y-19533150D01*
X12443182Y-19342674D02*
X12462230Y-19333150D01*
X12462230Y-19333150D02*
X12500325Y-19333150D01*
X12500325Y-19333150D02*
X12519373Y-19342674D01*
X12519373Y-19342674D02*
X12528896Y-19352198D01*
X12528896Y-19352198D02*
X12538420Y-19371246D01*
X12538420Y-19371246D02*
X12538420Y-19428389D01*
X12538420Y-19428389D02*
X12528896Y-19447436D01*
X12528896Y-19447436D02*
X12519373Y-19456960D01*
X12519373Y-19456960D02*
X12500325Y-19466484D01*
X12500325Y-19466484D02*
X12462230Y-19466484D01*
X12462230Y-19466484D02*
X12443182Y-19456960D01*
X12652706Y-19466484D02*
X12633658Y-19456960D01*
X12633658Y-19456960D02*
X12624134Y-19437912D01*
X12624134Y-19437912D02*
X12624134Y-19266484D01*
X12814611Y-19466484D02*
X12814611Y-19361722D01*
X12814611Y-19361722D02*
X12805087Y-19342674D01*
X12805087Y-19342674D02*
X12786039Y-19333150D01*
X12786039Y-19333150D02*
X12747944Y-19333150D01*
X12747944Y-19333150D02*
X12728896Y-19342674D01*
X12814611Y-19456960D02*
X12795563Y-19466484D01*
X12795563Y-19466484D02*
X12747944Y-19466484D01*
X12747944Y-19466484D02*
X12728896Y-19456960D01*
X12728896Y-19456960D02*
X12719373Y-19437912D01*
X12719373Y-19437912D02*
X12719373Y-19418865D01*
X12719373Y-19418865D02*
X12728896Y-19399817D01*
X12728896Y-19399817D02*
X12747944Y-19390293D01*
X12747944Y-19390293D02*
X12795563Y-19390293D01*
X12795563Y-19390293D02*
X12814611Y-19380770D01*
X12881277Y-19333150D02*
X12957468Y-19333150D01*
X12909849Y-19266484D02*
X12909849Y-19437912D01*
X12909849Y-19437912D02*
X12919373Y-19456960D01*
X12919373Y-19456960D02*
X12938420Y-19466484D01*
X12938420Y-19466484D02*
X12957468Y-19466484D01*
X13100325Y-19456960D02*
X13081277Y-19466484D01*
X13081277Y-19466484D02*
X13043182Y-19466484D01*
X13043182Y-19466484D02*
X13024134Y-19456960D01*
X13024134Y-19456960D02*
X13014611Y-19437912D01*
X13014611Y-19437912D02*
X13014611Y-19361722D01*
X13014611Y-19361722D02*
X13024134Y-19342674D01*
X13024134Y-19342674D02*
X13043182Y-19333150D01*
X13043182Y-19333150D02*
X13081277Y-19333150D01*
X13081277Y-19333150D02*
X13100325Y-19342674D01*
X13100325Y-19342674D02*
X13109849Y-19361722D01*
X13109849Y-19361722D02*
X13109849Y-19380770D01*
X13109849Y-19380770D02*
X13014611Y-19399817D01*
X13281277Y-19466484D02*
X13281277Y-19266484D01*
X13281277Y-19456960D02*
X13262230Y-19466484D01*
X13262230Y-19466484D02*
X13224134Y-19466484D01*
X13224134Y-19466484D02*
X13205087Y-19456960D01*
X13205087Y-19456960D02*
X13195563Y-19447436D01*
X13195563Y-19447436D02*
X13186039Y-19428389D01*
X13186039Y-19428389D02*
X13186039Y-19371246D01*
X13186039Y-19371246D02*
X13195563Y-19352198D01*
X13195563Y-19352198D02*
X13205087Y-19342674D01*
X13205087Y-19342674D02*
X13224134Y-19333150D01*
X13224134Y-19333150D02*
X13262230Y-19333150D01*
X13262230Y-19333150D02*
X13281277Y-19342674D01*
X13357468Y-19542674D02*
X13366992Y-19533150D01*
X13366992Y-19533150D02*
X13386039Y-19504579D01*
X13386039Y-19504579D02*
X13395563Y-19485531D01*
X13395563Y-19485531D02*
X13405087Y-19456960D01*
X13405087Y-19456960D02*
X13414611Y-19409341D01*
X13414611Y-19409341D02*
X13414611Y-19371246D01*
X13414611Y-19371246D02*
X13405087Y-19323627D01*
X13405087Y-19323627D02*
X13395563Y-19295055D01*
X13395563Y-19295055D02*
X13386039Y-19276008D01*
X13386039Y-19276008D02*
X13366992Y-19247436D01*
X13366992Y-19247436D02*
X13357468Y-19237912D01*
M02*
